%TF.GenerationSoftware,KiCad,Pcbnew,6.0.4-6f826c9f35~116~ubuntu20.04.1*%
%TF.CreationDate,2022-04-18T14:08:09+07:00*%
%TF.ProjectId,pmod-thin-16-leds,706d6f64-2d74-4686-996e-2d31362d6c65,1.0*%
%TF.SameCoordinates,Original*%
%TF.FileFunction,Soldermask,Top*%
%TF.FilePolarity,Negative*%
%FSLAX46Y46*%
G04 Gerber Fmt 4.6, Leading zero omitted, Abs format (unit mm)*
G04 Created by KiCad (PCBNEW 6.0.4-6f826c9f35~116~ubuntu20.04.1) date 2022-04-18 14:08:09*
%MOMM*%
%LPD*%
G01*
G04 APERTURE LIST*
G04 Aperture macros list*
%AMRoundRect*
0 Rectangle with rounded corners*
0 $1 Rounding radius*
0 $2 $3 $4 $5 $6 $7 $8 $9 X,Y pos of 4 corners*
0 Add a 4 corners polygon primitive as box body*
4,1,4,$2,$3,$4,$5,$6,$7,$8,$9,$2,$3,0*
0 Add four circle primitives for the rounded corners*
1,1,$1+$1,$2,$3*
1,1,$1+$1,$4,$5*
1,1,$1+$1,$6,$7*
1,1,$1+$1,$8,$9*
0 Add four rect primitives between the rounded corners*
20,1,$1+$1,$2,$3,$4,$5,0*
20,1,$1+$1,$4,$5,$6,$7,0*
20,1,$1+$1,$6,$7,$8,$9,0*
20,1,$1+$1,$8,$9,$2,$3,0*%
G04 Aperture macros list end*
%ADD10RoundRect,0.050800X0.850000X0.850000X-0.850000X0.850000X-0.850000X-0.850000X0.850000X-0.850000X0*%
%ADD11O,1.801600X1.801600*%
%ADD12C,1.801600*%
%ADD13RoundRect,0.300800X-0.350000X-0.450000X0.350000X-0.450000X0.350000X0.450000X-0.350000X0.450000X0*%
%ADD14RoundRect,0.300800X0.325000X0.450000X-0.325000X0.450000X-0.325000X-0.450000X0.325000X-0.450000X0*%
G04 APERTURE END LIST*
D10*
%TO.C,J1*%
X102710000Y-74220000D03*
D11*
X102710000Y-76760000D03*
X102710000Y-79300000D03*
X102710000Y-81840000D03*
X102710000Y-84380000D03*
D12*
X102710000Y-86920000D03*
X100170000Y-74220000D03*
D11*
X100170000Y-76760000D03*
X100170000Y-79300000D03*
X100170000Y-81840000D03*
X100170000Y-84380000D03*
X100170000Y-86920000D03*
%TD*%
D13*
%TO.C,R5*%
X111560000Y-83250000D03*
X113560000Y-83250000D03*
%TD*%
D14*
%TO.C,D04*%
X122285000Y-80750000D03*
X120235000Y-80750000D03*
%TD*%
D13*
%TO.C,R16*%
X111560000Y-110750000D03*
X113560000Y-110750000D03*
%TD*%
%TO.C,R11*%
X111560000Y-98250000D03*
X113560000Y-98250000D03*
%TD*%
%TO.C,R2*%
X111560000Y-75750000D03*
X113560000Y-75750000D03*
%TD*%
%TO.C,R15*%
X111560000Y-108250000D03*
X113560000Y-108250000D03*
%TD*%
D14*
%TO.C,D14*%
X122285000Y-105750000D03*
X120235000Y-105750000D03*
%TD*%
%TO.C,D08*%
X122285000Y-90750000D03*
X120235000Y-90750000D03*
%TD*%
%TO.C,D01*%
X122285000Y-73250000D03*
X120235000Y-73250000D03*
%TD*%
%TO.C,D15*%
X122285000Y-108250000D03*
X120235000Y-108250000D03*
%TD*%
D13*
%TO.C,R3*%
X111560000Y-78250000D03*
X113560000Y-78250000D03*
%TD*%
%TO.C,R13*%
X111560000Y-103250000D03*
X113560000Y-103250000D03*
%TD*%
%TO.C,R7*%
X111560000Y-88250000D03*
X113560000Y-88250000D03*
%TD*%
%TO.C,R6*%
X111560000Y-85750000D03*
X113560000Y-85750000D03*
%TD*%
D14*
%TO.C,D16*%
X122285000Y-110750000D03*
X120235000Y-110750000D03*
%TD*%
%TO.C,D13*%
X122285000Y-103250000D03*
X120235000Y-103250000D03*
%TD*%
D13*
%TO.C,R12*%
X111560000Y-100750000D03*
X113560000Y-100750000D03*
%TD*%
D14*
%TO.C,D09*%
X122285000Y-93250000D03*
X120235000Y-93250000D03*
%TD*%
D13*
%TO.C,R1*%
X111560000Y-73250000D03*
X113560000Y-73250000D03*
%TD*%
%TO.C,R10*%
X111560000Y-95750000D03*
X113560000Y-95750000D03*
%TD*%
D14*
%TO.C,D02*%
X122285000Y-75750000D03*
X120235000Y-75750000D03*
%TD*%
D13*
%TO.C,R8*%
X111560000Y-90750000D03*
X113560000Y-90750000D03*
%TD*%
D14*
%TO.C,D03*%
X122285000Y-78250000D03*
X120235000Y-78250000D03*
%TD*%
%TO.C,D06*%
X122285000Y-85750000D03*
X120235000Y-85750000D03*
%TD*%
D10*
%TO.C,J2*%
X102710000Y-97080000D03*
D11*
X102710000Y-99620000D03*
X102710000Y-102160000D03*
X102710000Y-104700000D03*
X102710000Y-107240000D03*
D12*
X102710000Y-109780000D03*
X100170000Y-97080000D03*
D11*
X100170000Y-99620000D03*
X100170000Y-102160000D03*
X100170000Y-104700000D03*
X100170000Y-107240000D03*
X100170000Y-109780000D03*
%TD*%
D14*
%TO.C,D07*%
X122285000Y-88250000D03*
X120235000Y-88250000D03*
%TD*%
D13*
%TO.C,R14*%
X111560000Y-105750000D03*
X113560000Y-105750000D03*
%TD*%
D14*
%TO.C,D11*%
X122285000Y-98250000D03*
X120235000Y-98250000D03*
%TD*%
D13*
%TO.C,R9*%
X111560000Y-93250000D03*
X113560000Y-93250000D03*
%TD*%
%TO.C,R4*%
X111560000Y-80750000D03*
X113560000Y-80750000D03*
%TD*%
D14*
%TO.C,D10*%
X122285000Y-95750000D03*
X120235000Y-95750000D03*
%TD*%
%TO.C,D12*%
X122285000Y-100750000D03*
X120235000Y-100750000D03*
%TD*%
%TO.C,D05*%
X122285000Y-83250000D03*
X120235000Y-83250000D03*
%TD*%
M02*
