%TF.GenerationSoftware,KiCad,Pcbnew,6.0.4-6f826c9f35~116~ubuntu20.04.1*%
%TF.CreationDate,2022-04-18T14:08:09+07:00*%
%TF.ProjectId,pmod-thin-16-leds,706d6f64-2d74-4686-996e-2d31362d6c65,1.0*%
%TF.SameCoordinates,Original*%
%TF.FileFunction,Copper,L1,Top*%
%TF.FilePolarity,Positive*%
%FSLAX46Y46*%
G04 Gerber Fmt 4.6, Leading zero omitted, Abs format (unit mm)*
G04 Created by KiCad (PCBNEW 6.0.4-6f826c9f35~116~ubuntu20.04.1) date 2022-04-18 14:08:09*
%MOMM*%
%LPD*%
G01*
G04 APERTURE LIST*
G04 Aperture macros list*
%AMRoundRect*
0 Rectangle with rounded corners*
0 $1 Rounding radius*
0 $2 $3 $4 $5 $6 $7 $8 $9 X,Y pos of 4 corners*
0 Add a 4 corners polygon primitive as box body*
4,1,4,$2,$3,$4,$5,$6,$7,$8,$9,$2,$3,0*
0 Add four circle primitives for the rounded corners*
1,1,$1+$1,$2,$3*
1,1,$1+$1,$4,$5*
1,1,$1+$1,$6,$7*
1,1,$1+$1,$8,$9*
0 Add four rect primitives between the rounded corners*
20,1,$1+$1,$2,$3,$4,$5,0*
20,1,$1+$1,$4,$5,$6,$7,0*
20,1,$1+$1,$6,$7,$8,$9,0*
20,1,$1+$1,$8,$9,$2,$3,0*%
G04 Aperture macros list end*
%TA.AperFunction,ComponentPad*%
%ADD10R,1.700000X1.700000*%
%TD*%
%TA.AperFunction,ComponentPad*%
%ADD11O,1.700000X1.700000*%
%TD*%
%TA.AperFunction,ComponentPad*%
%ADD12C,1.700000*%
%TD*%
%TA.AperFunction,SMDPad,CuDef*%
%ADD13RoundRect,0.250000X-0.350000X-0.450000X0.350000X-0.450000X0.350000X0.450000X-0.350000X0.450000X0*%
%TD*%
%TA.AperFunction,SMDPad,CuDef*%
%ADD14RoundRect,0.250000X0.325000X0.450000X-0.325000X0.450000X-0.325000X-0.450000X0.325000X-0.450000X0*%
%TD*%
%TA.AperFunction,Conductor*%
%ADD15C,0.254000*%
%TD*%
G04 APERTURE END LIST*
D10*
%TO.P,J1,1,Pin_1*%
%TO.N,/p1*%
X102710000Y-74220000D03*
D11*
%TO.P,J1,2,Pin_2*%
%TO.N,/p3*%
X102710000Y-76760000D03*
%TO.P,J1,3,Pin_3*%
%TO.N,/p5*%
X102710000Y-79300000D03*
%TO.P,J1,4,Pin_4*%
%TO.N,/p7*%
X102710000Y-81840000D03*
%TO.P,J1,5,GND*%
%TO.N,GND*%
X102710000Y-84380000D03*
D12*
%TO.P,J1,6,3.3V*%
%TO.N,+3V3*%
X102710000Y-86920000D03*
%TO.P,J1,7,Pin_7*%
%TO.N,/p2*%
X100170000Y-74220000D03*
D11*
%TO.P,J1,8,Pin_8*%
%TO.N,/p4*%
X100170000Y-76760000D03*
%TO.P,J1,9,Pin_9*%
%TO.N,/p6*%
X100170000Y-79300000D03*
%TO.P,J1,10,Pin_10*%
%TO.N,/p8*%
X100170000Y-81840000D03*
%TO.P,J1,11,GND*%
%TO.N,GND*%
X100170000Y-84380000D03*
%TO.P,J1,12,3.3V*%
%TO.N,+3V3*%
X100170000Y-86920000D03*
%TD*%
D13*
%TO.P,R5,1*%
%TO.N,/p5*%
X111560000Y-83250000D03*
%TO.P,R5,2*%
%TO.N,Net-(D5-Pad2)*%
X113560000Y-83250000D03*
%TD*%
D14*
%TO.P,D04,1,K*%
%TO.N,GND*%
X122285000Y-80750000D03*
%TO.P,D04,2,A*%
%TO.N,Net-(D4-Pad2)*%
X120235000Y-80750000D03*
%TD*%
D13*
%TO.P,R16,1*%
%TO.N,/p16*%
X111560000Y-110750000D03*
%TO.P,R16,2*%
%TO.N,Net-(D16-Pad2)*%
X113560000Y-110750000D03*
%TD*%
%TO.P,R11,1*%
%TO.N,/p11*%
X111560000Y-98250000D03*
%TO.P,R11,2*%
%TO.N,Net-(D11-Pad2)*%
X113560000Y-98250000D03*
%TD*%
%TO.P,R2,1*%
%TO.N,/p2*%
X111560000Y-75750000D03*
%TO.P,R2,2*%
%TO.N,Net-(D2-Pad2)*%
X113560000Y-75750000D03*
%TD*%
%TO.P,R15,1*%
%TO.N,/p15*%
X111560000Y-108250000D03*
%TO.P,R15,2*%
%TO.N,Net-(D15-Pad2)*%
X113560000Y-108250000D03*
%TD*%
D14*
%TO.P,D14,1,K*%
%TO.N,GND*%
X122285000Y-105750000D03*
%TO.P,D14,2,A*%
%TO.N,Net-(D14-Pad2)*%
X120235000Y-105750000D03*
%TD*%
%TO.P,D08,1,K*%
%TO.N,GND*%
X122285000Y-90750000D03*
%TO.P,D08,2,A*%
%TO.N,Net-(D8-Pad2)*%
X120235000Y-90750000D03*
%TD*%
%TO.P,D01,1,K*%
%TO.N,GND*%
X122285000Y-73250000D03*
%TO.P,D01,2,A*%
%TO.N,Net-(D1-Pad2)*%
X120235000Y-73250000D03*
%TD*%
%TO.P,D15,1,K*%
%TO.N,GND*%
X122285000Y-108250000D03*
%TO.P,D15,2,A*%
%TO.N,Net-(D15-Pad2)*%
X120235000Y-108250000D03*
%TD*%
D13*
%TO.P,R3,1*%
%TO.N,/p3*%
X111560000Y-78250000D03*
%TO.P,R3,2*%
%TO.N,Net-(D3-Pad2)*%
X113560000Y-78250000D03*
%TD*%
%TO.P,R13,1*%
%TO.N,/p13*%
X111560000Y-103250000D03*
%TO.P,R13,2*%
%TO.N,Net-(D13-Pad2)*%
X113560000Y-103250000D03*
%TD*%
%TO.P,R7,1*%
%TO.N,/p7*%
X111560000Y-88250000D03*
%TO.P,R7,2*%
%TO.N,Net-(D7-Pad2)*%
X113560000Y-88250000D03*
%TD*%
%TO.P,R6,1*%
%TO.N,/p6*%
X111560000Y-85750000D03*
%TO.P,R6,2*%
%TO.N,Net-(D6-Pad2)*%
X113560000Y-85750000D03*
%TD*%
D14*
%TO.P,D16,1,K*%
%TO.N,GND*%
X122285000Y-110750000D03*
%TO.P,D16,2,A*%
%TO.N,Net-(D16-Pad2)*%
X120235000Y-110750000D03*
%TD*%
%TO.P,D13,1,K*%
%TO.N,GND*%
X122285000Y-103250000D03*
%TO.P,D13,2,A*%
%TO.N,Net-(D13-Pad2)*%
X120235000Y-103250000D03*
%TD*%
D13*
%TO.P,R12,1*%
%TO.N,/p12*%
X111560000Y-100750000D03*
%TO.P,R12,2*%
%TO.N,Net-(D12-Pad2)*%
X113560000Y-100750000D03*
%TD*%
D14*
%TO.P,D09,1,K*%
%TO.N,GND*%
X122285000Y-93250000D03*
%TO.P,D09,2,A*%
%TO.N,Net-(D9-Pad2)*%
X120235000Y-93250000D03*
%TD*%
D13*
%TO.P,R1,1*%
%TO.N,/p1*%
X111560000Y-73250000D03*
%TO.P,R1,2*%
%TO.N,Net-(D1-Pad2)*%
X113560000Y-73250000D03*
%TD*%
%TO.P,R10,1*%
%TO.N,/p10*%
X111560000Y-95750000D03*
%TO.P,R10,2*%
%TO.N,Net-(D10-Pad2)*%
X113560000Y-95750000D03*
%TD*%
D14*
%TO.P,D02,1,K*%
%TO.N,GND*%
X122285000Y-75750000D03*
%TO.P,D02,2,A*%
%TO.N,Net-(D2-Pad2)*%
X120235000Y-75750000D03*
%TD*%
D13*
%TO.P,R8,1*%
%TO.N,/p8*%
X111560000Y-90750000D03*
%TO.P,R8,2*%
%TO.N,Net-(D8-Pad2)*%
X113560000Y-90750000D03*
%TD*%
D14*
%TO.P,D03,1,K*%
%TO.N,GND*%
X122285000Y-78250000D03*
%TO.P,D03,2,A*%
%TO.N,Net-(D3-Pad2)*%
X120235000Y-78250000D03*
%TD*%
%TO.P,D06,1,K*%
%TO.N,GND*%
X122285000Y-85750000D03*
%TO.P,D06,2,A*%
%TO.N,Net-(D6-Pad2)*%
X120235000Y-85750000D03*
%TD*%
D10*
%TO.P,J2,1,Pin_1*%
%TO.N,/p9*%
X102710000Y-97080000D03*
D11*
%TO.P,J2,2,Pin_2*%
%TO.N,/p11*%
X102710000Y-99620000D03*
%TO.P,J2,3,Pin_3*%
%TO.N,/p13*%
X102710000Y-102160000D03*
%TO.P,J2,4,Pin_4*%
%TO.N,/p15*%
X102710000Y-104700000D03*
%TO.P,J2,5,GND*%
%TO.N,GND*%
X102710000Y-107240000D03*
D12*
%TO.P,J2,6,3.3V*%
%TO.N,+3V3*%
X102710000Y-109780000D03*
%TO.P,J2,7,Pin_7*%
%TO.N,/p10*%
X100170000Y-97080000D03*
D11*
%TO.P,J2,8,Pin_8*%
%TO.N,/p12*%
X100170000Y-99620000D03*
%TO.P,J2,9,Pin_9*%
%TO.N,/p14*%
X100170000Y-102160000D03*
%TO.P,J2,10,Pin_10*%
%TO.N,/p16*%
X100170000Y-104700000D03*
%TO.P,J2,11,GND*%
%TO.N,GND*%
X100170000Y-107240000D03*
%TO.P,J2,12,3.3V*%
%TO.N,+3V3*%
X100170000Y-109780000D03*
%TD*%
D14*
%TO.P,D07,1,K*%
%TO.N,GND*%
X122285000Y-88250000D03*
%TO.P,D07,2,A*%
%TO.N,Net-(D7-Pad2)*%
X120235000Y-88250000D03*
%TD*%
D13*
%TO.P,R14,1*%
%TO.N,/p14*%
X111560000Y-105750000D03*
%TO.P,R14,2*%
%TO.N,Net-(D14-Pad2)*%
X113560000Y-105750000D03*
%TD*%
D14*
%TO.P,D11,1,K*%
%TO.N,GND*%
X122285000Y-98250000D03*
%TO.P,D11,2,A*%
%TO.N,Net-(D11-Pad2)*%
X120235000Y-98250000D03*
%TD*%
D13*
%TO.P,R9,1*%
%TO.N,/p9*%
X111560000Y-93250000D03*
%TO.P,R9,2*%
%TO.N,Net-(D9-Pad2)*%
X113560000Y-93250000D03*
%TD*%
%TO.P,R4,1*%
%TO.N,/p4*%
X111560000Y-80750000D03*
%TO.P,R4,2*%
%TO.N,Net-(D4-Pad2)*%
X113560000Y-80750000D03*
%TD*%
D14*
%TO.P,D10,1,K*%
%TO.N,GND*%
X122285000Y-95750000D03*
%TO.P,D10,2,A*%
%TO.N,Net-(D10-Pad2)*%
X120235000Y-95750000D03*
%TD*%
%TO.P,D12,1,K*%
%TO.N,GND*%
X122285000Y-100750000D03*
%TO.P,D12,2,A*%
%TO.N,Net-(D12-Pad2)*%
X120235000Y-100750000D03*
%TD*%
%TO.P,D05,1,K*%
%TO.N,GND*%
X122285000Y-83250000D03*
%TO.P,D05,2,A*%
%TO.N,Net-(D5-Pad2)*%
X120235000Y-83250000D03*
%TD*%
D15*
%TO.N,Net-(D1-Pad2)*%
X113560000Y-73250000D02*
X120235000Y-73250000D01*
%TO.N,Net-(D2-Pad2)*%
X113560000Y-75750000D02*
X120235000Y-75750000D01*
%TO.N,Net-(D3-Pad2)*%
X113560000Y-78250000D02*
X120235000Y-78250000D01*
%TO.N,Net-(D4-Pad2)*%
X113560000Y-80750000D02*
X120235000Y-80750000D01*
%TO.N,Net-(D5-Pad2)*%
X113560000Y-83250000D02*
X120235000Y-83250000D01*
%TO.N,Net-(D6-Pad2)*%
X113560000Y-85750000D02*
X120235000Y-85750000D01*
%TO.N,Net-(D7-Pad2)*%
X113560000Y-88250000D02*
X120235000Y-88250000D01*
%TO.N,Net-(D8-Pad2)*%
X113560000Y-90750000D02*
X120235000Y-90750000D01*
%TO.N,Net-(D9-Pad2)*%
X113560000Y-93250000D02*
X120235000Y-93250000D01*
%TO.N,Net-(D10-Pad2)*%
X113560000Y-95750000D02*
X120235000Y-95750000D01*
%TO.N,Net-(D11-Pad2)*%
X113560000Y-98250000D02*
X120235000Y-98250000D01*
%TO.N,Net-(D12-Pad2)*%
X113560000Y-100750000D02*
X120235000Y-100750000D01*
%TO.N,Net-(D13-Pad2)*%
X113560000Y-103250000D02*
X120235000Y-103250000D01*
%TO.N,Net-(D14-Pad2)*%
X113560000Y-105750000D02*
X120235000Y-105750000D01*
%TO.N,Net-(D15-Pad2)*%
X113560000Y-108250000D02*
X120235000Y-108250000D01*
%TO.N,Net-(D16-Pad2)*%
X113560000Y-110750000D02*
X120235000Y-110750000D01*
%TO.N,/p1*%
X110590000Y-74220000D02*
X102710000Y-74220000D01*
X111560000Y-73250000D02*
X110590000Y-74220000D01*
%TO.N,/p3*%
X110070000Y-76760000D02*
X111560000Y-78250000D01*
X102710000Y-76760000D02*
X110070000Y-76760000D01*
%TO.N,/p5*%
X102710000Y-79300000D02*
X107610000Y-79300000D01*
X107610000Y-79300000D02*
X111560000Y-83250000D01*
%TO.N,/p7*%
X105150000Y-81840000D02*
X111560000Y-88250000D01*
X111560000Y-88250000D02*
X111560000Y-87690000D01*
X102710000Y-81840000D02*
X105150000Y-81840000D01*
%TO.N,/p2*%
X111260511Y-75450511D02*
X111560000Y-75750000D01*
X101400511Y-75450511D02*
X111260511Y-75450511D01*
X100170000Y-74220000D02*
X101400511Y-75450511D01*
%TO.N,/p4*%
X100170000Y-76760000D02*
X101400511Y-77990511D01*
X101400511Y-77990511D02*
X108800511Y-77990511D01*
X108800511Y-77990511D02*
X111560000Y-80750000D01*
%TO.N,/p6*%
X106340511Y-80530511D02*
X111560000Y-85750000D01*
X100170000Y-79300000D02*
X101400511Y-80530511D01*
X101400511Y-80530511D02*
X106340511Y-80530511D01*
%TO.N,/p8*%
X101479489Y-83149489D02*
X103959489Y-83149489D01*
X103959489Y-83149489D02*
X111560000Y-90750000D01*
X100170000Y-81840000D02*
X101479489Y-83149489D01*
%TO.N,/p9*%
X102710000Y-97080000D02*
X107730000Y-97080000D01*
X107730000Y-97080000D02*
X111560000Y-93250000D01*
%TO.N,/p11*%
X102710000Y-99620000D02*
X110190000Y-99620000D01*
X110190000Y-99620000D02*
X111560000Y-98250000D01*
%TO.N,/p13*%
X102710000Y-102160000D02*
X110470000Y-102160000D01*
X110470000Y-102160000D02*
X111560000Y-103250000D01*
%TO.N,/p15*%
X102710000Y-104700000D02*
X108010000Y-104700000D01*
X108010000Y-104700000D02*
X111560000Y-108250000D01*
%TO.N,/p10*%
X108999489Y-98310511D02*
X111560000Y-95750000D01*
X101400511Y-98310511D02*
X108999489Y-98310511D01*
X100170000Y-97080000D02*
X101400511Y-98310511D01*
%TO.N,/p12*%
X101400511Y-100850511D02*
X111459489Y-100850511D01*
X100170000Y-99620000D02*
X101400511Y-100850511D01*
X111459489Y-100850511D02*
X111560000Y-100750000D01*
%TO.N,/p14*%
X101400511Y-103390511D02*
X109200511Y-103390511D01*
X109200511Y-103390511D02*
X111560000Y-105750000D01*
X100170000Y-102160000D02*
X101400511Y-103390511D01*
%TO.N,/p16*%
X106740511Y-105930511D02*
X111560000Y-110750000D01*
X100170000Y-104700000D02*
X101400511Y-105930511D01*
X101400511Y-105930511D02*
X106740511Y-105930511D01*
%TD*%
%TA.AperFunction,Conductor*%
%TO.N,GND*%
G36*
X123544942Y-71506897D02*
G01*
X123559750Y-71509203D01*
X123559752Y-71509203D01*
X123568621Y-71510584D01*
X123577524Y-71509420D01*
X123577526Y-71509420D01*
X123577650Y-71509404D01*
X123608088Y-71509133D01*
X123637755Y-71512475D01*
X123670158Y-71516126D01*
X123697666Y-71522404D01*
X123774756Y-71549379D01*
X123800176Y-71561620D01*
X123869326Y-71605069D01*
X123891386Y-71622661D01*
X123949135Y-71680409D01*
X123966727Y-71702469D01*
X124010178Y-71771621D01*
X124022420Y-71797041D01*
X124049393Y-71874124D01*
X124055672Y-71901632D01*
X124061919Y-71957072D01*
X124061611Y-71972764D01*
X124062693Y-71972777D01*
X124062584Y-71981746D01*
X124061202Y-71990621D01*
X124065328Y-72022171D01*
X124066391Y-72038500D01*
X124065507Y-89706704D01*
X124064395Y-111953521D01*
X124062895Y-111972898D01*
X124060583Y-111987745D01*
X124060583Y-111987752D01*
X124059202Y-111996621D01*
X124060382Y-112005646D01*
X124060654Y-112036081D01*
X124053661Y-112098155D01*
X124047382Y-112125664D01*
X124020408Y-112202752D01*
X124008169Y-112228168D01*
X123964714Y-112297325D01*
X123947125Y-112319380D01*
X123889380Y-112377125D01*
X123867325Y-112394714D01*
X123798168Y-112438169D01*
X123772752Y-112450408D01*
X123695664Y-112477382D01*
X123668159Y-112483660D01*
X123612673Y-112489912D01*
X123597036Y-112489245D01*
X123597018Y-112490694D01*
X123588047Y-112490584D01*
X123579173Y-112489202D01*
X123570270Y-112490366D01*
X123570265Y-112490366D01*
X123547621Y-112493327D01*
X123531284Y-112494391D01*
X97117866Y-112492996D01*
X97098489Y-112491495D01*
X97083645Y-112489183D01*
X97083641Y-112489183D01*
X97074773Y-112487802D01*
X97065871Y-112488966D01*
X97065869Y-112488966D01*
X97065753Y-112488981D01*
X97035304Y-112489252D01*
X96973233Y-112482257D01*
X96945727Y-112475979D01*
X96868645Y-112449006D01*
X96843226Y-112436765D01*
X96776306Y-112394717D01*
X96774076Y-112393316D01*
X96752017Y-112375724D01*
X96694271Y-112317976D01*
X96676680Y-112295917D01*
X96633233Y-112226770D01*
X96620992Y-112201350D01*
X96594018Y-112124263D01*
X96587739Y-112096754D01*
X96581477Y-112041170D01*
X96580694Y-112025522D01*
X96580803Y-112016646D01*
X96582184Y-112007773D01*
X96578052Y-111976168D01*
X96576989Y-111959850D01*
X96576989Y-111953525D01*
X96576768Y-109746695D01*
X98807251Y-109746695D01*
X98807548Y-109751848D01*
X98807548Y-109751851D01*
X98813011Y-109846590D01*
X98820110Y-109969715D01*
X98821247Y-109974761D01*
X98821248Y-109974767D01*
X98823376Y-109984208D01*
X98869222Y-110187639D01*
X98953266Y-110394616D01*
X99004019Y-110477438D01*
X99067291Y-110580688D01*
X99069987Y-110585088D01*
X99216250Y-110753938D01*
X99388126Y-110896632D01*
X99581000Y-111009338D01*
X99585825Y-111011180D01*
X99585826Y-111011181D01*
X99658612Y-111038975D01*
X99789692Y-111089030D01*
X99794760Y-111090061D01*
X99794763Y-111090062D01*
X99902017Y-111111883D01*
X100008597Y-111133567D01*
X100013772Y-111133757D01*
X100013774Y-111133757D01*
X100226673Y-111141564D01*
X100226677Y-111141564D01*
X100231837Y-111141753D01*
X100236957Y-111141097D01*
X100236959Y-111141097D01*
X100448288Y-111114025D01*
X100448289Y-111114025D01*
X100453416Y-111113368D01*
X100458366Y-111111883D01*
X100662429Y-111050661D01*
X100662434Y-111050659D01*
X100667384Y-111049174D01*
X100867994Y-110950896D01*
X101049860Y-110821173D01*
X101208096Y-110663489D01*
X101267594Y-110580689D01*
X101338453Y-110482077D01*
X101339776Y-110483028D01*
X101386645Y-110439857D01*
X101456580Y-110427625D01*
X101522026Y-110455144D01*
X101549875Y-110486994D01*
X101609987Y-110585088D01*
X101756250Y-110753938D01*
X101928126Y-110896632D01*
X102121000Y-111009338D01*
X102125825Y-111011180D01*
X102125826Y-111011181D01*
X102198612Y-111038975D01*
X102329692Y-111089030D01*
X102334760Y-111090061D01*
X102334763Y-111090062D01*
X102442017Y-111111883D01*
X102548597Y-111133567D01*
X102553772Y-111133757D01*
X102553774Y-111133757D01*
X102766673Y-111141564D01*
X102766677Y-111141564D01*
X102771837Y-111141753D01*
X102776957Y-111141097D01*
X102776959Y-111141097D01*
X102988288Y-111114025D01*
X102988289Y-111114025D01*
X102993416Y-111113368D01*
X102998366Y-111111883D01*
X103202429Y-111050661D01*
X103202434Y-111050659D01*
X103207384Y-111049174D01*
X103407994Y-110950896D01*
X103589860Y-110821173D01*
X103748096Y-110663489D01*
X103807594Y-110580689D01*
X103875435Y-110486277D01*
X103878453Y-110482077D01*
X103899320Y-110439857D01*
X103975136Y-110286453D01*
X103975137Y-110286451D01*
X103977430Y-110281811D01*
X104042370Y-110068069D01*
X104071529Y-109846590D01*
X104071881Y-109832193D01*
X104073074Y-109783365D01*
X104073074Y-109783361D01*
X104073156Y-109780000D01*
X104054852Y-109557361D01*
X104000431Y-109340702D01*
X103911354Y-109135840D01*
X103842079Y-109028757D01*
X103792822Y-108952617D01*
X103792820Y-108952614D01*
X103790014Y-108948277D01*
X103639670Y-108783051D01*
X103635619Y-108779852D01*
X103635615Y-108779848D01*
X103468414Y-108647800D01*
X103468410Y-108647798D01*
X103464359Y-108644598D01*
X103422569Y-108621529D01*
X103372598Y-108571097D01*
X103357826Y-108501654D01*
X103382942Y-108435248D01*
X103410294Y-108408641D01*
X103585328Y-108283792D01*
X103593200Y-108277139D01*
X103744052Y-108126812D01*
X103750730Y-108118965D01*
X103875003Y-107946020D01*
X103880313Y-107937183D01*
X103974670Y-107746267D01*
X103978469Y-107736672D01*
X104040377Y-107532910D01*
X104042555Y-107522837D01*
X104043986Y-107511962D01*
X104041775Y-107497778D01*
X104028617Y-107494000D01*
X98853225Y-107494000D01*
X98839694Y-107497973D01*
X98838257Y-107507966D01*
X98868565Y-107642446D01*
X98871645Y-107652275D01*
X98951770Y-107849603D01*
X98956413Y-107858794D01*
X99067694Y-108040388D01*
X99073777Y-108048699D01*
X99213213Y-108209667D01*
X99220580Y-108216883D01*
X99384434Y-108352916D01*
X99392881Y-108358831D01*
X99461969Y-108399203D01*
X99510693Y-108450842D01*
X99523764Y-108520625D01*
X99497033Y-108586396D01*
X99456584Y-108619752D01*
X99443607Y-108626507D01*
X99439474Y-108629610D01*
X99439471Y-108629612D01*
X99274385Y-108753562D01*
X99264965Y-108760635D01*
X99110629Y-108922138D01*
X99107720Y-108926403D01*
X99107714Y-108926411D01*
X99036930Y-109030176D01*
X98984743Y-109106680D01*
X98937716Y-109207992D01*
X98893925Y-109302332D01*
X98890688Y-109309305D01*
X98830989Y-109524570D01*
X98807251Y-109746695D01*
X96576768Y-109746695D01*
X96576260Y-104666695D01*
X98807251Y-104666695D01*
X98807548Y-104671848D01*
X98807548Y-104671851D01*
X98816775Y-104831880D01*
X98820110Y-104889715D01*
X98821247Y-104894761D01*
X98821248Y-104894767D01*
X98839840Y-104977262D01*
X98869222Y-105107639D01*
X98953266Y-105314616D01*
X98978321Y-105355502D01*
X99061676Y-105491525D01*
X99069987Y-105505088D01*
X99216250Y-105673938D01*
X99388126Y-105816632D01*
X99461955Y-105859774D01*
X99510679Y-105911412D01*
X99523750Y-105981195D01*
X99497019Y-106046967D01*
X99456562Y-106080327D01*
X99448457Y-106084546D01*
X99439738Y-106090036D01*
X99269433Y-106217905D01*
X99261726Y-106224748D01*
X99114590Y-106378717D01*
X99108104Y-106386727D01*
X98988098Y-106562649D01*
X98983000Y-106571623D01*
X98893338Y-106764783D01*
X98889775Y-106774470D01*
X98834389Y-106974183D01*
X98835912Y-106982607D01*
X98848292Y-106986000D01*
X104028344Y-106986000D01*
X104041875Y-106982027D01*
X104043180Y-106972947D01*
X104001214Y-106805875D01*
X103997894Y-106796124D01*
X103974471Y-106742253D01*
X103965652Y-106671806D01*
X103996318Y-106607774D01*
X104056735Y-106570487D01*
X104090021Y-106566011D01*
X106425089Y-106566011D01*
X106493210Y-106586013D01*
X106514184Y-106602916D01*
X110414595Y-110503328D01*
X110448621Y-110565640D01*
X110451500Y-110592423D01*
X110451500Y-111250400D01*
X110451837Y-111253646D01*
X110451837Y-111253650D01*
X110461618Y-111347914D01*
X110462474Y-111356166D01*
X110464655Y-111362702D01*
X110464655Y-111362704D01*
X110472506Y-111386236D01*
X110518450Y-111523946D01*
X110611522Y-111674348D01*
X110736697Y-111799305D01*
X110742927Y-111803145D01*
X110742928Y-111803146D01*
X110880288Y-111887816D01*
X110887262Y-111892115D01*
X110967005Y-111918564D01*
X111048611Y-111945632D01*
X111048613Y-111945632D01*
X111055139Y-111947797D01*
X111061975Y-111948497D01*
X111061978Y-111948498D01*
X111105031Y-111952909D01*
X111159600Y-111958500D01*
X111960400Y-111958500D01*
X111963646Y-111958163D01*
X111963650Y-111958163D01*
X112059308Y-111948238D01*
X112059312Y-111948237D01*
X112066166Y-111947526D01*
X112072702Y-111945345D01*
X112072704Y-111945345D01*
X112204806Y-111901272D01*
X112233946Y-111891550D01*
X112384348Y-111798478D01*
X112470784Y-111711891D01*
X112533066Y-111677812D01*
X112603886Y-111682815D01*
X112648976Y-111711736D01*
X112736697Y-111799305D01*
X112742927Y-111803145D01*
X112742928Y-111803146D01*
X112880288Y-111887816D01*
X112887262Y-111892115D01*
X112967005Y-111918564D01*
X113048611Y-111945632D01*
X113048613Y-111945632D01*
X113055139Y-111947797D01*
X113061975Y-111948497D01*
X113061978Y-111948498D01*
X113105031Y-111952909D01*
X113159600Y-111958500D01*
X113960400Y-111958500D01*
X113963646Y-111958163D01*
X113963650Y-111958163D01*
X114059308Y-111948238D01*
X114059312Y-111948237D01*
X114066166Y-111947526D01*
X114072702Y-111945345D01*
X114072704Y-111945345D01*
X114204806Y-111901272D01*
X114233946Y-111891550D01*
X114384348Y-111798478D01*
X114509305Y-111673303D01*
X114602115Y-111522738D01*
X114619000Y-111471832D01*
X114659432Y-111413472D01*
X114724996Y-111386236D01*
X114738593Y-111385500D01*
X119081470Y-111385500D01*
X119149591Y-111405502D01*
X119196084Y-111459158D01*
X119200994Y-111471624D01*
X119218450Y-111523946D01*
X119311522Y-111674348D01*
X119436697Y-111799305D01*
X119442927Y-111803145D01*
X119442928Y-111803146D01*
X119580288Y-111887816D01*
X119587262Y-111892115D01*
X119667005Y-111918564D01*
X119748611Y-111945632D01*
X119748613Y-111945632D01*
X119755139Y-111947797D01*
X119761975Y-111948497D01*
X119761978Y-111948498D01*
X119805031Y-111952909D01*
X119859600Y-111958500D01*
X120610400Y-111958500D01*
X120613646Y-111958163D01*
X120613650Y-111958163D01*
X120709308Y-111948238D01*
X120709312Y-111948237D01*
X120716166Y-111947526D01*
X120722702Y-111945345D01*
X120722704Y-111945345D01*
X120854806Y-111901272D01*
X120883946Y-111891550D01*
X121034348Y-111798478D01*
X121159305Y-111673303D01*
X121162102Y-111668765D01*
X121219353Y-111628176D01*
X121290276Y-111624946D01*
X121351687Y-111660572D01*
X121359062Y-111669068D01*
X121367098Y-111679207D01*
X121481829Y-111793739D01*
X121493240Y-111802751D01*
X121631243Y-111887816D01*
X121644424Y-111893963D01*
X121798710Y-111945138D01*
X121812086Y-111948005D01*
X121906438Y-111957672D01*
X121912854Y-111958000D01*
X122012885Y-111958000D01*
X122028124Y-111953525D01*
X122029329Y-111952135D01*
X122031000Y-111944452D01*
X122031000Y-111939884D01*
X122539000Y-111939884D01*
X122543475Y-111955123D01*
X122544865Y-111956328D01*
X122552548Y-111957999D01*
X122657095Y-111957999D01*
X122663614Y-111957662D01*
X122759206Y-111947743D01*
X122772600Y-111944851D01*
X122926784Y-111893412D01*
X122939962Y-111887239D01*
X123077807Y-111801937D01*
X123089208Y-111792901D01*
X123203739Y-111678171D01*
X123212751Y-111666760D01*
X123297816Y-111528757D01*
X123303963Y-111515576D01*
X123355138Y-111361290D01*
X123358005Y-111347914D01*
X123367672Y-111253562D01*
X123368000Y-111247146D01*
X123368000Y-111022115D01*
X123363525Y-111006876D01*
X123362135Y-111005671D01*
X123354452Y-111004000D01*
X122557115Y-111004000D01*
X122541876Y-111008475D01*
X122540671Y-111009865D01*
X122539000Y-111017548D01*
X122539000Y-111939884D01*
X122031000Y-111939884D01*
X122031000Y-110622000D01*
X122051002Y-110553879D01*
X122104658Y-110507386D01*
X122157000Y-110496000D01*
X123349884Y-110496000D01*
X123365123Y-110491525D01*
X123366328Y-110490135D01*
X123367999Y-110482452D01*
X123367999Y-110252905D01*
X123367662Y-110246386D01*
X123357743Y-110150794D01*
X123354851Y-110137400D01*
X123303412Y-109983216D01*
X123297239Y-109970038D01*
X123211937Y-109832193D01*
X123202901Y-109820792D01*
X123088171Y-109706261D01*
X123076760Y-109697249D01*
X122932525Y-109608342D01*
X122933893Y-109606123D01*
X122889763Y-109567268D01*
X122870301Y-109498991D01*
X122890842Y-109431030D01*
X122934821Y-109392854D01*
X122933732Y-109391094D01*
X123077807Y-109301937D01*
X123089208Y-109292901D01*
X123203739Y-109178171D01*
X123212751Y-109166760D01*
X123297816Y-109028757D01*
X123303963Y-109015576D01*
X123355138Y-108861290D01*
X123358005Y-108847914D01*
X123367672Y-108753562D01*
X123368000Y-108747146D01*
X123368000Y-108522115D01*
X123363525Y-108506876D01*
X123362135Y-108505671D01*
X123354452Y-108504000D01*
X122157000Y-108504000D01*
X122088879Y-108483998D01*
X122042386Y-108430342D01*
X122031000Y-108378000D01*
X122031000Y-108122000D01*
X122051002Y-108053879D01*
X122104658Y-108007386D01*
X122157000Y-107996000D01*
X123349884Y-107996000D01*
X123365123Y-107991525D01*
X123366328Y-107990135D01*
X123367999Y-107982452D01*
X123367999Y-107752905D01*
X123367662Y-107746386D01*
X123357743Y-107650794D01*
X123354851Y-107637400D01*
X123303412Y-107483216D01*
X123297239Y-107470038D01*
X123211937Y-107332193D01*
X123202901Y-107320792D01*
X123088171Y-107206261D01*
X123076760Y-107197249D01*
X122932525Y-107108342D01*
X122933893Y-107106123D01*
X122889763Y-107067268D01*
X122870301Y-106998991D01*
X122890842Y-106931030D01*
X122934821Y-106892854D01*
X122933732Y-106891094D01*
X123077807Y-106801937D01*
X123089208Y-106792901D01*
X123203739Y-106678171D01*
X123212751Y-106666760D01*
X123297816Y-106528757D01*
X123303963Y-106515576D01*
X123355138Y-106361290D01*
X123358005Y-106347914D01*
X123367672Y-106253562D01*
X123368000Y-106247146D01*
X123368000Y-106022115D01*
X123363525Y-106006876D01*
X123362135Y-106005671D01*
X123354452Y-106004000D01*
X122157000Y-106004000D01*
X122088879Y-105983998D01*
X122042386Y-105930342D01*
X122031000Y-105878000D01*
X122031000Y-105622000D01*
X122051002Y-105553879D01*
X122104658Y-105507386D01*
X122157000Y-105496000D01*
X123349884Y-105496000D01*
X123365123Y-105491525D01*
X123366328Y-105490135D01*
X123367999Y-105482452D01*
X123367999Y-105252905D01*
X123367662Y-105246386D01*
X123357743Y-105150794D01*
X123354851Y-105137400D01*
X123303412Y-104983216D01*
X123297239Y-104970038D01*
X123211937Y-104832193D01*
X123202901Y-104820792D01*
X123088171Y-104706261D01*
X123076760Y-104697249D01*
X122932525Y-104608342D01*
X122933893Y-104606123D01*
X122889763Y-104567268D01*
X122870301Y-104498991D01*
X122890842Y-104431030D01*
X122934821Y-104392854D01*
X122933732Y-104391094D01*
X123077807Y-104301937D01*
X123089208Y-104292901D01*
X123203739Y-104178171D01*
X123212751Y-104166760D01*
X123297816Y-104028757D01*
X123303963Y-104015576D01*
X123355138Y-103861290D01*
X123358005Y-103847914D01*
X123367672Y-103753562D01*
X123368000Y-103747146D01*
X123368000Y-103522115D01*
X123363525Y-103506876D01*
X123362135Y-103505671D01*
X123354452Y-103504000D01*
X122157000Y-103504000D01*
X122088879Y-103483998D01*
X122042386Y-103430342D01*
X122031000Y-103378000D01*
X122031000Y-103122000D01*
X122051002Y-103053879D01*
X122104658Y-103007386D01*
X122157000Y-102996000D01*
X123349884Y-102996000D01*
X123365123Y-102991525D01*
X123366328Y-102990135D01*
X123367999Y-102982452D01*
X123367999Y-102752905D01*
X123367662Y-102746386D01*
X123357743Y-102650794D01*
X123354851Y-102637400D01*
X123303412Y-102483216D01*
X123297239Y-102470038D01*
X123211937Y-102332193D01*
X123202901Y-102320792D01*
X123088171Y-102206261D01*
X123076760Y-102197249D01*
X122932525Y-102108342D01*
X122933893Y-102106123D01*
X122889763Y-102067268D01*
X122870301Y-101998991D01*
X122890842Y-101931030D01*
X122934821Y-101892854D01*
X122933732Y-101891094D01*
X123077807Y-101801937D01*
X123089208Y-101792901D01*
X123203739Y-101678171D01*
X123212751Y-101666760D01*
X123297816Y-101528757D01*
X123303963Y-101515576D01*
X123355138Y-101361290D01*
X123358005Y-101347914D01*
X123367672Y-101253562D01*
X123368000Y-101247146D01*
X123368000Y-101022115D01*
X123363525Y-101006876D01*
X123362135Y-101005671D01*
X123354452Y-101004000D01*
X122157000Y-101004000D01*
X122088879Y-100983998D01*
X122042386Y-100930342D01*
X122031000Y-100878000D01*
X122031000Y-100622000D01*
X122051002Y-100553879D01*
X122104658Y-100507386D01*
X122157000Y-100496000D01*
X123349884Y-100496000D01*
X123365123Y-100491525D01*
X123366328Y-100490135D01*
X123367999Y-100482452D01*
X123367999Y-100252905D01*
X123367662Y-100246386D01*
X123357743Y-100150794D01*
X123354851Y-100137400D01*
X123303412Y-99983216D01*
X123297239Y-99970038D01*
X123211937Y-99832193D01*
X123202901Y-99820792D01*
X123088171Y-99706261D01*
X123076760Y-99697249D01*
X122932525Y-99608342D01*
X122933893Y-99606123D01*
X122889763Y-99567268D01*
X122870301Y-99498991D01*
X122890842Y-99431030D01*
X122934821Y-99392854D01*
X122933732Y-99391094D01*
X123077807Y-99301937D01*
X123089208Y-99292901D01*
X123203739Y-99178171D01*
X123212751Y-99166760D01*
X123297816Y-99028757D01*
X123303963Y-99015576D01*
X123355138Y-98861290D01*
X123358005Y-98847914D01*
X123367672Y-98753562D01*
X123368000Y-98747146D01*
X123368000Y-98522115D01*
X123363525Y-98506876D01*
X123362135Y-98505671D01*
X123354452Y-98504000D01*
X122157000Y-98504000D01*
X122088879Y-98483998D01*
X122042386Y-98430342D01*
X122031000Y-98378000D01*
X122031000Y-98122000D01*
X122051002Y-98053879D01*
X122104658Y-98007386D01*
X122157000Y-97996000D01*
X123349884Y-97996000D01*
X123365123Y-97991525D01*
X123366328Y-97990135D01*
X123367999Y-97982452D01*
X123367999Y-97752905D01*
X123367662Y-97746386D01*
X123357743Y-97650794D01*
X123354851Y-97637400D01*
X123303412Y-97483216D01*
X123297239Y-97470038D01*
X123211937Y-97332193D01*
X123202901Y-97320792D01*
X123088171Y-97206261D01*
X123076760Y-97197249D01*
X122932525Y-97108342D01*
X122933893Y-97106123D01*
X122889763Y-97067268D01*
X122870301Y-96998991D01*
X122890842Y-96931030D01*
X122934821Y-96892854D01*
X122933732Y-96891094D01*
X123077807Y-96801937D01*
X123089208Y-96792901D01*
X123203739Y-96678171D01*
X123212751Y-96666760D01*
X123297816Y-96528757D01*
X123303963Y-96515576D01*
X123355138Y-96361290D01*
X123358005Y-96347914D01*
X123367672Y-96253562D01*
X123368000Y-96247146D01*
X123368000Y-96022115D01*
X123363525Y-96006876D01*
X123362135Y-96005671D01*
X123354452Y-96004000D01*
X122157000Y-96004000D01*
X122088879Y-95983998D01*
X122042386Y-95930342D01*
X122031000Y-95878000D01*
X122031000Y-95622000D01*
X122051002Y-95553879D01*
X122104658Y-95507386D01*
X122157000Y-95496000D01*
X123349884Y-95496000D01*
X123365123Y-95491525D01*
X123366328Y-95490135D01*
X123367999Y-95482452D01*
X123367999Y-95252905D01*
X123367662Y-95246386D01*
X123357743Y-95150794D01*
X123354851Y-95137400D01*
X123303412Y-94983216D01*
X123297239Y-94970038D01*
X123211937Y-94832193D01*
X123202901Y-94820792D01*
X123088171Y-94706261D01*
X123076760Y-94697249D01*
X122932525Y-94608342D01*
X122933893Y-94606123D01*
X122889763Y-94567268D01*
X122870301Y-94498991D01*
X122890842Y-94431030D01*
X122934821Y-94392854D01*
X122933732Y-94391094D01*
X123077807Y-94301937D01*
X123089208Y-94292901D01*
X123203739Y-94178171D01*
X123212751Y-94166760D01*
X123297816Y-94028757D01*
X123303963Y-94015576D01*
X123355138Y-93861290D01*
X123358005Y-93847914D01*
X123367672Y-93753562D01*
X123368000Y-93747146D01*
X123368000Y-93522115D01*
X123363525Y-93506876D01*
X123362135Y-93505671D01*
X123354452Y-93504000D01*
X122157000Y-93504000D01*
X122088879Y-93483998D01*
X122042386Y-93430342D01*
X122031000Y-93378000D01*
X122031000Y-93122000D01*
X122051002Y-93053879D01*
X122104658Y-93007386D01*
X122157000Y-92996000D01*
X123349884Y-92996000D01*
X123365123Y-92991525D01*
X123366328Y-92990135D01*
X123367999Y-92982452D01*
X123367999Y-92752905D01*
X123367662Y-92746386D01*
X123357743Y-92650794D01*
X123354851Y-92637400D01*
X123303412Y-92483216D01*
X123297239Y-92470038D01*
X123211937Y-92332193D01*
X123202901Y-92320792D01*
X123088171Y-92206261D01*
X123076760Y-92197249D01*
X122932525Y-92108342D01*
X122933893Y-92106123D01*
X122889763Y-92067268D01*
X122870301Y-91998991D01*
X122890842Y-91931030D01*
X122934821Y-91892854D01*
X122933732Y-91891094D01*
X123077807Y-91801937D01*
X123089208Y-91792901D01*
X123203739Y-91678171D01*
X123212751Y-91666760D01*
X123297816Y-91528757D01*
X123303963Y-91515576D01*
X123355138Y-91361290D01*
X123358005Y-91347914D01*
X123367672Y-91253562D01*
X123368000Y-91247146D01*
X123368000Y-91022115D01*
X123363525Y-91006876D01*
X123362135Y-91005671D01*
X123354452Y-91004000D01*
X122157000Y-91004000D01*
X122088879Y-90983998D01*
X122042386Y-90930342D01*
X122031000Y-90878000D01*
X122031000Y-90622000D01*
X122051002Y-90553879D01*
X122104658Y-90507386D01*
X122157000Y-90496000D01*
X123349884Y-90496000D01*
X123365123Y-90491525D01*
X123366328Y-90490135D01*
X123367999Y-90482452D01*
X123367999Y-90252905D01*
X123367662Y-90246386D01*
X123357743Y-90150794D01*
X123354851Y-90137400D01*
X123303412Y-89983216D01*
X123297239Y-89970038D01*
X123211937Y-89832193D01*
X123202901Y-89820792D01*
X123088171Y-89706261D01*
X123076760Y-89697249D01*
X122932525Y-89608342D01*
X122933893Y-89606123D01*
X122889763Y-89567268D01*
X122870301Y-89498991D01*
X122890842Y-89431030D01*
X122934821Y-89392854D01*
X122933732Y-89391094D01*
X123077807Y-89301937D01*
X123089208Y-89292901D01*
X123203739Y-89178171D01*
X123212751Y-89166760D01*
X123297816Y-89028757D01*
X123303963Y-89015576D01*
X123355138Y-88861290D01*
X123358005Y-88847914D01*
X123367672Y-88753562D01*
X123368000Y-88747146D01*
X123368000Y-88522115D01*
X123363525Y-88506876D01*
X123362135Y-88505671D01*
X123354452Y-88504000D01*
X122157000Y-88504000D01*
X122088879Y-88483998D01*
X122042386Y-88430342D01*
X122031000Y-88378000D01*
X122031000Y-88122000D01*
X122051002Y-88053879D01*
X122104658Y-88007386D01*
X122157000Y-87996000D01*
X123349884Y-87996000D01*
X123365123Y-87991525D01*
X123366328Y-87990135D01*
X123367999Y-87982452D01*
X123367999Y-87752905D01*
X123367662Y-87746386D01*
X123357743Y-87650794D01*
X123354851Y-87637400D01*
X123303412Y-87483216D01*
X123297239Y-87470038D01*
X123211937Y-87332193D01*
X123202901Y-87320792D01*
X123088171Y-87206261D01*
X123076760Y-87197249D01*
X122932525Y-87108342D01*
X122933893Y-87106123D01*
X122889763Y-87067268D01*
X122870301Y-86998991D01*
X122890842Y-86931030D01*
X122934821Y-86892854D01*
X122933732Y-86891094D01*
X123077807Y-86801937D01*
X123089208Y-86792901D01*
X123203739Y-86678171D01*
X123212751Y-86666760D01*
X123297816Y-86528757D01*
X123303963Y-86515576D01*
X123355138Y-86361290D01*
X123358005Y-86347914D01*
X123367672Y-86253562D01*
X123368000Y-86247146D01*
X123368000Y-86022115D01*
X123363525Y-86006876D01*
X123362135Y-86005671D01*
X123354452Y-86004000D01*
X122157000Y-86004000D01*
X122088879Y-85983998D01*
X122042386Y-85930342D01*
X122031000Y-85878000D01*
X122031000Y-85622000D01*
X122051002Y-85553879D01*
X122104658Y-85507386D01*
X122157000Y-85496000D01*
X123349884Y-85496000D01*
X123365123Y-85491525D01*
X123366328Y-85490135D01*
X123367999Y-85482452D01*
X123367999Y-85252905D01*
X123367662Y-85246386D01*
X123357743Y-85150794D01*
X123354851Y-85137400D01*
X123303412Y-84983216D01*
X123297239Y-84970038D01*
X123211937Y-84832193D01*
X123202901Y-84820792D01*
X123088171Y-84706261D01*
X123076760Y-84697249D01*
X122932525Y-84608342D01*
X122933893Y-84606123D01*
X122889763Y-84567268D01*
X122870301Y-84498991D01*
X122890842Y-84431030D01*
X122934821Y-84392854D01*
X122933732Y-84391094D01*
X123077807Y-84301937D01*
X123089208Y-84292901D01*
X123203739Y-84178171D01*
X123212751Y-84166760D01*
X123297816Y-84028757D01*
X123303963Y-84015576D01*
X123355138Y-83861290D01*
X123358005Y-83847914D01*
X123367672Y-83753562D01*
X123368000Y-83747146D01*
X123368000Y-83522115D01*
X123363525Y-83506876D01*
X123362135Y-83505671D01*
X123354452Y-83504000D01*
X122157000Y-83504000D01*
X122088879Y-83483998D01*
X122042386Y-83430342D01*
X122031000Y-83378000D01*
X122031000Y-83122000D01*
X122051002Y-83053879D01*
X122104658Y-83007386D01*
X122157000Y-82996000D01*
X123349884Y-82996000D01*
X123365123Y-82991525D01*
X123366328Y-82990135D01*
X123367999Y-82982452D01*
X123367999Y-82752905D01*
X123367662Y-82746386D01*
X123357743Y-82650794D01*
X123354851Y-82637400D01*
X123303412Y-82483216D01*
X123297239Y-82470038D01*
X123211937Y-82332193D01*
X123202901Y-82320792D01*
X123088171Y-82206261D01*
X123076760Y-82197249D01*
X122932525Y-82108342D01*
X122933893Y-82106123D01*
X122889763Y-82067268D01*
X122870301Y-81998991D01*
X122890842Y-81931030D01*
X122934821Y-81892854D01*
X122933732Y-81891094D01*
X123077807Y-81801937D01*
X123089208Y-81792901D01*
X123203739Y-81678171D01*
X123212751Y-81666760D01*
X123297816Y-81528757D01*
X123303963Y-81515576D01*
X123355138Y-81361290D01*
X123358005Y-81347914D01*
X123367672Y-81253562D01*
X123368000Y-81247146D01*
X123368000Y-81022115D01*
X123363525Y-81006876D01*
X123362135Y-81005671D01*
X123354452Y-81004000D01*
X122157000Y-81004000D01*
X122088879Y-80983998D01*
X122042386Y-80930342D01*
X122031000Y-80878000D01*
X122031000Y-80622000D01*
X122051002Y-80553879D01*
X122104658Y-80507386D01*
X122157000Y-80496000D01*
X123349884Y-80496000D01*
X123365123Y-80491525D01*
X123366328Y-80490135D01*
X123367999Y-80482452D01*
X123367999Y-80252905D01*
X123367662Y-80246386D01*
X123357743Y-80150794D01*
X123354851Y-80137400D01*
X123303412Y-79983216D01*
X123297239Y-79970038D01*
X123211937Y-79832193D01*
X123202901Y-79820792D01*
X123088171Y-79706261D01*
X123076760Y-79697249D01*
X122932525Y-79608342D01*
X122933893Y-79606123D01*
X122889763Y-79567268D01*
X122870301Y-79498991D01*
X122890842Y-79431030D01*
X122934821Y-79392854D01*
X122933732Y-79391094D01*
X123077807Y-79301937D01*
X123089208Y-79292901D01*
X123203739Y-79178171D01*
X123212751Y-79166760D01*
X123297816Y-79028757D01*
X123303963Y-79015576D01*
X123355138Y-78861290D01*
X123358005Y-78847914D01*
X123367672Y-78753562D01*
X123368000Y-78747146D01*
X123368000Y-78522115D01*
X123363525Y-78506876D01*
X123362135Y-78505671D01*
X123354452Y-78504000D01*
X122157000Y-78504000D01*
X122088879Y-78483998D01*
X122042386Y-78430342D01*
X122031000Y-78378000D01*
X122031000Y-78122000D01*
X122051002Y-78053879D01*
X122104658Y-78007386D01*
X122157000Y-77996000D01*
X123349884Y-77996000D01*
X123365123Y-77991525D01*
X123366328Y-77990135D01*
X123367999Y-77982452D01*
X123367999Y-77752905D01*
X123367662Y-77746386D01*
X123357743Y-77650794D01*
X123354851Y-77637400D01*
X123303412Y-77483216D01*
X123297239Y-77470038D01*
X123211937Y-77332193D01*
X123202901Y-77320792D01*
X123088171Y-77206261D01*
X123076760Y-77197249D01*
X122932525Y-77108342D01*
X122933893Y-77106123D01*
X122889763Y-77067268D01*
X122870301Y-76998991D01*
X122890842Y-76931030D01*
X122934821Y-76892854D01*
X122933732Y-76891094D01*
X123077807Y-76801937D01*
X123089208Y-76792901D01*
X123203739Y-76678171D01*
X123212751Y-76666760D01*
X123297816Y-76528757D01*
X123303963Y-76515576D01*
X123355138Y-76361290D01*
X123358005Y-76347914D01*
X123367672Y-76253562D01*
X123368000Y-76247146D01*
X123368000Y-76022115D01*
X123363525Y-76006876D01*
X123362135Y-76005671D01*
X123354452Y-76004000D01*
X122157000Y-76004000D01*
X122088879Y-75983998D01*
X122042386Y-75930342D01*
X122031000Y-75878000D01*
X122031000Y-75622000D01*
X122051002Y-75553879D01*
X122104658Y-75507386D01*
X122157000Y-75496000D01*
X123349884Y-75496000D01*
X123365123Y-75491525D01*
X123366328Y-75490135D01*
X123367999Y-75482452D01*
X123367999Y-75252905D01*
X123367662Y-75246386D01*
X123357743Y-75150794D01*
X123354851Y-75137400D01*
X123303412Y-74983216D01*
X123297239Y-74970038D01*
X123211937Y-74832193D01*
X123202901Y-74820792D01*
X123088171Y-74706261D01*
X123076760Y-74697249D01*
X122932525Y-74608342D01*
X122933893Y-74606123D01*
X122889763Y-74567268D01*
X122870301Y-74498991D01*
X122890842Y-74431030D01*
X122934821Y-74392854D01*
X122933732Y-74391094D01*
X123077807Y-74301937D01*
X123089208Y-74292901D01*
X123203739Y-74178171D01*
X123212751Y-74166760D01*
X123297816Y-74028757D01*
X123303963Y-74015576D01*
X123355138Y-73861290D01*
X123358005Y-73847914D01*
X123367672Y-73753562D01*
X123368000Y-73747146D01*
X123368000Y-73522115D01*
X123363525Y-73506876D01*
X123362135Y-73505671D01*
X123354452Y-73504000D01*
X122157000Y-73504000D01*
X122088879Y-73483998D01*
X122042386Y-73430342D01*
X122031000Y-73378000D01*
X122031000Y-72977885D01*
X122539000Y-72977885D01*
X122543475Y-72993124D01*
X122544865Y-72994329D01*
X122552548Y-72996000D01*
X123349884Y-72996000D01*
X123365123Y-72991525D01*
X123366328Y-72990135D01*
X123367999Y-72982452D01*
X123367999Y-72752905D01*
X123367662Y-72746386D01*
X123357743Y-72650794D01*
X123354851Y-72637400D01*
X123303412Y-72483216D01*
X123297239Y-72470038D01*
X123211937Y-72332193D01*
X123202901Y-72320792D01*
X123088171Y-72206261D01*
X123076760Y-72197249D01*
X122938757Y-72112184D01*
X122925576Y-72106037D01*
X122771290Y-72054862D01*
X122757914Y-72051995D01*
X122663562Y-72042328D01*
X122657145Y-72042000D01*
X122557115Y-72042000D01*
X122541876Y-72046475D01*
X122540671Y-72047865D01*
X122539000Y-72055548D01*
X122539000Y-72977885D01*
X122031000Y-72977885D01*
X122031000Y-72060116D01*
X122026525Y-72044877D01*
X122025135Y-72043672D01*
X122017452Y-72042001D01*
X121912905Y-72042001D01*
X121906386Y-72042338D01*
X121810794Y-72052257D01*
X121797400Y-72055149D01*
X121643216Y-72106588D01*
X121630038Y-72112761D01*
X121492193Y-72198063D01*
X121480792Y-72207099D01*
X121366262Y-72321828D01*
X121359206Y-72330762D01*
X121301288Y-72371823D01*
X121230365Y-72375053D01*
X121168954Y-72339426D01*
X121162154Y-72331593D01*
X121158478Y-72325652D01*
X121033303Y-72200695D01*
X121027072Y-72196854D01*
X120888968Y-72111725D01*
X120888966Y-72111724D01*
X120882738Y-72107885D01*
X120802995Y-72081436D01*
X120721389Y-72054368D01*
X120721387Y-72054368D01*
X120714861Y-72052203D01*
X120708025Y-72051503D01*
X120708022Y-72051502D01*
X120664969Y-72047091D01*
X120610400Y-72041500D01*
X119859600Y-72041500D01*
X119856354Y-72041837D01*
X119856350Y-72041837D01*
X119760692Y-72051762D01*
X119760688Y-72051763D01*
X119753834Y-72052474D01*
X119747298Y-72054655D01*
X119747296Y-72054655D01*
X119730928Y-72060116D01*
X119586054Y-72108450D01*
X119435652Y-72201522D01*
X119310695Y-72326697D01*
X119217885Y-72477262D01*
X119215581Y-72484207D01*
X119215581Y-72484208D01*
X119201000Y-72528168D01*
X119160568Y-72586528D01*
X119095004Y-72613764D01*
X119081407Y-72614500D01*
X114738530Y-72614500D01*
X114670409Y-72594498D01*
X114623916Y-72540842D01*
X114619006Y-72528376D01*
X114603868Y-72483002D01*
X114601550Y-72476054D01*
X114508478Y-72325652D01*
X114383303Y-72200695D01*
X114377072Y-72196854D01*
X114238968Y-72111725D01*
X114238966Y-72111724D01*
X114232738Y-72107885D01*
X114152995Y-72081436D01*
X114071389Y-72054368D01*
X114071387Y-72054368D01*
X114064861Y-72052203D01*
X114058025Y-72051503D01*
X114058022Y-72051502D01*
X114014969Y-72047091D01*
X113960400Y-72041500D01*
X113159600Y-72041500D01*
X113156354Y-72041837D01*
X113156350Y-72041837D01*
X113060692Y-72051762D01*
X113060688Y-72051763D01*
X113053834Y-72052474D01*
X113047298Y-72054655D01*
X113047296Y-72054655D01*
X113030928Y-72060116D01*
X112886054Y-72108450D01*
X112735652Y-72201522D01*
X112730479Y-72206704D01*
X112649216Y-72288109D01*
X112586934Y-72322188D01*
X112516114Y-72317185D01*
X112471025Y-72288264D01*
X112388483Y-72205866D01*
X112383303Y-72200695D01*
X112377072Y-72196854D01*
X112238968Y-72111725D01*
X112238966Y-72111724D01*
X112232738Y-72107885D01*
X112152995Y-72081436D01*
X112071389Y-72054368D01*
X112071387Y-72054368D01*
X112064861Y-72052203D01*
X112058025Y-72051503D01*
X112058022Y-72051502D01*
X112014969Y-72047091D01*
X111960400Y-72041500D01*
X111159600Y-72041500D01*
X111156354Y-72041837D01*
X111156350Y-72041837D01*
X111060692Y-72051762D01*
X111060688Y-72051763D01*
X111053834Y-72052474D01*
X111047298Y-72054655D01*
X111047296Y-72054655D01*
X111030928Y-72060116D01*
X110886054Y-72108450D01*
X110735652Y-72201522D01*
X110610695Y-72326697D01*
X110517885Y-72477262D01*
X110515581Y-72484208D01*
X110515581Y-72484209D01*
X110472610Y-72613764D01*
X110462203Y-72645139D01*
X110451500Y-72749600D01*
X110451500Y-73407577D01*
X110431498Y-73475698D01*
X110414595Y-73496672D01*
X110363672Y-73547595D01*
X110301360Y-73581621D01*
X110274577Y-73584500D01*
X104194500Y-73584500D01*
X104126379Y-73564498D01*
X104079886Y-73510842D01*
X104068500Y-73458500D01*
X104068500Y-73321866D01*
X104061745Y-73259684D01*
X104010615Y-73123295D01*
X103923261Y-73006739D01*
X103806705Y-72919385D01*
X103670316Y-72868255D01*
X103608134Y-72861500D01*
X101811866Y-72861500D01*
X101749684Y-72868255D01*
X101613295Y-72919385D01*
X101496739Y-73006739D01*
X101409385Y-73123295D01*
X101406233Y-73131703D01*
X101364919Y-73241907D01*
X101322277Y-73298671D01*
X101255716Y-73323371D01*
X101186367Y-73308163D01*
X101153743Y-73282476D01*
X101103151Y-73226875D01*
X101103142Y-73226866D01*
X101099670Y-73223051D01*
X101095619Y-73219852D01*
X101095615Y-73219848D01*
X100928414Y-73087800D01*
X100928410Y-73087798D01*
X100924359Y-73084598D01*
X100728789Y-72976638D01*
X100723920Y-72974914D01*
X100723916Y-72974912D01*
X100523087Y-72903795D01*
X100523083Y-72903794D01*
X100518212Y-72902069D01*
X100513119Y-72901162D01*
X100513116Y-72901161D01*
X100303373Y-72863800D01*
X100303367Y-72863799D01*
X100298284Y-72862894D01*
X100224452Y-72861992D01*
X100080081Y-72860228D01*
X100080079Y-72860228D01*
X100074911Y-72860165D01*
X99854091Y-72893955D01*
X99641756Y-72963357D01*
X99443607Y-73066507D01*
X99439474Y-73069610D01*
X99439471Y-73069612D01*
X99269100Y-73197530D01*
X99264965Y-73200635D01*
X99225525Y-73241907D01*
X99171280Y-73298671D01*
X99110629Y-73362138D01*
X98984743Y-73546680D01*
X98890688Y-73749305D01*
X98830989Y-73964570D01*
X98807251Y-74186695D01*
X98807548Y-74191848D01*
X98807548Y-74191851D01*
X98813965Y-74303146D01*
X98820110Y-74409715D01*
X98821247Y-74414761D01*
X98821248Y-74414767D01*
X98840236Y-74499022D01*
X98869222Y-74627639D01*
X98901147Y-74706261D01*
X98948220Y-74822188D01*
X98953266Y-74834616D01*
X98978046Y-74875053D01*
X99036862Y-74971032D01*
X99069987Y-75025088D01*
X99216250Y-75193938D01*
X99388126Y-75336632D01*
X99458595Y-75377811D01*
X99461445Y-75379476D01*
X99510169Y-75431114D01*
X99523240Y-75500897D01*
X99496509Y-75566669D01*
X99456055Y-75600027D01*
X99443607Y-75606507D01*
X99439474Y-75609610D01*
X99439471Y-75609612D01*
X99422972Y-75622000D01*
X99264965Y-75740635D01*
X99110629Y-75902138D01*
X99107715Y-75906410D01*
X99107714Y-75906411D01*
X99054788Y-75983998D01*
X98984743Y-76086680D01*
X98890688Y-76289305D01*
X98830989Y-76504570D01*
X98807251Y-76726695D01*
X98807548Y-76731848D01*
X98807548Y-76731851D01*
X98816789Y-76892115D01*
X98820110Y-76949715D01*
X98821247Y-76954761D01*
X98821248Y-76954767D01*
X98840795Y-77041500D01*
X98869222Y-77167639D01*
X98918202Y-77288264D01*
X98931411Y-77320792D01*
X98953266Y-77374616D01*
X99069987Y-77565088D01*
X99216250Y-77733938D01*
X99388126Y-77876632D01*
X99458595Y-77917811D01*
X99461445Y-77919476D01*
X99510169Y-77971114D01*
X99523240Y-78040897D01*
X99496509Y-78106669D01*
X99456055Y-78140027D01*
X99443607Y-78146507D01*
X99439474Y-78149610D01*
X99439471Y-78149612D01*
X99269100Y-78277530D01*
X99264965Y-78280635D01*
X99261393Y-78284373D01*
X99121902Y-78430342D01*
X99110629Y-78442138D01*
X98984743Y-78626680D01*
X98969386Y-78659765D01*
X98925847Y-78753562D01*
X98890688Y-78829305D01*
X98830989Y-79044570D01*
X98807251Y-79266695D01*
X98807548Y-79271848D01*
X98807548Y-79271851D01*
X98814525Y-79392854D01*
X98820110Y-79489715D01*
X98821247Y-79494761D01*
X98821248Y-79494767D01*
X98837593Y-79567294D01*
X98869222Y-79707639D01*
X98953266Y-79914616D01*
X98978321Y-79955502D01*
X99022851Y-80028168D01*
X99069987Y-80105088D01*
X99216250Y-80273938D01*
X99388126Y-80416632D01*
X99458595Y-80457811D01*
X99461445Y-80459476D01*
X99510169Y-80511114D01*
X99523240Y-80580897D01*
X99496509Y-80646669D01*
X99456055Y-80680027D01*
X99443607Y-80686507D01*
X99439474Y-80689610D01*
X99439471Y-80689612D01*
X99269100Y-80817530D01*
X99264965Y-80820635D01*
X99110629Y-80982138D01*
X99107715Y-80986410D01*
X99107714Y-80986411D01*
X99079568Y-81027672D01*
X98984743Y-81166680D01*
X98969386Y-81199765D01*
X98897393Y-81354861D01*
X98890688Y-81369305D01*
X98830989Y-81584570D01*
X98807251Y-81806695D01*
X98807548Y-81811848D01*
X98807548Y-81811851D01*
X98818340Y-81999022D01*
X98820110Y-82029715D01*
X98821247Y-82034761D01*
X98821248Y-82034767D01*
X98837854Y-82108450D01*
X98869222Y-82247639D01*
X98953266Y-82454616D01*
X98970661Y-82483002D01*
X99061521Y-82631272D01*
X99069987Y-82645088D01*
X99216250Y-82813938D01*
X99388126Y-82956632D01*
X99455497Y-82996000D01*
X99461955Y-82999774D01*
X99510679Y-83051412D01*
X99523750Y-83121195D01*
X99497019Y-83186967D01*
X99456562Y-83220327D01*
X99448457Y-83224546D01*
X99439738Y-83230036D01*
X99269433Y-83357905D01*
X99261726Y-83364748D01*
X99114590Y-83518717D01*
X99108104Y-83526727D01*
X98988098Y-83702649D01*
X98983000Y-83711623D01*
X98893338Y-83904783D01*
X98889775Y-83914470D01*
X98834389Y-84114183D01*
X98835912Y-84122607D01*
X98848292Y-84126000D01*
X103985078Y-84126000D01*
X104053199Y-84146002D01*
X104074173Y-84162905D01*
X107250693Y-87339426D01*
X110414595Y-90503328D01*
X110448621Y-90565640D01*
X110451500Y-90592423D01*
X110451500Y-91250400D01*
X110451837Y-91253646D01*
X110451837Y-91253650D01*
X110461618Y-91347914D01*
X110462474Y-91356166D01*
X110464655Y-91362702D01*
X110464655Y-91362704D01*
X110472506Y-91386236D01*
X110518450Y-91523946D01*
X110611522Y-91674348D01*
X110736697Y-91799305D01*
X110742927Y-91803145D01*
X110742928Y-91803146D01*
X110887262Y-91892115D01*
X110885730Y-91894601D01*
X110929030Y-91932706D01*
X110948509Y-92000978D01*
X110927986Y-92068943D01*
X110884807Y-92106436D01*
X110886054Y-92108450D01*
X110735652Y-92201522D01*
X110610695Y-92326697D01*
X110517885Y-92477262D01*
X110515581Y-92484208D01*
X110515581Y-92484209D01*
X110472610Y-92613764D01*
X110462203Y-92645139D01*
X110451500Y-92749600D01*
X110451500Y-93407578D01*
X110431498Y-93475699D01*
X110414595Y-93496673D01*
X107503672Y-96407595D01*
X107441360Y-96441621D01*
X107414577Y-96444500D01*
X104194500Y-96444500D01*
X104126379Y-96424498D01*
X104079886Y-96370842D01*
X104068500Y-96318500D01*
X104068500Y-96181866D01*
X104061745Y-96119684D01*
X104010615Y-95983295D01*
X103923261Y-95866739D01*
X103806705Y-95779385D01*
X103670316Y-95728255D01*
X103608134Y-95721500D01*
X101811866Y-95721500D01*
X101749684Y-95728255D01*
X101613295Y-95779385D01*
X101496739Y-95866739D01*
X101409385Y-95983295D01*
X101406233Y-95991703D01*
X101364919Y-96101907D01*
X101322277Y-96158671D01*
X101255716Y-96183371D01*
X101186367Y-96168163D01*
X101153743Y-96142476D01*
X101103151Y-96086875D01*
X101103142Y-96086866D01*
X101099670Y-96083051D01*
X101095619Y-96079852D01*
X101095615Y-96079848D01*
X100928414Y-95947800D01*
X100928410Y-95947798D01*
X100924359Y-95944598D01*
X100728789Y-95836638D01*
X100723920Y-95834914D01*
X100723916Y-95834912D01*
X100523087Y-95763795D01*
X100523083Y-95763794D01*
X100518212Y-95762069D01*
X100513119Y-95761162D01*
X100513116Y-95761161D01*
X100303373Y-95723800D01*
X100303367Y-95723799D01*
X100298284Y-95722894D01*
X100224452Y-95721992D01*
X100080081Y-95720228D01*
X100080079Y-95720228D01*
X100074911Y-95720165D01*
X99854091Y-95753955D01*
X99641756Y-95823357D01*
X99443607Y-95926507D01*
X99439474Y-95929610D01*
X99439471Y-95929612D01*
X99269100Y-96057530D01*
X99264965Y-96060635D01*
X99225525Y-96101907D01*
X99171280Y-96158671D01*
X99110629Y-96222138D01*
X98984743Y-96406680D01*
X98890688Y-96609305D01*
X98830989Y-96824570D01*
X98807251Y-97046695D01*
X98807548Y-97051848D01*
X98807548Y-97051851D01*
X98816451Y-97206261D01*
X98820110Y-97269715D01*
X98821247Y-97274761D01*
X98821248Y-97274767D01*
X98834190Y-97332193D01*
X98869222Y-97487639D01*
X98953266Y-97694616D01*
X99069987Y-97885088D01*
X99216250Y-98053938D01*
X99388126Y-98196632D01*
X99458595Y-98237811D01*
X99461445Y-98239476D01*
X99510169Y-98291114D01*
X99523240Y-98360897D01*
X99496509Y-98426669D01*
X99456055Y-98460027D01*
X99443607Y-98466507D01*
X99439474Y-98469610D01*
X99439471Y-98469612D01*
X99269100Y-98597530D01*
X99264965Y-98600635D01*
X99110629Y-98762138D01*
X99107715Y-98766410D01*
X99107714Y-98766411D01*
X99088044Y-98795246D01*
X98984743Y-98946680D01*
X98946644Y-99028757D01*
X98900496Y-99128176D01*
X98890688Y-99149305D01*
X98830989Y-99364570D01*
X98807251Y-99586695D01*
X98807548Y-99591848D01*
X98807548Y-99591851D01*
X98814193Y-99707099D01*
X98820110Y-99809715D01*
X98821247Y-99814761D01*
X98821248Y-99814767D01*
X98834107Y-99871823D01*
X98869222Y-100027639D01*
X98953266Y-100234616D01*
X99069987Y-100425088D01*
X99216250Y-100593938D01*
X99388126Y-100736632D01*
X99458595Y-100777811D01*
X99461445Y-100779476D01*
X99510169Y-100831114D01*
X99523240Y-100900897D01*
X99496509Y-100966669D01*
X99456055Y-101000027D01*
X99443607Y-101006507D01*
X99439474Y-101009610D01*
X99439471Y-101009612D01*
X99422819Y-101022115D01*
X99264965Y-101140635D01*
X99110629Y-101302138D01*
X98984743Y-101486680D01*
X98967188Y-101524500D01*
X98893701Y-101682815D01*
X98890688Y-101689305D01*
X98830989Y-101904570D01*
X98807251Y-102126695D01*
X98807548Y-102131848D01*
X98807548Y-102131851D01*
X98811864Y-102206704D01*
X98820110Y-102349715D01*
X98821247Y-102354761D01*
X98821248Y-102354767D01*
X98845304Y-102461508D01*
X98869222Y-102567639D01*
X98953266Y-102774616D01*
X99069987Y-102965088D01*
X99216250Y-103133938D01*
X99388126Y-103276632D01*
X99458595Y-103317811D01*
X99461445Y-103319476D01*
X99510169Y-103371114D01*
X99523240Y-103440897D01*
X99496509Y-103506669D01*
X99456055Y-103540027D01*
X99443607Y-103546507D01*
X99439474Y-103549610D01*
X99439471Y-103549612D01*
X99421247Y-103563295D01*
X99264965Y-103680635D01*
X99110629Y-103842138D01*
X98984743Y-104026680D01*
X98969386Y-104059765D01*
X98913943Y-104179207D01*
X98890688Y-104229305D01*
X98830989Y-104444570D01*
X98807251Y-104666695D01*
X96576260Y-104666695D01*
X96574482Y-86886695D01*
X98807251Y-86886695D01*
X98807548Y-86891848D01*
X98807548Y-86891851D01*
X98817663Y-87067268D01*
X98820110Y-87109715D01*
X98821247Y-87114761D01*
X98821248Y-87114767D01*
X98840800Y-87201522D01*
X98869222Y-87327639D01*
X98953266Y-87534616D01*
X99001768Y-87613764D01*
X99067291Y-87720688D01*
X99069987Y-87725088D01*
X99216250Y-87893938D01*
X99388126Y-88036632D01*
X99581000Y-88149338D01*
X99789692Y-88229030D01*
X99794760Y-88230061D01*
X99794763Y-88230062D01*
X99902017Y-88251883D01*
X100008597Y-88273567D01*
X100013772Y-88273757D01*
X100013774Y-88273757D01*
X100226673Y-88281564D01*
X100226677Y-88281564D01*
X100231837Y-88281753D01*
X100236957Y-88281097D01*
X100236959Y-88281097D01*
X100448288Y-88254025D01*
X100448289Y-88254025D01*
X100453416Y-88253368D01*
X100458366Y-88251883D01*
X100662429Y-88190661D01*
X100662434Y-88190659D01*
X100667384Y-88189174D01*
X100867994Y-88090896D01*
X101049860Y-87961173D01*
X101208096Y-87803489D01*
X101249129Y-87746386D01*
X101338453Y-87622077D01*
X101339776Y-87623028D01*
X101386645Y-87579857D01*
X101456580Y-87567625D01*
X101522026Y-87595144D01*
X101549875Y-87626994D01*
X101609987Y-87725088D01*
X101756250Y-87893938D01*
X101928126Y-88036632D01*
X102121000Y-88149338D01*
X102329692Y-88229030D01*
X102334760Y-88230061D01*
X102334763Y-88230062D01*
X102442017Y-88251883D01*
X102548597Y-88273567D01*
X102553772Y-88273757D01*
X102553774Y-88273757D01*
X102766673Y-88281564D01*
X102766677Y-88281564D01*
X102771837Y-88281753D01*
X102776957Y-88281097D01*
X102776959Y-88281097D01*
X102988288Y-88254025D01*
X102988289Y-88254025D01*
X102993416Y-88253368D01*
X102998366Y-88251883D01*
X103202429Y-88190661D01*
X103202434Y-88190659D01*
X103207384Y-88189174D01*
X103407994Y-88090896D01*
X103589860Y-87961173D01*
X103748096Y-87803489D01*
X103789129Y-87746386D01*
X103875435Y-87626277D01*
X103878453Y-87622077D01*
X103892084Y-87594498D01*
X103975136Y-87426453D01*
X103975137Y-87426451D01*
X103977430Y-87421811D01*
X104042370Y-87208069D01*
X104071529Y-86986590D01*
X104071611Y-86983240D01*
X104073074Y-86923365D01*
X104073074Y-86923361D01*
X104073156Y-86920000D01*
X104054852Y-86697361D01*
X104000431Y-86480702D01*
X103911354Y-86275840D01*
X103790014Y-86088277D01*
X103639670Y-85923051D01*
X103635619Y-85919852D01*
X103635615Y-85919848D01*
X103468414Y-85787800D01*
X103468410Y-85787798D01*
X103464359Y-85784598D01*
X103422569Y-85761529D01*
X103372598Y-85711097D01*
X103357826Y-85641654D01*
X103382942Y-85575248D01*
X103410294Y-85548641D01*
X103585328Y-85423792D01*
X103593200Y-85417139D01*
X103744052Y-85266812D01*
X103750730Y-85258965D01*
X103875003Y-85086020D01*
X103880313Y-85077183D01*
X103974670Y-84886267D01*
X103978469Y-84876672D01*
X104040377Y-84672910D01*
X104042555Y-84662837D01*
X104043986Y-84651962D01*
X104041775Y-84637778D01*
X104028617Y-84634000D01*
X98853225Y-84634000D01*
X98839694Y-84637973D01*
X98838257Y-84647966D01*
X98868565Y-84782446D01*
X98871645Y-84792275D01*
X98951770Y-84989603D01*
X98956413Y-84998794D01*
X99067694Y-85180388D01*
X99073777Y-85188699D01*
X99213213Y-85349667D01*
X99220580Y-85356883D01*
X99384434Y-85492916D01*
X99392881Y-85498831D01*
X99461969Y-85539203D01*
X99510693Y-85590842D01*
X99523764Y-85660625D01*
X99497033Y-85726396D01*
X99456584Y-85759752D01*
X99443607Y-85766507D01*
X99439474Y-85769610D01*
X99439471Y-85769612D01*
X99415247Y-85787800D01*
X99264965Y-85900635D01*
X99261393Y-85904373D01*
X99137708Y-86033802D01*
X99110629Y-86062138D01*
X98984743Y-86246680D01*
X98969003Y-86280590D01*
X98911021Y-86405502D01*
X98890688Y-86449305D01*
X98830989Y-86664570D01*
X98807251Y-86886695D01*
X96574482Y-86886695D01*
X96573313Y-75197240D01*
X96572998Y-72048844D01*
X96574498Y-72029446D01*
X96576803Y-72014644D01*
X96576803Y-72014642D01*
X96578184Y-72005773D01*
X96577005Y-71996753D01*
X96576733Y-71966305D01*
X96577774Y-71957072D01*
X96583728Y-71904230D01*
X96590007Y-71876724D01*
X96616978Y-71799645D01*
X96629220Y-71774224D01*
X96672674Y-71705068D01*
X96690266Y-71683009D01*
X96748009Y-71625266D01*
X96770068Y-71607674D01*
X96839224Y-71564220D01*
X96864637Y-71551981D01*
X96941730Y-71525005D01*
X96969231Y-71518728D01*
X97006968Y-71514476D01*
X97024723Y-71512475D01*
X97040364Y-71512707D01*
X97040376Y-71511693D01*
X97049346Y-71511802D01*
X97058221Y-71513184D01*
X97089812Y-71509053D01*
X97106133Y-71507989D01*
X118817798Y-71505859D01*
X123525544Y-71505397D01*
X123544942Y-71506897D01*
G37*
%TD.AperFunction*%
%TD*%
M02*
