%TF.GenerationSoftware,KiCad,Pcbnew,6.0.4-6f826c9f35~116~ubuntu20.04.1*%
%TF.CreationDate,2022-04-18T14:08:09+07:00*%
%TF.ProjectId,pmod-thin-16-leds,706d6f64-2d74-4686-996e-2d31362d6c65,1.0*%
%TF.SameCoordinates,Original*%
%TF.FileFunction,OtherDrawing,Comment*%
%FSLAX46Y46*%
G04 Gerber Fmt 4.6, Leading zero omitted, Abs format (unit mm)*
G04 Created by KiCad (PCBNEW 6.0.4-6f826c9f35~116~ubuntu20.04.1) date 2022-04-18 14:08:09*
%MOMM*%
%LPD*%
G01*
G04 APERTURE LIST*
%ADD10C,0.150000*%
%ADD11C,0.025400*%
G04 APERTURE END LIST*
D10*
X126715714Y-96142857D02*
X127382380Y-96142857D01*
X126334761Y-96380952D02*
X127049047Y-96619047D01*
X127049047Y-96000000D01*
X126477619Y-95666666D02*
X126430000Y-95619047D01*
X126382380Y-95523809D01*
X126382380Y-95285714D01*
X126430000Y-95190476D01*
X126477619Y-95142857D01*
X126572857Y-95095238D01*
X126668095Y-95095238D01*
X126810952Y-95142857D01*
X127382380Y-95714285D01*
X127382380Y-95095238D01*
X127287142Y-94666666D02*
X127334761Y-94619047D01*
X127382380Y-94666666D01*
X127334761Y-94714285D01*
X127287142Y-94666666D01*
X127382380Y-94666666D01*
X126382380Y-94000000D02*
X126382380Y-93904761D01*
X126430000Y-93809523D01*
X126477619Y-93761904D01*
X126572857Y-93714285D01*
X126763333Y-93666666D01*
X127001428Y-93666666D01*
X127191904Y-93714285D01*
X127287142Y-93761904D01*
X127334761Y-93809523D01*
X127382380Y-93904761D01*
X127382380Y-94000000D01*
X127334761Y-94095238D01*
X127287142Y-94142857D01*
X127191904Y-94190476D01*
X127001428Y-94238095D01*
X126763333Y-94238095D01*
X126572857Y-94190476D01*
X126477619Y-94142857D01*
X126430000Y-94095238D01*
X126382380Y-94000000D01*
X126382380Y-93047619D02*
X126382380Y-92952380D01*
X126430000Y-92857142D01*
X126477619Y-92809523D01*
X126572857Y-92761904D01*
X126763333Y-92714285D01*
X127001428Y-92714285D01*
X127191904Y-92761904D01*
X127287142Y-92809523D01*
X127334761Y-92857142D01*
X127382380Y-92952380D01*
X127382380Y-93047619D01*
X127334761Y-93142857D01*
X127287142Y-93190476D01*
X127191904Y-93238095D01*
X127001428Y-93285714D01*
X126763333Y-93285714D01*
X126572857Y-93238095D01*
X126477619Y-93190476D01*
X126430000Y-93142857D01*
X126382380Y-93047619D01*
X126382380Y-92095238D02*
X126382380Y-92000000D01*
X126430000Y-91904761D01*
X126477619Y-91857142D01*
X126572857Y-91809523D01*
X126763333Y-91761904D01*
X127001428Y-91761904D01*
X127191904Y-91809523D01*
X127287142Y-91857142D01*
X127334761Y-91904761D01*
X127382380Y-92000000D01*
X127382380Y-92095238D01*
X127334761Y-92190476D01*
X127287142Y-92238095D01*
X127191904Y-92285714D01*
X127001428Y-92333333D01*
X126763333Y-92333333D01*
X126572857Y-92285714D01*
X126477619Y-92238095D01*
X126430000Y-92190476D01*
X126382380Y-92095238D01*
X126382380Y-91142857D02*
X126382380Y-91047619D01*
X126430000Y-90952380D01*
X126477619Y-90904761D01*
X126572857Y-90857142D01*
X126763333Y-90809523D01*
X127001428Y-90809523D01*
X127191904Y-90857142D01*
X127287142Y-90904761D01*
X127334761Y-90952380D01*
X127382380Y-91047619D01*
X127382380Y-91142857D01*
X127334761Y-91238095D01*
X127287142Y-91285714D01*
X127191904Y-91333333D01*
X127001428Y-91380952D01*
X126763333Y-91380952D01*
X126572857Y-91333333D01*
X126477619Y-91285714D01*
X126430000Y-91238095D01*
X126382380Y-91142857D01*
X127382380Y-89619047D02*
X126715714Y-89619047D01*
X126810952Y-89619047D02*
X126763333Y-89571428D01*
X126715714Y-89476190D01*
X126715714Y-89333333D01*
X126763333Y-89238095D01*
X126858571Y-89190476D01*
X127382380Y-89190476D01*
X126858571Y-89190476D02*
X126763333Y-89142857D01*
X126715714Y-89047619D01*
X126715714Y-88904761D01*
X126763333Y-88809523D01*
X126858571Y-88761904D01*
X127382380Y-88761904D01*
X127382380Y-88285714D02*
X126715714Y-88285714D01*
X126810952Y-88285714D02*
X126763333Y-88238095D01*
X126715714Y-88142857D01*
X126715714Y-88000000D01*
X126763333Y-87904761D01*
X126858571Y-87857142D01*
X127382380Y-87857142D01*
X126858571Y-87857142D02*
X126763333Y-87809523D01*
X126715714Y-87714285D01*
X126715714Y-87571428D01*
X126763333Y-87476190D01*
X126858571Y-87428571D01*
X127382380Y-87428571D01*
D11*
X125070000Y-71000000D02*
X128666420Y-71000000D01*
X125070000Y-113000000D02*
X128666420Y-113000000D01*
X128080000Y-71000000D02*
X128080000Y-113000000D01*
X128080000Y-71000000D02*
X128080000Y-113000000D01*
X128080000Y-71000000D02*
X127493579Y-72126504D01*
X128080000Y-71000000D02*
X128666421Y-72126504D01*
X128080000Y-113000000D02*
X128666421Y-111873496D01*
X128080000Y-113000000D02*
X127493579Y-111873496D01*
D10*
X105700952Y-114537619D02*
X105748571Y-114490000D01*
X105843809Y-114442380D01*
X106081904Y-114442380D01*
X106177142Y-114490000D01*
X106224761Y-114537619D01*
X106272380Y-114632857D01*
X106272380Y-114728095D01*
X106224761Y-114870952D01*
X105653333Y-115442380D01*
X106272380Y-115442380D01*
X106843809Y-114870952D02*
X106748571Y-114823333D01*
X106700952Y-114775714D01*
X106653333Y-114680476D01*
X106653333Y-114632857D01*
X106700952Y-114537619D01*
X106748571Y-114490000D01*
X106843809Y-114442380D01*
X107034285Y-114442380D01*
X107129523Y-114490000D01*
X107177142Y-114537619D01*
X107224761Y-114632857D01*
X107224761Y-114680476D01*
X107177142Y-114775714D01*
X107129523Y-114823333D01*
X107034285Y-114870952D01*
X106843809Y-114870952D01*
X106748571Y-114918571D01*
X106700952Y-114966190D01*
X106653333Y-115061428D01*
X106653333Y-115251904D01*
X106700952Y-115347142D01*
X106748571Y-115394761D01*
X106843809Y-115442380D01*
X107034285Y-115442380D01*
X107129523Y-115394761D01*
X107177142Y-115347142D01*
X107224761Y-115251904D01*
X107224761Y-115061428D01*
X107177142Y-114966190D01*
X107129523Y-114918571D01*
X107034285Y-114870952D01*
X107653333Y-115347142D02*
X107700952Y-115394761D01*
X107653333Y-115442380D01*
X107605714Y-115394761D01*
X107653333Y-115347142D01*
X107653333Y-115442380D01*
X108605714Y-114442380D02*
X108129523Y-114442380D01*
X108081904Y-114918571D01*
X108129523Y-114870952D01*
X108224761Y-114823333D01*
X108462857Y-114823333D01*
X108558095Y-114870952D01*
X108605714Y-114918571D01*
X108653333Y-115013809D01*
X108653333Y-115251904D01*
X108605714Y-115347142D01*
X108558095Y-115394761D01*
X108462857Y-115442380D01*
X108224761Y-115442380D01*
X108129523Y-115394761D01*
X108081904Y-115347142D01*
X109272380Y-114442380D02*
X109367619Y-114442380D01*
X109462857Y-114490000D01*
X109510476Y-114537619D01*
X109558095Y-114632857D01*
X109605714Y-114823333D01*
X109605714Y-115061428D01*
X109558095Y-115251904D01*
X109510476Y-115347142D01*
X109462857Y-115394761D01*
X109367619Y-115442380D01*
X109272380Y-115442380D01*
X109177142Y-115394761D01*
X109129523Y-115347142D01*
X109081904Y-115251904D01*
X109034285Y-115061428D01*
X109034285Y-114823333D01*
X109081904Y-114632857D01*
X109129523Y-114537619D01*
X109177142Y-114490000D01*
X109272380Y-114442380D01*
X110224761Y-114442380D02*
X110320000Y-114442380D01*
X110415238Y-114490000D01*
X110462857Y-114537619D01*
X110510476Y-114632857D01*
X110558095Y-114823333D01*
X110558095Y-115061428D01*
X110510476Y-115251904D01*
X110462857Y-115347142D01*
X110415238Y-115394761D01*
X110320000Y-115442380D01*
X110224761Y-115442380D01*
X110129523Y-115394761D01*
X110081904Y-115347142D01*
X110034285Y-115251904D01*
X109986666Y-115061428D01*
X109986666Y-114823333D01*
X110034285Y-114632857D01*
X110081904Y-114537619D01*
X110129523Y-114490000D01*
X110224761Y-114442380D01*
X111177142Y-114442380D02*
X111272380Y-114442380D01*
X111367619Y-114490000D01*
X111415238Y-114537619D01*
X111462857Y-114632857D01*
X111510476Y-114823333D01*
X111510476Y-115061428D01*
X111462857Y-115251904D01*
X111415238Y-115347142D01*
X111367619Y-115394761D01*
X111272380Y-115442380D01*
X111177142Y-115442380D01*
X111081904Y-115394761D01*
X111034285Y-115347142D01*
X110986666Y-115251904D01*
X110939047Y-115061428D01*
X110939047Y-114823333D01*
X110986666Y-114632857D01*
X111034285Y-114537619D01*
X111081904Y-114490000D01*
X111177142Y-114442380D01*
X112700952Y-115442380D02*
X112700952Y-114775714D01*
X112700952Y-114870952D02*
X112748571Y-114823333D01*
X112843809Y-114775714D01*
X112986666Y-114775714D01*
X113081904Y-114823333D01*
X113129523Y-114918571D01*
X113129523Y-115442380D01*
X113129523Y-114918571D02*
X113177142Y-114823333D01*
X113272380Y-114775714D01*
X113415238Y-114775714D01*
X113510476Y-114823333D01*
X113558095Y-114918571D01*
X113558095Y-115442380D01*
X114034285Y-115442380D02*
X114034285Y-114775714D01*
X114034285Y-114870952D02*
X114081904Y-114823333D01*
X114177142Y-114775714D01*
X114320000Y-114775714D01*
X114415238Y-114823333D01*
X114462857Y-114918571D01*
X114462857Y-115442380D01*
X114462857Y-114918571D02*
X114510476Y-114823333D01*
X114605714Y-114775714D01*
X114748571Y-114775714D01*
X114843809Y-114823333D01*
X114891428Y-114918571D01*
X114891428Y-115442380D01*
D11*
X96070000Y-113500000D02*
X96070000Y-116726420D01*
X124570000Y-113500000D02*
X124570000Y-116726420D01*
X96070000Y-116140000D02*
X124570000Y-116140000D01*
X96070000Y-116140000D02*
X124570000Y-116140000D01*
X96070000Y-116140000D02*
X97196504Y-116726421D01*
X96070000Y-116140000D02*
X97196504Y-115553579D01*
X124570000Y-116140000D02*
X123443496Y-115553579D01*
X124570000Y-116140000D02*
X123443496Y-116726421D01*
M02*
