%TF.GenerationSoftware,KiCad,Pcbnew,6.0.4-6f826c9f35~116~ubuntu20.04.1*%
%TF.CreationDate,2022-04-18T14:08:09+07:00*%
%TF.ProjectId,pmod-thin-16-leds,706d6f64-2d74-4686-996e-2d31362d6c65,1.0*%
%TF.SameCoordinates,Original*%
%TF.FileFunction,Legend,Top*%
%TF.FilePolarity,Positive*%
%FSLAX46Y46*%
G04 Gerber Fmt 4.6, Leading zero omitted, Abs format (unit mm)*
G04 Created by KiCad (PCBNEW 6.0.4-6f826c9f35~116~ubuntu20.04.1) date 2022-04-18 14:08:09*
%MOMM*%
%LPD*%
G01*
G04 APERTURE LIST*
%ADD10C,0.200000*%
%ADD11C,0.300000*%
%ADD12C,0.150000*%
%ADD13C,0.120000*%
G04 APERTURE END LIST*
D10*
X106721904Y-83850000D02*
X106617142Y-83797619D01*
X106460000Y-83797619D01*
X106302857Y-83850000D01*
X106198095Y-83954761D01*
X106145714Y-84059523D01*
X106093333Y-84269047D01*
X106093333Y-84426190D01*
X106145714Y-84635714D01*
X106198095Y-84740476D01*
X106302857Y-84845238D01*
X106460000Y-84897619D01*
X106564761Y-84897619D01*
X106721904Y-84845238D01*
X106774285Y-84792857D01*
X106774285Y-84426190D01*
X106564761Y-84426190D01*
X107245714Y-84897619D02*
X107245714Y-83797619D01*
X107874285Y-84897619D01*
X107874285Y-83797619D01*
X108398095Y-84897619D02*
X108398095Y-83797619D01*
X108660000Y-83797619D01*
X108817142Y-83850000D01*
X108921904Y-83954761D01*
X108974285Y-84059523D01*
X109026666Y-84269047D01*
X109026666Y-84426190D01*
X108974285Y-84635714D01*
X108921904Y-84740476D01*
X108817142Y-84845238D01*
X108660000Y-84897619D01*
X108398095Y-84897619D01*
X106198095Y-86337619D02*
X106879047Y-86337619D01*
X106512380Y-86756666D01*
X106669523Y-86756666D01*
X106774285Y-86809047D01*
X106826666Y-86861428D01*
X106879047Y-86966190D01*
X106879047Y-87228095D01*
X106826666Y-87332857D01*
X106774285Y-87385238D01*
X106669523Y-87437619D01*
X106355238Y-87437619D01*
X106250476Y-87385238D01*
X106198095Y-87332857D01*
X107193333Y-86337619D02*
X107560000Y-87437619D01*
X107926666Y-86337619D01*
X108188571Y-86337619D02*
X108869523Y-86337619D01*
X108502857Y-86756666D01*
X108660000Y-86756666D01*
X108764761Y-86809047D01*
X108817142Y-86861428D01*
X108869523Y-86966190D01*
X108869523Y-87228095D01*
X108817142Y-87332857D01*
X108764761Y-87385238D01*
X108660000Y-87437619D01*
X108345714Y-87437619D01*
X108240952Y-87385238D01*
X108188571Y-87332857D01*
X105412380Y-78717619D02*
X105517142Y-78717619D01*
X105621904Y-78770000D01*
X105674285Y-78822380D01*
X105726666Y-78927142D01*
X105779047Y-79136666D01*
X105779047Y-79398571D01*
X105726666Y-79608095D01*
X105674285Y-79712857D01*
X105621904Y-79765238D01*
X105517142Y-79817619D01*
X105412380Y-79817619D01*
X105307619Y-79765238D01*
X105255238Y-79712857D01*
X105202857Y-79608095D01*
X105150476Y-79398571D01*
X105150476Y-79136666D01*
X105202857Y-78927142D01*
X105255238Y-78822380D01*
X105307619Y-78770000D01*
X105412380Y-78717619D01*
X106721904Y-78717619D02*
X106512380Y-78717619D01*
X106407619Y-78770000D01*
X106355238Y-78822380D01*
X106250476Y-78979523D01*
X106198095Y-79189047D01*
X106198095Y-79608095D01*
X106250476Y-79712857D01*
X106302857Y-79765238D01*
X106407619Y-79817619D01*
X106617142Y-79817619D01*
X106721904Y-79765238D01*
X106774285Y-79712857D01*
X106826666Y-79608095D01*
X106826666Y-79346190D01*
X106774285Y-79241428D01*
X106721904Y-79189047D01*
X106617142Y-79136666D01*
X106407619Y-79136666D01*
X106302857Y-79189047D01*
X106250476Y-79241428D01*
X106198095Y-79346190D01*
X107560000Y-80184285D02*
X107560000Y-78612857D01*
X108555238Y-78717619D02*
X108660000Y-78717619D01*
X108764761Y-78770000D01*
X108817142Y-78822380D01*
X108869523Y-78927142D01*
X108921904Y-79136666D01*
X108921904Y-79398571D01*
X108869523Y-79608095D01*
X108817142Y-79712857D01*
X108764761Y-79765238D01*
X108660000Y-79817619D01*
X108555238Y-79817619D01*
X108450476Y-79765238D01*
X108398095Y-79712857D01*
X108345714Y-79608095D01*
X108293333Y-79398571D01*
X108293333Y-79136666D01*
X108345714Y-78927142D01*
X108398095Y-78822380D01*
X108450476Y-78770000D01*
X108555238Y-78717619D01*
X109917142Y-78717619D02*
X109393333Y-78717619D01*
X109340952Y-79241428D01*
X109393333Y-79189047D01*
X109498095Y-79136666D01*
X109760000Y-79136666D01*
X109864761Y-79189047D01*
X109917142Y-79241428D01*
X109969523Y-79346190D01*
X109969523Y-79608095D01*
X109917142Y-79712857D01*
X109864761Y-79765238D01*
X109760000Y-79817619D01*
X109498095Y-79817619D01*
X109393333Y-79765238D01*
X109340952Y-79712857D01*
X105412380Y-73637619D02*
X105517142Y-73637619D01*
X105621904Y-73690000D01*
X105674285Y-73742380D01*
X105726666Y-73847142D01*
X105779047Y-74056666D01*
X105779047Y-74318571D01*
X105726666Y-74528095D01*
X105674285Y-74632857D01*
X105621904Y-74685238D01*
X105517142Y-74737619D01*
X105412380Y-74737619D01*
X105307619Y-74685238D01*
X105255238Y-74632857D01*
X105202857Y-74528095D01*
X105150476Y-74318571D01*
X105150476Y-74056666D01*
X105202857Y-73847142D01*
X105255238Y-73742380D01*
X105307619Y-73690000D01*
X105412380Y-73637619D01*
X106198095Y-73742380D02*
X106250476Y-73690000D01*
X106355238Y-73637619D01*
X106617142Y-73637619D01*
X106721904Y-73690000D01*
X106774285Y-73742380D01*
X106826666Y-73847142D01*
X106826666Y-73951904D01*
X106774285Y-74109047D01*
X106145714Y-74737619D01*
X106826666Y-74737619D01*
X107560000Y-75104285D02*
X107560000Y-73532857D01*
X108555238Y-73637619D02*
X108660000Y-73637619D01*
X108764761Y-73690000D01*
X108817142Y-73742380D01*
X108869523Y-73847142D01*
X108921904Y-74056666D01*
X108921904Y-74318571D01*
X108869523Y-74528095D01*
X108817142Y-74632857D01*
X108764761Y-74685238D01*
X108660000Y-74737619D01*
X108555238Y-74737619D01*
X108450476Y-74685238D01*
X108398095Y-74632857D01*
X108345714Y-74528095D01*
X108293333Y-74318571D01*
X108293333Y-74056666D01*
X108345714Y-73847142D01*
X108398095Y-73742380D01*
X108450476Y-73690000D01*
X108555238Y-73637619D01*
X109969523Y-74737619D02*
X109340952Y-74737619D01*
X109655238Y-74737619D02*
X109655238Y-73637619D01*
X109550476Y-73794761D01*
X109445714Y-73899523D01*
X109340952Y-73951904D01*
X105779047Y-97567619D02*
X105150476Y-97567619D01*
X105464761Y-97567619D02*
X105464761Y-96467619D01*
X105360000Y-96624761D01*
X105255238Y-96729523D01*
X105150476Y-96781904D01*
X106460000Y-96467619D02*
X106564761Y-96467619D01*
X106669523Y-96520000D01*
X106721904Y-96572380D01*
X106774285Y-96677142D01*
X106826666Y-96886666D01*
X106826666Y-97148571D01*
X106774285Y-97358095D01*
X106721904Y-97462857D01*
X106669523Y-97515238D01*
X106564761Y-97567619D01*
X106460000Y-97567619D01*
X106355238Y-97515238D01*
X106302857Y-97462857D01*
X106250476Y-97358095D01*
X106198095Y-97148571D01*
X106198095Y-96886666D01*
X106250476Y-96677142D01*
X106302857Y-96572380D01*
X106355238Y-96520000D01*
X106460000Y-96467619D01*
X107560000Y-97934285D02*
X107560000Y-96362857D01*
X108555238Y-96467619D02*
X108660000Y-96467619D01*
X108764761Y-96520000D01*
X108817142Y-96572380D01*
X108869523Y-96677142D01*
X108921904Y-96886666D01*
X108921904Y-97148571D01*
X108869523Y-97358095D01*
X108817142Y-97462857D01*
X108764761Y-97515238D01*
X108660000Y-97567619D01*
X108555238Y-97567619D01*
X108450476Y-97515238D01*
X108398095Y-97462857D01*
X108345714Y-97358095D01*
X108293333Y-97148571D01*
X108293333Y-96886666D01*
X108345714Y-96677142D01*
X108398095Y-96572380D01*
X108450476Y-96520000D01*
X108555238Y-96467619D01*
X109445714Y-97567619D02*
X109655238Y-97567619D01*
X109760000Y-97515238D01*
X109812380Y-97462857D01*
X109917142Y-97305714D01*
X109969523Y-97096190D01*
X109969523Y-96677142D01*
X109917142Y-96572380D01*
X109864761Y-96520000D01*
X109760000Y-96467619D01*
X109550476Y-96467619D01*
X109445714Y-96520000D01*
X109393333Y-96572380D01*
X109340952Y-96677142D01*
X109340952Y-96939047D01*
X109393333Y-97043809D01*
X109445714Y-97096190D01*
X109550476Y-97148571D01*
X109760000Y-97148571D01*
X109864761Y-97096190D01*
X109917142Y-97043809D01*
X109969523Y-96939047D01*
D11*
X98271428Y-92278571D02*
X97557142Y-92278571D01*
X97557142Y-90778571D01*
X98771428Y-91492857D02*
X99271428Y-91492857D01*
X99485714Y-92278571D02*
X98771428Y-92278571D01*
X98771428Y-90778571D01*
X99485714Y-90778571D01*
X100128571Y-92278571D02*
X100128571Y-90778571D01*
X100485714Y-90778571D01*
X100700000Y-90850000D01*
X100842857Y-90992857D01*
X100914285Y-91135714D01*
X100985714Y-91421428D01*
X100985714Y-91635714D01*
X100914285Y-91921428D01*
X100842857Y-92064285D01*
X100700000Y-92207142D01*
X100485714Y-92278571D01*
X100128571Y-92278571D01*
X102771428Y-92278571D02*
X102771428Y-90778571D01*
X103342857Y-90778571D01*
X103485714Y-90850000D01*
X103557142Y-90921428D01*
X103628571Y-91064285D01*
X103628571Y-91278571D01*
X103557142Y-91421428D01*
X103485714Y-91492857D01*
X103342857Y-91564285D01*
X102771428Y-91564285D01*
X104271428Y-92278571D02*
X104271428Y-90778571D01*
X104771428Y-91850000D01*
X105271428Y-90778571D01*
X105271428Y-92278571D01*
X106271428Y-90778571D02*
X106557142Y-90778571D01*
X106700000Y-90850000D01*
X106842857Y-90992857D01*
X106914285Y-91278571D01*
X106914285Y-91778571D01*
X106842857Y-92064285D01*
X106700000Y-92207142D01*
X106557142Y-92278571D01*
X106271428Y-92278571D01*
X106128571Y-92207142D01*
X105985714Y-92064285D01*
X105914285Y-91778571D01*
X105914285Y-91278571D01*
X105985714Y-90992857D01*
X106128571Y-90850000D01*
X106271428Y-90778571D01*
X107557142Y-92278571D02*
X107557142Y-90778571D01*
X107914285Y-90778571D01*
X108128571Y-90850000D01*
X108271428Y-90992857D01*
X108342857Y-91135714D01*
X108414285Y-91421428D01*
X108414285Y-91635714D01*
X108342857Y-91921428D01*
X108271428Y-92064285D01*
X108128571Y-92207142D01*
X107914285Y-92278571D01*
X107557142Y-92278571D01*
D10*
X105779047Y-105187619D02*
X105150476Y-105187619D01*
X105464761Y-105187619D02*
X105464761Y-104087619D01*
X105360000Y-104244761D01*
X105255238Y-104349523D01*
X105150476Y-104401904D01*
X106721904Y-104087619D02*
X106512380Y-104087619D01*
X106407619Y-104140000D01*
X106355238Y-104192380D01*
X106250476Y-104349523D01*
X106198095Y-104559047D01*
X106198095Y-104978095D01*
X106250476Y-105082857D01*
X106302857Y-105135238D01*
X106407619Y-105187619D01*
X106617142Y-105187619D01*
X106721904Y-105135238D01*
X106774285Y-105082857D01*
X106826666Y-104978095D01*
X106826666Y-104716190D01*
X106774285Y-104611428D01*
X106721904Y-104559047D01*
X106617142Y-104506666D01*
X106407619Y-104506666D01*
X106302857Y-104559047D01*
X106250476Y-104611428D01*
X106198095Y-104716190D01*
X107560000Y-105554285D02*
X107560000Y-103982857D01*
X108921904Y-105187619D02*
X108293333Y-105187619D01*
X108607619Y-105187619D02*
X108607619Y-104087619D01*
X108502857Y-104244761D01*
X108398095Y-104349523D01*
X108293333Y-104401904D01*
X109917142Y-104087619D02*
X109393333Y-104087619D01*
X109340952Y-104611428D01*
X109393333Y-104559047D01*
X109498095Y-104506666D01*
X109760000Y-104506666D01*
X109864761Y-104559047D01*
X109917142Y-104611428D01*
X109969523Y-104716190D01*
X109969523Y-104978095D01*
X109917142Y-105082857D01*
X109864761Y-105135238D01*
X109760000Y-105187619D01*
X109498095Y-105187619D01*
X109393333Y-105135238D01*
X109340952Y-105082857D01*
X106198095Y-109167619D02*
X106879047Y-109167619D01*
X106512380Y-109586666D01*
X106669523Y-109586666D01*
X106774285Y-109639047D01*
X106826666Y-109691428D01*
X106879047Y-109796190D01*
X106879047Y-110058095D01*
X106826666Y-110162857D01*
X106774285Y-110215238D01*
X106669523Y-110267619D01*
X106355238Y-110267619D01*
X106250476Y-110215238D01*
X106198095Y-110162857D01*
X107193333Y-109167619D02*
X107560000Y-110267619D01*
X107926666Y-109167619D01*
X108188571Y-109167619D02*
X108869523Y-109167619D01*
X108502857Y-109586666D01*
X108660000Y-109586666D01*
X108764761Y-109639047D01*
X108817142Y-109691428D01*
X108869523Y-109796190D01*
X108869523Y-110058095D01*
X108817142Y-110162857D01*
X108764761Y-110215238D01*
X108660000Y-110267619D01*
X108345714Y-110267619D01*
X108240952Y-110215238D01*
X108188571Y-110162857D01*
X105779047Y-102647619D02*
X105150476Y-102647619D01*
X105464761Y-102647619D02*
X105464761Y-101547619D01*
X105360000Y-101704761D01*
X105255238Y-101809523D01*
X105150476Y-101861904D01*
X106721904Y-101914285D02*
X106721904Y-102647619D01*
X106460000Y-101495238D02*
X106198095Y-102280952D01*
X106879047Y-102280952D01*
X107560000Y-103014285D02*
X107560000Y-101442857D01*
X108921904Y-102647619D02*
X108293333Y-102647619D01*
X108607619Y-102647619D02*
X108607619Y-101547619D01*
X108502857Y-101704761D01*
X108398095Y-101809523D01*
X108293333Y-101861904D01*
X109288571Y-101547619D02*
X109969523Y-101547619D01*
X109602857Y-101966666D01*
X109760000Y-101966666D01*
X109864761Y-102019047D01*
X109917142Y-102071428D01*
X109969523Y-102176190D01*
X109969523Y-102438095D01*
X109917142Y-102542857D01*
X109864761Y-102595238D01*
X109760000Y-102647619D01*
X109445714Y-102647619D01*
X109340952Y-102595238D01*
X109288571Y-102542857D01*
D12*
X106209888Y-93019285D02*
X106366138Y-93769285D01*
X106709888Y-93019285D01*
X107258995Y-93769285D02*
X106830424Y-93769285D01*
X107044709Y-93769285D02*
X107138459Y-93019285D01*
X107053638Y-93126428D01*
X106973281Y-93197857D01*
X106897388Y-93233571D01*
X107589352Y-93697857D02*
X107620602Y-93733571D01*
X107580424Y-93769285D01*
X107549174Y-93733571D01*
X107589352Y-93697857D01*
X107580424Y-93769285D01*
X108174174Y-93019285D02*
X108245602Y-93019285D01*
X108312566Y-93055000D01*
X108343816Y-93090714D01*
X108370602Y-93162142D01*
X108388459Y-93305000D01*
X108366138Y-93483571D01*
X108312566Y-93626428D01*
X108267924Y-93697857D01*
X108227745Y-93733571D01*
X108151852Y-93769285D01*
X108080424Y-93769285D01*
X108013459Y-93733571D01*
X107982209Y-93697857D01*
X107955424Y-93626428D01*
X107937566Y-93483571D01*
X107959888Y-93305000D01*
X108013459Y-93162142D01*
X108058102Y-93090714D01*
X108098281Y-93055000D01*
X108174174Y-93019285D01*
D10*
X105779047Y-100107619D02*
X105150476Y-100107619D01*
X105464761Y-100107619D02*
X105464761Y-99007619D01*
X105360000Y-99164761D01*
X105255238Y-99269523D01*
X105150476Y-99321904D01*
X106198095Y-99112380D02*
X106250476Y-99060000D01*
X106355238Y-99007619D01*
X106617142Y-99007619D01*
X106721904Y-99060000D01*
X106774285Y-99112380D01*
X106826666Y-99217142D01*
X106826666Y-99321904D01*
X106774285Y-99479047D01*
X106145714Y-100107619D01*
X106826666Y-100107619D01*
X107560000Y-100474285D02*
X107560000Y-98902857D01*
X108921904Y-100107619D02*
X108293333Y-100107619D01*
X108607619Y-100107619D02*
X108607619Y-99007619D01*
X108502857Y-99164761D01*
X108398095Y-99269523D01*
X108293333Y-99321904D01*
X109969523Y-100107619D02*
X109340952Y-100107619D01*
X109655238Y-100107619D02*
X109655238Y-99007619D01*
X109550476Y-99164761D01*
X109445714Y-99269523D01*
X109340952Y-99321904D01*
X105412380Y-76177619D02*
X105517142Y-76177619D01*
X105621904Y-76230000D01*
X105674285Y-76282380D01*
X105726666Y-76387142D01*
X105779047Y-76596666D01*
X105779047Y-76858571D01*
X105726666Y-77068095D01*
X105674285Y-77172857D01*
X105621904Y-77225238D01*
X105517142Y-77277619D01*
X105412380Y-77277619D01*
X105307619Y-77225238D01*
X105255238Y-77172857D01*
X105202857Y-77068095D01*
X105150476Y-76858571D01*
X105150476Y-76596666D01*
X105202857Y-76387142D01*
X105255238Y-76282380D01*
X105307619Y-76230000D01*
X105412380Y-76177619D01*
X106721904Y-76544285D02*
X106721904Y-77277619D01*
X106460000Y-76125238D02*
X106198095Y-76910952D01*
X106879047Y-76910952D01*
X107560000Y-77644285D02*
X107560000Y-76072857D01*
X108555238Y-76177619D02*
X108660000Y-76177619D01*
X108764761Y-76230000D01*
X108817142Y-76282380D01*
X108869523Y-76387142D01*
X108921904Y-76596666D01*
X108921904Y-76858571D01*
X108869523Y-77068095D01*
X108817142Y-77172857D01*
X108764761Y-77225238D01*
X108660000Y-77277619D01*
X108555238Y-77277619D01*
X108450476Y-77225238D01*
X108398095Y-77172857D01*
X108345714Y-77068095D01*
X108293333Y-76858571D01*
X108293333Y-76596666D01*
X108345714Y-76387142D01*
X108398095Y-76282380D01*
X108450476Y-76230000D01*
X108555238Y-76177619D01*
X109288571Y-76177619D02*
X109969523Y-76177619D01*
X109602857Y-76596666D01*
X109760000Y-76596666D01*
X109864761Y-76649047D01*
X109917142Y-76701428D01*
X109969523Y-76806190D01*
X109969523Y-77068095D01*
X109917142Y-77172857D01*
X109864761Y-77225238D01*
X109760000Y-77277619D01*
X109445714Y-77277619D01*
X109340952Y-77225238D01*
X109288571Y-77172857D01*
X105412380Y-81257619D02*
X105517142Y-81257619D01*
X105621904Y-81310000D01*
X105674285Y-81362380D01*
X105726666Y-81467142D01*
X105779047Y-81676666D01*
X105779047Y-81938571D01*
X105726666Y-82148095D01*
X105674285Y-82252857D01*
X105621904Y-82305238D01*
X105517142Y-82357619D01*
X105412380Y-82357619D01*
X105307619Y-82305238D01*
X105255238Y-82252857D01*
X105202857Y-82148095D01*
X105150476Y-81938571D01*
X105150476Y-81676666D01*
X105202857Y-81467142D01*
X105255238Y-81362380D01*
X105307619Y-81310000D01*
X105412380Y-81257619D01*
X106407619Y-81729047D02*
X106302857Y-81676666D01*
X106250476Y-81624285D01*
X106198095Y-81519523D01*
X106198095Y-81467142D01*
X106250476Y-81362380D01*
X106302857Y-81310000D01*
X106407619Y-81257619D01*
X106617142Y-81257619D01*
X106721904Y-81310000D01*
X106774285Y-81362380D01*
X106826666Y-81467142D01*
X106826666Y-81519523D01*
X106774285Y-81624285D01*
X106721904Y-81676666D01*
X106617142Y-81729047D01*
X106407619Y-81729047D01*
X106302857Y-81781428D01*
X106250476Y-81833809D01*
X106198095Y-81938571D01*
X106198095Y-82148095D01*
X106250476Y-82252857D01*
X106302857Y-82305238D01*
X106407619Y-82357619D01*
X106617142Y-82357619D01*
X106721904Y-82305238D01*
X106774285Y-82252857D01*
X106826666Y-82148095D01*
X106826666Y-81938571D01*
X106774285Y-81833809D01*
X106721904Y-81781428D01*
X106617142Y-81729047D01*
X107560000Y-82724285D02*
X107560000Y-81152857D01*
X108555238Y-81257619D02*
X108660000Y-81257619D01*
X108764761Y-81310000D01*
X108817142Y-81362380D01*
X108869523Y-81467142D01*
X108921904Y-81676666D01*
X108921904Y-81938571D01*
X108869523Y-82148095D01*
X108817142Y-82252857D01*
X108764761Y-82305238D01*
X108660000Y-82357619D01*
X108555238Y-82357619D01*
X108450476Y-82305238D01*
X108398095Y-82252857D01*
X108345714Y-82148095D01*
X108293333Y-81938571D01*
X108293333Y-81676666D01*
X108345714Y-81467142D01*
X108398095Y-81362380D01*
X108450476Y-81310000D01*
X108555238Y-81257619D01*
X109288571Y-81257619D02*
X110021904Y-81257619D01*
X109550476Y-82357619D01*
X106721904Y-106680000D02*
X106617142Y-106627619D01*
X106460000Y-106627619D01*
X106302857Y-106680000D01*
X106198095Y-106784761D01*
X106145714Y-106889523D01*
X106093333Y-107099047D01*
X106093333Y-107256190D01*
X106145714Y-107465714D01*
X106198095Y-107570476D01*
X106302857Y-107675238D01*
X106460000Y-107727619D01*
X106564761Y-107727619D01*
X106721904Y-107675238D01*
X106774285Y-107622857D01*
X106774285Y-107256190D01*
X106564761Y-107256190D01*
X107245714Y-107727619D02*
X107245714Y-106627619D01*
X107874285Y-107727619D01*
X107874285Y-106627619D01*
X108398095Y-107727619D02*
X108398095Y-106627619D01*
X108660000Y-106627619D01*
X108817142Y-106680000D01*
X108921904Y-106784761D01*
X108974285Y-106889523D01*
X109026666Y-107099047D01*
X109026666Y-107256190D01*
X108974285Y-107465714D01*
X108921904Y-107570476D01*
X108817142Y-107675238D01*
X108660000Y-107727619D01*
X108398095Y-107727619D01*
D12*
%TO.C,D04*%
X116595714Y-81202380D02*
X116595714Y-80202380D01*
X116833809Y-80202380D01*
X116976666Y-80250000D01*
X117071904Y-80345238D01*
X117119523Y-80440476D01*
X117167142Y-80630952D01*
X117167142Y-80773809D01*
X117119523Y-80964285D01*
X117071904Y-81059523D01*
X116976666Y-81154761D01*
X116833809Y-81202380D01*
X116595714Y-81202380D01*
X117786190Y-80202380D02*
X117881428Y-80202380D01*
X117976666Y-80250000D01*
X118024285Y-80297619D01*
X118071904Y-80392857D01*
X118119523Y-80583333D01*
X118119523Y-80821428D01*
X118071904Y-81011904D01*
X118024285Y-81107142D01*
X117976666Y-81154761D01*
X117881428Y-81202380D01*
X117786190Y-81202380D01*
X117690952Y-81154761D01*
X117643333Y-81107142D01*
X117595714Y-81011904D01*
X117548095Y-80821428D01*
X117548095Y-80583333D01*
X117595714Y-80392857D01*
X117643333Y-80297619D01*
X117690952Y-80250000D01*
X117786190Y-80202380D01*
X118976666Y-80535714D02*
X118976666Y-81202380D01*
X118738571Y-80154761D02*
X118500476Y-80869047D01*
X119119523Y-80869047D01*
%TO.C,D14*%
X116595714Y-106202380D02*
X116595714Y-105202380D01*
X116833809Y-105202380D01*
X116976666Y-105250000D01*
X117071904Y-105345238D01*
X117119523Y-105440476D01*
X117167142Y-105630952D01*
X117167142Y-105773809D01*
X117119523Y-105964285D01*
X117071904Y-106059523D01*
X116976666Y-106154761D01*
X116833809Y-106202380D01*
X116595714Y-106202380D01*
X118119523Y-106202380D02*
X117548095Y-106202380D01*
X117833809Y-106202380D02*
X117833809Y-105202380D01*
X117738571Y-105345238D01*
X117643333Y-105440476D01*
X117548095Y-105488095D01*
X118976666Y-105535714D02*
X118976666Y-106202380D01*
X118738571Y-105154761D02*
X118500476Y-105869047D01*
X119119523Y-105869047D01*
%TO.C,D08*%
X116595714Y-91202380D02*
X116595714Y-90202380D01*
X116833809Y-90202380D01*
X116976666Y-90250000D01*
X117071904Y-90345238D01*
X117119523Y-90440476D01*
X117167142Y-90630952D01*
X117167142Y-90773809D01*
X117119523Y-90964285D01*
X117071904Y-91059523D01*
X116976666Y-91154761D01*
X116833809Y-91202380D01*
X116595714Y-91202380D01*
X117786190Y-90202380D02*
X117881428Y-90202380D01*
X117976666Y-90250000D01*
X118024285Y-90297619D01*
X118071904Y-90392857D01*
X118119523Y-90583333D01*
X118119523Y-90821428D01*
X118071904Y-91011904D01*
X118024285Y-91107142D01*
X117976666Y-91154761D01*
X117881428Y-91202380D01*
X117786190Y-91202380D01*
X117690952Y-91154761D01*
X117643333Y-91107142D01*
X117595714Y-91011904D01*
X117548095Y-90821428D01*
X117548095Y-90583333D01*
X117595714Y-90392857D01*
X117643333Y-90297619D01*
X117690952Y-90250000D01*
X117786190Y-90202380D01*
X118690952Y-90630952D02*
X118595714Y-90583333D01*
X118548095Y-90535714D01*
X118500476Y-90440476D01*
X118500476Y-90392857D01*
X118548095Y-90297619D01*
X118595714Y-90250000D01*
X118690952Y-90202380D01*
X118881428Y-90202380D01*
X118976666Y-90250000D01*
X119024285Y-90297619D01*
X119071904Y-90392857D01*
X119071904Y-90440476D01*
X119024285Y-90535714D01*
X118976666Y-90583333D01*
X118881428Y-90630952D01*
X118690952Y-90630952D01*
X118595714Y-90678571D01*
X118548095Y-90726190D01*
X118500476Y-90821428D01*
X118500476Y-91011904D01*
X118548095Y-91107142D01*
X118595714Y-91154761D01*
X118690952Y-91202380D01*
X118881428Y-91202380D01*
X118976666Y-91154761D01*
X119024285Y-91107142D01*
X119071904Y-91011904D01*
X119071904Y-90821428D01*
X119024285Y-90726190D01*
X118976666Y-90678571D01*
X118881428Y-90630952D01*
%TO.C,D01*%
X116595714Y-73672380D02*
X116595714Y-72672380D01*
X116833809Y-72672380D01*
X116976666Y-72720000D01*
X117071904Y-72815238D01*
X117119523Y-72910476D01*
X117167142Y-73100952D01*
X117167142Y-73243809D01*
X117119523Y-73434285D01*
X117071904Y-73529523D01*
X116976666Y-73624761D01*
X116833809Y-73672380D01*
X116595714Y-73672380D01*
X117786190Y-72672380D02*
X117881428Y-72672380D01*
X117976666Y-72720000D01*
X118024285Y-72767619D01*
X118071904Y-72862857D01*
X118119523Y-73053333D01*
X118119523Y-73291428D01*
X118071904Y-73481904D01*
X118024285Y-73577142D01*
X117976666Y-73624761D01*
X117881428Y-73672380D01*
X117786190Y-73672380D01*
X117690952Y-73624761D01*
X117643333Y-73577142D01*
X117595714Y-73481904D01*
X117548095Y-73291428D01*
X117548095Y-73053333D01*
X117595714Y-72862857D01*
X117643333Y-72767619D01*
X117690952Y-72720000D01*
X117786190Y-72672380D01*
X119071904Y-73672380D02*
X118500476Y-73672380D01*
X118786190Y-73672380D02*
X118786190Y-72672380D01*
X118690952Y-72815238D01*
X118595714Y-72910476D01*
X118500476Y-72958095D01*
%TO.C,D15*%
X116595714Y-108702380D02*
X116595714Y-107702380D01*
X116833809Y-107702380D01*
X116976666Y-107750000D01*
X117071904Y-107845238D01*
X117119523Y-107940476D01*
X117167142Y-108130952D01*
X117167142Y-108273809D01*
X117119523Y-108464285D01*
X117071904Y-108559523D01*
X116976666Y-108654761D01*
X116833809Y-108702380D01*
X116595714Y-108702380D01*
X118119523Y-108702380D02*
X117548095Y-108702380D01*
X117833809Y-108702380D02*
X117833809Y-107702380D01*
X117738571Y-107845238D01*
X117643333Y-107940476D01*
X117548095Y-107988095D01*
X119024285Y-107702380D02*
X118548095Y-107702380D01*
X118500476Y-108178571D01*
X118548095Y-108130952D01*
X118643333Y-108083333D01*
X118881428Y-108083333D01*
X118976666Y-108130952D01*
X119024285Y-108178571D01*
X119071904Y-108273809D01*
X119071904Y-108511904D01*
X119024285Y-108607142D01*
X118976666Y-108654761D01*
X118881428Y-108702380D01*
X118643333Y-108702380D01*
X118548095Y-108654761D01*
X118500476Y-108607142D01*
%TO.C,D16*%
X116595714Y-111202380D02*
X116595714Y-110202380D01*
X116833809Y-110202380D01*
X116976666Y-110250000D01*
X117071904Y-110345238D01*
X117119523Y-110440476D01*
X117167142Y-110630952D01*
X117167142Y-110773809D01*
X117119523Y-110964285D01*
X117071904Y-111059523D01*
X116976666Y-111154761D01*
X116833809Y-111202380D01*
X116595714Y-111202380D01*
X118119523Y-111202380D02*
X117548095Y-111202380D01*
X117833809Y-111202380D02*
X117833809Y-110202380D01*
X117738571Y-110345238D01*
X117643333Y-110440476D01*
X117548095Y-110488095D01*
X118976666Y-110202380D02*
X118786190Y-110202380D01*
X118690952Y-110250000D01*
X118643333Y-110297619D01*
X118548095Y-110440476D01*
X118500476Y-110630952D01*
X118500476Y-111011904D01*
X118548095Y-111107142D01*
X118595714Y-111154761D01*
X118690952Y-111202380D01*
X118881428Y-111202380D01*
X118976666Y-111154761D01*
X119024285Y-111107142D01*
X119071904Y-111011904D01*
X119071904Y-110773809D01*
X119024285Y-110678571D01*
X118976666Y-110630952D01*
X118881428Y-110583333D01*
X118690952Y-110583333D01*
X118595714Y-110630952D01*
X118548095Y-110678571D01*
X118500476Y-110773809D01*
%TO.C,D13*%
X116595714Y-103702380D02*
X116595714Y-102702380D01*
X116833809Y-102702380D01*
X116976666Y-102750000D01*
X117071904Y-102845238D01*
X117119523Y-102940476D01*
X117167142Y-103130952D01*
X117167142Y-103273809D01*
X117119523Y-103464285D01*
X117071904Y-103559523D01*
X116976666Y-103654761D01*
X116833809Y-103702380D01*
X116595714Y-103702380D01*
X118119523Y-103702380D02*
X117548095Y-103702380D01*
X117833809Y-103702380D02*
X117833809Y-102702380D01*
X117738571Y-102845238D01*
X117643333Y-102940476D01*
X117548095Y-102988095D01*
X118452857Y-102702380D02*
X119071904Y-102702380D01*
X118738571Y-103083333D01*
X118881428Y-103083333D01*
X118976666Y-103130952D01*
X119024285Y-103178571D01*
X119071904Y-103273809D01*
X119071904Y-103511904D01*
X119024285Y-103607142D01*
X118976666Y-103654761D01*
X118881428Y-103702380D01*
X118595714Y-103702380D01*
X118500476Y-103654761D01*
X118452857Y-103607142D01*
%TO.C,D09*%
X116595714Y-93702380D02*
X116595714Y-92702380D01*
X116833809Y-92702380D01*
X116976666Y-92750000D01*
X117071904Y-92845238D01*
X117119523Y-92940476D01*
X117167142Y-93130952D01*
X117167142Y-93273809D01*
X117119523Y-93464285D01*
X117071904Y-93559523D01*
X116976666Y-93654761D01*
X116833809Y-93702380D01*
X116595714Y-93702380D01*
X117786190Y-92702380D02*
X117881428Y-92702380D01*
X117976666Y-92750000D01*
X118024285Y-92797619D01*
X118071904Y-92892857D01*
X118119523Y-93083333D01*
X118119523Y-93321428D01*
X118071904Y-93511904D01*
X118024285Y-93607142D01*
X117976666Y-93654761D01*
X117881428Y-93702380D01*
X117786190Y-93702380D01*
X117690952Y-93654761D01*
X117643333Y-93607142D01*
X117595714Y-93511904D01*
X117548095Y-93321428D01*
X117548095Y-93083333D01*
X117595714Y-92892857D01*
X117643333Y-92797619D01*
X117690952Y-92750000D01*
X117786190Y-92702380D01*
X118595714Y-93702380D02*
X118786190Y-93702380D01*
X118881428Y-93654761D01*
X118929047Y-93607142D01*
X119024285Y-93464285D01*
X119071904Y-93273809D01*
X119071904Y-92892857D01*
X119024285Y-92797619D01*
X118976666Y-92750000D01*
X118881428Y-92702380D01*
X118690952Y-92702380D01*
X118595714Y-92750000D01*
X118548095Y-92797619D01*
X118500476Y-92892857D01*
X118500476Y-93130952D01*
X118548095Y-93226190D01*
X118595714Y-93273809D01*
X118690952Y-93321428D01*
X118881428Y-93321428D01*
X118976666Y-93273809D01*
X119024285Y-93226190D01*
X119071904Y-93130952D01*
%TO.C,D02*%
X116595714Y-76202380D02*
X116595714Y-75202380D01*
X116833809Y-75202380D01*
X116976666Y-75250000D01*
X117071904Y-75345238D01*
X117119523Y-75440476D01*
X117167142Y-75630952D01*
X117167142Y-75773809D01*
X117119523Y-75964285D01*
X117071904Y-76059523D01*
X116976666Y-76154761D01*
X116833809Y-76202380D01*
X116595714Y-76202380D01*
X117786190Y-75202380D02*
X117881428Y-75202380D01*
X117976666Y-75250000D01*
X118024285Y-75297619D01*
X118071904Y-75392857D01*
X118119523Y-75583333D01*
X118119523Y-75821428D01*
X118071904Y-76011904D01*
X118024285Y-76107142D01*
X117976666Y-76154761D01*
X117881428Y-76202380D01*
X117786190Y-76202380D01*
X117690952Y-76154761D01*
X117643333Y-76107142D01*
X117595714Y-76011904D01*
X117548095Y-75821428D01*
X117548095Y-75583333D01*
X117595714Y-75392857D01*
X117643333Y-75297619D01*
X117690952Y-75250000D01*
X117786190Y-75202380D01*
X118500476Y-75297619D02*
X118548095Y-75250000D01*
X118643333Y-75202380D01*
X118881428Y-75202380D01*
X118976666Y-75250000D01*
X119024285Y-75297619D01*
X119071904Y-75392857D01*
X119071904Y-75488095D01*
X119024285Y-75630952D01*
X118452857Y-76202380D01*
X119071904Y-76202380D01*
%TO.C,D03*%
X116595714Y-78702380D02*
X116595714Y-77702380D01*
X116833809Y-77702380D01*
X116976666Y-77750000D01*
X117071904Y-77845238D01*
X117119523Y-77940476D01*
X117167142Y-78130952D01*
X117167142Y-78273809D01*
X117119523Y-78464285D01*
X117071904Y-78559523D01*
X116976666Y-78654761D01*
X116833809Y-78702380D01*
X116595714Y-78702380D01*
X117786190Y-77702380D02*
X117881428Y-77702380D01*
X117976666Y-77750000D01*
X118024285Y-77797619D01*
X118071904Y-77892857D01*
X118119523Y-78083333D01*
X118119523Y-78321428D01*
X118071904Y-78511904D01*
X118024285Y-78607142D01*
X117976666Y-78654761D01*
X117881428Y-78702380D01*
X117786190Y-78702380D01*
X117690952Y-78654761D01*
X117643333Y-78607142D01*
X117595714Y-78511904D01*
X117548095Y-78321428D01*
X117548095Y-78083333D01*
X117595714Y-77892857D01*
X117643333Y-77797619D01*
X117690952Y-77750000D01*
X117786190Y-77702380D01*
X118452857Y-77702380D02*
X119071904Y-77702380D01*
X118738571Y-78083333D01*
X118881428Y-78083333D01*
X118976666Y-78130952D01*
X119024285Y-78178571D01*
X119071904Y-78273809D01*
X119071904Y-78511904D01*
X119024285Y-78607142D01*
X118976666Y-78654761D01*
X118881428Y-78702380D01*
X118595714Y-78702380D01*
X118500476Y-78654761D01*
X118452857Y-78607142D01*
%TO.C,D06*%
X116595714Y-86202380D02*
X116595714Y-85202380D01*
X116833809Y-85202380D01*
X116976666Y-85250000D01*
X117071904Y-85345238D01*
X117119523Y-85440476D01*
X117167142Y-85630952D01*
X117167142Y-85773809D01*
X117119523Y-85964285D01*
X117071904Y-86059523D01*
X116976666Y-86154761D01*
X116833809Y-86202380D01*
X116595714Y-86202380D01*
X117786190Y-85202380D02*
X117881428Y-85202380D01*
X117976666Y-85250000D01*
X118024285Y-85297619D01*
X118071904Y-85392857D01*
X118119523Y-85583333D01*
X118119523Y-85821428D01*
X118071904Y-86011904D01*
X118024285Y-86107142D01*
X117976666Y-86154761D01*
X117881428Y-86202380D01*
X117786190Y-86202380D01*
X117690952Y-86154761D01*
X117643333Y-86107142D01*
X117595714Y-86011904D01*
X117548095Y-85821428D01*
X117548095Y-85583333D01*
X117595714Y-85392857D01*
X117643333Y-85297619D01*
X117690952Y-85250000D01*
X117786190Y-85202380D01*
X118976666Y-85202380D02*
X118786190Y-85202380D01*
X118690952Y-85250000D01*
X118643333Y-85297619D01*
X118548095Y-85440476D01*
X118500476Y-85630952D01*
X118500476Y-86011904D01*
X118548095Y-86107142D01*
X118595714Y-86154761D01*
X118690952Y-86202380D01*
X118881428Y-86202380D01*
X118976666Y-86154761D01*
X119024285Y-86107142D01*
X119071904Y-86011904D01*
X119071904Y-85773809D01*
X119024285Y-85678571D01*
X118976666Y-85630952D01*
X118881428Y-85583333D01*
X118690952Y-85583333D01*
X118595714Y-85630952D01*
X118548095Y-85678571D01*
X118500476Y-85773809D01*
%TO.C,D07*%
X116595714Y-88702380D02*
X116595714Y-87702380D01*
X116833809Y-87702380D01*
X116976666Y-87750000D01*
X117071904Y-87845238D01*
X117119523Y-87940476D01*
X117167142Y-88130952D01*
X117167142Y-88273809D01*
X117119523Y-88464285D01*
X117071904Y-88559523D01*
X116976666Y-88654761D01*
X116833809Y-88702380D01*
X116595714Y-88702380D01*
X117786190Y-87702380D02*
X117881428Y-87702380D01*
X117976666Y-87750000D01*
X118024285Y-87797619D01*
X118071904Y-87892857D01*
X118119523Y-88083333D01*
X118119523Y-88321428D01*
X118071904Y-88511904D01*
X118024285Y-88607142D01*
X117976666Y-88654761D01*
X117881428Y-88702380D01*
X117786190Y-88702380D01*
X117690952Y-88654761D01*
X117643333Y-88607142D01*
X117595714Y-88511904D01*
X117548095Y-88321428D01*
X117548095Y-88083333D01*
X117595714Y-87892857D01*
X117643333Y-87797619D01*
X117690952Y-87750000D01*
X117786190Y-87702380D01*
X118452857Y-87702380D02*
X119119523Y-87702380D01*
X118690952Y-88702380D01*
%TO.C,D11*%
X116595714Y-98702380D02*
X116595714Y-97702380D01*
X116833809Y-97702380D01*
X116976666Y-97750000D01*
X117071904Y-97845238D01*
X117119523Y-97940476D01*
X117167142Y-98130952D01*
X117167142Y-98273809D01*
X117119523Y-98464285D01*
X117071904Y-98559523D01*
X116976666Y-98654761D01*
X116833809Y-98702380D01*
X116595714Y-98702380D01*
X118119523Y-98702380D02*
X117548095Y-98702380D01*
X117833809Y-98702380D02*
X117833809Y-97702380D01*
X117738571Y-97845238D01*
X117643333Y-97940476D01*
X117548095Y-97988095D01*
X119071904Y-98702380D02*
X118500476Y-98702380D01*
X118786190Y-98702380D02*
X118786190Y-97702380D01*
X118690952Y-97845238D01*
X118595714Y-97940476D01*
X118500476Y-97988095D01*
%TO.C,D10*%
X116595714Y-96202380D02*
X116595714Y-95202380D01*
X116833809Y-95202380D01*
X116976666Y-95250000D01*
X117071904Y-95345238D01*
X117119523Y-95440476D01*
X117167142Y-95630952D01*
X117167142Y-95773809D01*
X117119523Y-95964285D01*
X117071904Y-96059523D01*
X116976666Y-96154761D01*
X116833809Y-96202380D01*
X116595714Y-96202380D01*
X118119523Y-96202380D02*
X117548095Y-96202380D01*
X117833809Y-96202380D02*
X117833809Y-95202380D01*
X117738571Y-95345238D01*
X117643333Y-95440476D01*
X117548095Y-95488095D01*
X118738571Y-95202380D02*
X118833809Y-95202380D01*
X118929047Y-95250000D01*
X118976666Y-95297619D01*
X119024285Y-95392857D01*
X119071904Y-95583333D01*
X119071904Y-95821428D01*
X119024285Y-96011904D01*
X118976666Y-96107142D01*
X118929047Y-96154761D01*
X118833809Y-96202380D01*
X118738571Y-96202380D01*
X118643333Y-96154761D01*
X118595714Y-96107142D01*
X118548095Y-96011904D01*
X118500476Y-95821428D01*
X118500476Y-95583333D01*
X118548095Y-95392857D01*
X118595714Y-95297619D01*
X118643333Y-95250000D01*
X118738571Y-95202380D01*
%TO.C,D12*%
X116595714Y-101202380D02*
X116595714Y-100202380D01*
X116833809Y-100202380D01*
X116976666Y-100250000D01*
X117071904Y-100345238D01*
X117119523Y-100440476D01*
X117167142Y-100630952D01*
X117167142Y-100773809D01*
X117119523Y-100964285D01*
X117071904Y-101059523D01*
X116976666Y-101154761D01*
X116833809Y-101202380D01*
X116595714Y-101202380D01*
X118119523Y-101202380D02*
X117548095Y-101202380D01*
X117833809Y-101202380D02*
X117833809Y-100202380D01*
X117738571Y-100345238D01*
X117643333Y-100440476D01*
X117548095Y-100488095D01*
X118500476Y-100297619D02*
X118548095Y-100250000D01*
X118643333Y-100202380D01*
X118881428Y-100202380D01*
X118976666Y-100250000D01*
X119024285Y-100297619D01*
X119071904Y-100392857D01*
X119071904Y-100488095D01*
X119024285Y-100630952D01*
X118452857Y-101202380D01*
X119071904Y-101202380D01*
%TO.C,D05*%
X116595714Y-83702380D02*
X116595714Y-82702380D01*
X116833809Y-82702380D01*
X116976666Y-82750000D01*
X117071904Y-82845238D01*
X117119523Y-82940476D01*
X117167142Y-83130952D01*
X117167142Y-83273809D01*
X117119523Y-83464285D01*
X117071904Y-83559523D01*
X116976666Y-83654761D01*
X116833809Y-83702380D01*
X116595714Y-83702380D01*
X117786190Y-82702380D02*
X117881428Y-82702380D01*
X117976666Y-82750000D01*
X118024285Y-82797619D01*
X118071904Y-82892857D01*
X118119523Y-83083333D01*
X118119523Y-83321428D01*
X118071904Y-83511904D01*
X118024285Y-83607142D01*
X117976666Y-83654761D01*
X117881428Y-83702380D01*
X117786190Y-83702380D01*
X117690952Y-83654761D01*
X117643333Y-83607142D01*
X117595714Y-83511904D01*
X117548095Y-83321428D01*
X117548095Y-83083333D01*
X117595714Y-82892857D01*
X117643333Y-82797619D01*
X117690952Y-82750000D01*
X117786190Y-82702380D01*
X119024285Y-82702380D02*
X118548095Y-82702380D01*
X118500476Y-83178571D01*
X118548095Y-83130952D01*
X118643333Y-83083333D01*
X118881428Y-83083333D01*
X118976666Y-83130952D01*
X119024285Y-83178571D01*
X119071904Y-83273809D01*
X119071904Y-83511904D01*
X119024285Y-83607142D01*
X118976666Y-83654761D01*
X118881428Y-83702380D01*
X118643333Y-83702380D01*
X118548095Y-83654761D01*
X118500476Y-83607142D01*
D13*
%TO.C,J1*%
X90070000Y-76380000D02*
X96070000Y-76380000D01*
X90070000Y-79680000D02*
X90070000Y-78920000D01*
X90070000Y-87300000D02*
X90070000Y-86540000D01*
X103980000Y-72950000D02*
X103980000Y-74220000D01*
X96070000Y-84760000D02*
X90070000Y-84760000D01*
X99127071Y-86540000D02*
X98730000Y-86540000D01*
X90070000Y-73840000D02*
X96070000Y-73840000D01*
X98730000Y-85650000D02*
X96070000Y-85650000D01*
X90070000Y-78920000D02*
X96070000Y-78920000D01*
X96070000Y-77140000D02*
X90070000Y-77140000D01*
X99127071Y-77140000D02*
X98730000Y-77140000D01*
X102710000Y-72950000D02*
X103980000Y-72950000D01*
X101667071Y-73840000D02*
X101212929Y-73840000D01*
X90070000Y-74600000D02*
X90070000Y-73840000D01*
X96070000Y-82220000D02*
X90070000Y-82220000D01*
X101667071Y-79680000D02*
X101212929Y-79680000D01*
X90070000Y-84000000D02*
X96070000Y-84000000D01*
X96070000Y-88250000D02*
X98730000Y-88250000D01*
X101600000Y-86540000D02*
X101212929Y-86540000D01*
X99127071Y-87300000D02*
X98730000Y-87300000D01*
X99127071Y-81460000D02*
X98730000Y-81460000D01*
X96070000Y-74540000D02*
X90070000Y-74540000D01*
X96070000Y-74300000D02*
X90070000Y-74300000D01*
X99127071Y-79680000D02*
X98730000Y-79680000D01*
X99127071Y-84760000D02*
X98730000Y-84760000D01*
X98730000Y-78030000D02*
X96070000Y-78030000D01*
X96070000Y-72890000D02*
X96070000Y-88250000D01*
X99127071Y-78920000D02*
X98730000Y-78920000D01*
X99127071Y-73840000D02*
X98730000Y-73840000D01*
X99127071Y-76380000D02*
X98730000Y-76380000D01*
X99127071Y-82220000D02*
X98730000Y-82220000D01*
X96070000Y-74180000D02*
X90070000Y-74180000D01*
X96070000Y-74420000D02*
X90070000Y-74420000D01*
X90070000Y-77140000D02*
X90070000Y-76380000D01*
X96070000Y-79680000D02*
X90070000Y-79680000D01*
X101667071Y-84760000D02*
X101212929Y-84760000D01*
X101600000Y-87300000D02*
X101212929Y-87300000D01*
X98730000Y-75490000D02*
X96070000Y-75490000D01*
X101667071Y-76380000D02*
X101212929Y-76380000D01*
X101667071Y-78920000D02*
X101212929Y-78920000D01*
X90070000Y-81460000D02*
X96070000Y-81460000D01*
X90070000Y-82220000D02*
X90070000Y-81460000D01*
X99127071Y-74600000D02*
X98730000Y-74600000D01*
X98730000Y-80570000D02*
X96070000Y-80570000D01*
X90070000Y-84760000D02*
X90070000Y-84000000D01*
X101667071Y-84000000D02*
X101212929Y-84000000D01*
X96070000Y-74600000D02*
X90070000Y-74600000D01*
X101667071Y-82220000D02*
X101212929Y-82220000D01*
X96070000Y-73940000D02*
X90070000Y-73940000D01*
X101667071Y-81460000D02*
X101212929Y-81460000D01*
X101667071Y-74600000D02*
X101212929Y-74600000D01*
X101667071Y-77140000D02*
X101212929Y-77140000D01*
X90070000Y-86540000D02*
X96070000Y-86540000D01*
X96070000Y-74060000D02*
X90070000Y-74060000D01*
X96070000Y-87300000D02*
X90070000Y-87300000D01*
X98730000Y-72890000D02*
X96070000Y-72890000D01*
X98730000Y-83110000D02*
X96070000Y-83110000D01*
X99127071Y-84000000D02*
X98730000Y-84000000D01*
X98730000Y-88250000D02*
X98730000Y-72890000D01*
%TO.C,R5*%
X112332936Y-83985000D02*
X112787064Y-83985000D01*
X112332936Y-82515000D02*
X112787064Y-82515000D01*
%TO.C,D04*%
X123120000Y-81710000D02*
X123120000Y-79790000D01*
X120260000Y-81710000D02*
X123120000Y-81710000D01*
X123120000Y-79790000D02*
X120260000Y-79790000D01*
%TO.C,R16*%
X112332936Y-111485000D02*
X112787064Y-111485000D01*
X112332936Y-110015000D02*
X112787064Y-110015000D01*
%TO.C,R11*%
X112332936Y-97515000D02*
X112787064Y-97515000D01*
X112332936Y-98985000D02*
X112787064Y-98985000D01*
%TO.C,R2*%
X112332936Y-76485000D02*
X112787064Y-76485000D01*
X112332936Y-75015000D02*
X112787064Y-75015000D01*
%TO.C,R15*%
X112332936Y-107515000D02*
X112787064Y-107515000D01*
X112332936Y-108985000D02*
X112787064Y-108985000D01*
%TO.C,D14*%
X123120000Y-106710000D02*
X123120000Y-104790000D01*
X123120000Y-104790000D02*
X120260000Y-104790000D01*
X120260000Y-106710000D02*
X123120000Y-106710000D01*
%TO.C,D08*%
X123120000Y-91710000D02*
X123120000Y-89790000D01*
X120260000Y-91710000D02*
X123120000Y-91710000D01*
X123120000Y-89790000D02*
X120260000Y-89790000D01*
%TO.C,D01*%
X123120000Y-74210000D02*
X123120000Y-72290000D01*
X123120000Y-72290000D02*
X120260000Y-72290000D01*
X120260000Y-74210000D02*
X123120000Y-74210000D01*
%TO.C,D15*%
X120260000Y-109210000D02*
X123120000Y-109210000D01*
X123120000Y-107290000D02*
X120260000Y-107290000D01*
X123120000Y-109210000D02*
X123120000Y-107290000D01*
%TO.C,R3*%
X112332936Y-77515000D02*
X112787064Y-77515000D01*
X112332936Y-78985000D02*
X112787064Y-78985000D01*
%TO.C,R13*%
X112332936Y-102515000D02*
X112787064Y-102515000D01*
X112332936Y-103985000D02*
X112787064Y-103985000D01*
%TO.C,R7*%
X112332936Y-87515000D02*
X112787064Y-87515000D01*
X112332936Y-88985000D02*
X112787064Y-88985000D01*
%TO.C,R6*%
X112332936Y-85015000D02*
X112787064Y-85015000D01*
X112332936Y-86485000D02*
X112787064Y-86485000D01*
%TO.C,D16*%
X120260000Y-111710000D02*
X123120000Y-111710000D01*
X123120000Y-111710000D02*
X123120000Y-109790000D01*
X123120000Y-109790000D02*
X120260000Y-109790000D01*
%TO.C,D13*%
X120260000Y-104210000D02*
X123120000Y-104210000D01*
X123120000Y-102290000D02*
X120260000Y-102290000D01*
X123120000Y-104210000D02*
X123120000Y-102290000D01*
%TO.C,R12*%
X112332936Y-100015000D02*
X112787064Y-100015000D01*
X112332936Y-101485000D02*
X112787064Y-101485000D01*
%TO.C,D09*%
X120260000Y-94210000D02*
X123120000Y-94210000D01*
X123120000Y-94210000D02*
X123120000Y-92290000D01*
X123120000Y-92290000D02*
X120260000Y-92290000D01*
%TO.C,R1*%
X112332936Y-73985000D02*
X112787064Y-73985000D01*
X112332936Y-72515000D02*
X112787064Y-72515000D01*
%TO.C,R10*%
X112332936Y-95015000D02*
X112787064Y-95015000D01*
X112332936Y-96485000D02*
X112787064Y-96485000D01*
%TO.C,D02*%
X123120000Y-74790000D02*
X120260000Y-74790000D01*
X120260000Y-76710000D02*
X123120000Y-76710000D01*
X123120000Y-76710000D02*
X123120000Y-74790000D01*
%TO.C,R8*%
X112332936Y-90015000D02*
X112787064Y-90015000D01*
X112332936Y-91485000D02*
X112787064Y-91485000D01*
%TO.C,D03*%
X123120000Y-77290000D02*
X120260000Y-77290000D01*
X120260000Y-79210000D02*
X123120000Y-79210000D01*
X123120000Y-79210000D02*
X123120000Y-77290000D01*
%TO.C,D06*%
X120260000Y-86710000D02*
X123120000Y-86710000D01*
X123120000Y-84790000D02*
X120260000Y-84790000D01*
X123120000Y-86710000D02*
X123120000Y-84790000D01*
%TO.C,J2*%
X101667071Y-102540000D02*
X101212929Y-102540000D01*
X96070000Y-97400000D02*
X90070000Y-97400000D01*
X99127071Y-102540000D02*
X98730000Y-102540000D01*
X96070000Y-102540000D02*
X90070000Y-102540000D01*
X101667071Y-96700000D02*
X101212929Y-96700000D01*
X101667071Y-99240000D02*
X101212929Y-99240000D01*
X101600000Y-110160000D02*
X101212929Y-110160000D01*
X96070000Y-96920000D02*
X90070000Y-96920000D01*
X99127071Y-105080000D02*
X98730000Y-105080000D01*
X90070000Y-97460000D02*
X90070000Y-96700000D01*
X90070000Y-106860000D02*
X96070000Y-106860000D01*
X98730000Y-111110000D02*
X98730000Y-95750000D01*
X96070000Y-107620000D02*
X90070000Y-107620000D01*
X99127071Y-101780000D02*
X98730000Y-101780000D01*
X101667071Y-101780000D02*
X101212929Y-101780000D01*
X99127071Y-100000000D02*
X98730000Y-100000000D01*
X96070000Y-97160000D02*
X90070000Y-97160000D01*
X99127071Y-104320000D02*
X98730000Y-104320000D01*
X101667071Y-106860000D02*
X101212929Y-106860000D01*
X90070000Y-99240000D02*
X96070000Y-99240000D01*
X98730000Y-103430000D02*
X96070000Y-103430000D01*
X96070000Y-110160000D02*
X90070000Y-110160000D01*
X96070000Y-97040000D02*
X90070000Y-97040000D01*
X99127071Y-107620000D02*
X98730000Y-107620000D01*
X96070000Y-95750000D02*
X96070000Y-111110000D01*
X96070000Y-100000000D02*
X90070000Y-100000000D01*
X96070000Y-111110000D02*
X98730000Y-111110000D01*
X98730000Y-108510000D02*
X96070000Y-108510000D01*
X90070000Y-101780000D02*
X96070000Y-101780000D01*
X101667071Y-105080000D02*
X101212929Y-105080000D01*
X101667071Y-100000000D02*
X101212929Y-100000000D01*
X98730000Y-100890000D02*
X96070000Y-100890000D01*
X103980000Y-95810000D02*
X103980000Y-97080000D01*
X99127071Y-99240000D02*
X98730000Y-99240000D01*
X99127071Y-96700000D02*
X98730000Y-96700000D01*
X90070000Y-110160000D02*
X90070000Y-109400000D01*
X101667071Y-104320000D02*
X101212929Y-104320000D01*
X90070000Y-100000000D02*
X90070000Y-99240000D01*
X98730000Y-98350000D02*
X96070000Y-98350000D01*
X101667071Y-107620000D02*
X101212929Y-107620000D01*
X102710000Y-95810000D02*
X103980000Y-95810000D01*
X96070000Y-105080000D02*
X90070000Y-105080000D01*
X96070000Y-96800000D02*
X90070000Y-96800000D01*
X99127071Y-106860000D02*
X98730000Y-106860000D01*
X101667071Y-97460000D02*
X101212929Y-97460000D01*
X99127071Y-97460000D02*
X98730000Y-97460000D01*
X96070000Y-97280000D02*
X90070000Y-97280000D01*
X90070000Y-107620000D02*
X90070000Y-106860000D01*
X99127071Y-109400000D02*
X98730000Y-109400000D01*
X98730000Y-95750000D02*
X96070000Y-95750000D01*
X90070000Y-102540000D02*
X90070000Y-101780000D01*
X90070000Y-109400000D02*
X96070000Y-109400000D01*
X101600000Y-109400000D02*
X101212929Y-109400000D01*
X96070000Y-97460000D02*
X90070000Y-97460000D01*
X90070000Y-96700000D02*
X96070000Y-96700000D01*
X99127071Y-110160000D02*
X98730000Y-110160000D01*
X98730000Y-105970000D02*
X96070000Y-105970000D01*
X90070000Y-105080000D02*
X90070000Y-104320000D01*
X90070000Y-104320000D02*
X96070000Y-104320000D01*
%TO.C,D07*%
X120260000Y-89210000D02*
X123120000Y-89210000D01*
X123120000Y-89210000D02*
X123120000Y-87290000D01*
X123120000Y-87290000D02*
X120260000Y-87290000D01*
%TO.C,R14*%
X112332936Y-106485000D02*
X112787064Y-106485000D01*
X112332936Y-105015000D02*
X112787064Y-105015000D01*
%TO.C,D11*%
X123120000Y-99210000D02*
X123120000Y-97290000D01*
X120260000Y-99210000D02*
X123120000Y-99210000D01*
X123120000Y-97290000D02*
X120260000Y-97290000D01*
%TO.C,R9*%
X112332936Y-93985000D02*
X112787064Y-93985000D01*
X112332936Y-92515000D02*
X112787064Y-92515000D01*
%TO.C,R4*%
X112332936Y-80015000D02*
X112787064Y-80015000D01*
X112332936Y-81485000D02*
X112787064Y-81485000D01*
%TO.C,D10*%
X120260000Y-96710000D02*
X123120000Y-96710000D01*
X123120000Y-94790000D02*
X120260000Y-94790000D01*
X123120000Y-96710000D02*
X123120000Y-94790000D01*
%TO.C,D12*%
X123120000Y-101710000D02*
X123120000Y-99790000D01*
X123120000Y-99790000D02*
X120260000Y-99790000D01*
X120260000Y-101710000D02*
X123120000Y-101710000D01*
%TO.C,D05*%
X120260000Y-84210000D02*
X123120000Y-84210000D01*
X123120000Y-82290000D02*
X120260000Y-82290000D01*
X123120000Y-84210000D02*
X123120000Y-82290000D01*
%TD*%
M02*
