%TF.GenerationSoftware,KiCad,Pcbnew,6.0.4-6f826c9f35~116~ubuntu20.04.1*%
%TF.CreationDate,2022-04-18T14:08:09+07:00*%
%TF.ProjectId,pmod-thin-16-leds,706d6f64-2d74-4686-996e-2d31362d6c65,1.0*%
%TF.SameCoordinates,Original*%
%TF.FileFunction,Legend,Bot*%
%TF.FilePolarity,Positive*%
%FSLAX46Y46*%
G04 Gerber Fmt 4.6, Leading zero omitted, Abs format (unit mm)*
G04 Created by KiCad (PCBNEW 6.0.4-6f826c9f35~116~ubuntu20.04.1) date 2022-04-18 14:08:09*
%MOMM*%
%LPD*%
G01*
G04 APERTURE LIST*
%ADD10C,0.150000*%
%ADD11C,0.010000*%
G04 APERTURE END LIST*
D10*
X106081904Y-94207142D02*
X106129523Y-94254761D01*
X106272380Y-94302380D01*
X106367619Y-94302380D01*
X106510476Y-94254761D01*
X106605714Y-94159523D01*
X106653333Y-94064285D01*
X106700952Y-93873809D01*
X106700952Y-93730952D01*
X106653333Y-93540476D01*
X106605714Y-93445238D01*
X106510476Y-93350000D01*
X106367619Y-93302380D01*
X106272380Y-93302380D01*
X106129523Y-93350000D01*
X106081904Y-93397619D01*
X105081904Y-94207142D02*
X105129523Y-94254761D01*
X105272380Y-94302380D01*
X105367619Y-94302380D01*
X105510476Y-94254761D01*
X105605714Y-94159523D01*
X105653333Y-94064285D01*
X105700952Y-93873809D01*
X105700952Y-93730952D01*
X105653333Y-93540476D01*
X105605714Y-93445238D01*
X105510476Y-93350000D01*
X105367619Y-93302380D01*
X105272380Y-93302380D01*
X105129523Y-93350000D01*
X105081904Y-93397619D01*
X104653333Y-93921428D02*
X103891428Y-93921428D01*
X103081904Y-93778571D02*
X102939047Y-93826190D01*
X102891428Y-93873809D01*
X102843809Y-93969047D01*
X102843809Y-94111904D01*
X102891428Y-94207142D01*
X102939047Y-94254761D01*
X103034285Y-94302380D01*
X103415238Y-94302380D01*
X103415238Y-93302380D01*
X103081904Y-93302380D01*
X102986666Y-93350000D01*
X102939047Y-93397619D01*
X102891428Y-93492857D01*
X102891428Y-93588095D01*
X102939047Y-93683333D01*
X102986666Y-93730952D01*
X103081904Y-93778571D01*
X103415238Y-93778571D01*
X102224761Y-93826190D02*
X102224761Y-94302380D01*
X102558095Y-93302380D02*
X102224761Y-93826190D01*
X101891428Y-93302380D01*
X101558095Y-93921428D02*
X100796190Y-93921428D01*
X100367619Y-94254761D02*
X100224761Y-94302380D01*
X99986666Y-94302380D01*
X99891428Y-94254761D01*
X99843809Y-94207142D01*
X99796190Y-94111904D01*
X99796190Y-94016666D01*
X99843809Y-93921428D01*
X99891428Y-93873809D01*
X99986666Y-93826190D01*
X100177142Y-93778571D01*
X100272380Y-93730952D01*
X100320000Y-93683333D01*
X100367619Y-93588095D01*
X100367619Y-93492857D01*
X100320000Y-93397619D01*
X100272380Y-93350000D01*
X100177142Y-93302380D01*
X99939047Y-93302380D01*
X99796190Y-93350000D01*
X99415238Y-94016666D02*
X98939047Y-94016666D01*
X99510476Y-94302380D02*
X99177142Y-93302380D01*
X98843809Y-94302380D01*
%TO.C,REF\u002A\u002A*%
G36*
X116828711Y-89062033D02*
G01*
X116924268Y-89079523D01*
X117088558Y-89124564D01*
X117242589Y-89187656D01*
X117388509Y-89269915D01*
X117528466Y-89372457D01*
X117664608Y-89496399D01*
X117708473Y-89541661D01*
X117820758Y-89673865D01*
X117913972Y-89811832D01*
X117990719Y-89959750D01*
X118053603Y-90121803D01*
X118057420Y-90133391D01*
X118107507Y-90319392D01*
X118140899Y-90515521D01*
X118157584Y-90717568D01*
X118157551Y-90921325D01*
X118140791Y-91122581D01*
X118107292Y-91317128D01*
X118057044Y-91500756D01*
X118013190Y-91618053D01*
X117935348Y-91780951D01*
X117841828Y-91934866D01*
X117734822Y-92076671D01*
X117616519Y-92203239D01*
X117489111Y-92311441D01*
X117411606Y-92364120D01*
X117284725Y-92433750D01*
X117147243Y-92492468D01*
X117005716Y-92537587D01*
X116866702Y-92566422D01*
X116852597Y-92568106D01*
X116809153Y-92571434D01*
X116751723Y-92574275D01*
X116686122Y-92576373D01*
X116618167Y-92577468D01*
X116491378Y-92575140D01*
X116343673Y-92562136D01*
X116205779Y-92537133D01*
X116072014Y-92499318D01*
X116048562Y-92490889D01*
X116000612Y-92471408D01*
X115944140Y-92446473D01*
X115882379Y-92417722D01*
X115818563Y-92386790D01*
X115755926Y-92355315D01*
X115697703Y-92324934D01*
X115647127Y-92297283D01*
X115607433Y-92273999D01*
X115581854Y-92256718D01*
X115573625Y-92247079D01*
X115575076Y-92243984D01*
X115586250Y-92224079D01*
X115607134Y-92188420D01*
X115636265Y-92139459D01*
X115672181Y-92079646D01*
X115713420Y-92011433D01*
X115758517Y-91937271D01*
X115939785Y-91640008D01*
X115986315Y-91684539D01*
X116077723Y-91762865D01*
X116191334Y-91837439D01*
X116309122Y-91891474D01*
X116429559Y-91924290D01*
X116551117Y-91935211D01*
X116592585Y-91933868D01*
X116710080Y-91915612D01*
X116820089Y-91876617D01*
X116921430Y-91817670D01*
X117012921Y-91739557D01*
X117093380Y-91643064D01*
X117161627Y-91528978D01*
X117177908Y-91494724D01*
X117223982Y-91371240D01*
X117259106Y-91232918D01*
X117283197Y-91083561D01*
X117296173Y-90926973D01*
X117297949Y-90766956D01*
X117288443Y-90607314D01*
X117267572Y-90451850D01*
X117235252Y-90304366D01*
X117191399Y-90168667D01*
X117153982Y-90082076D01*
X117089185Y-89968688D01*
X117013772Y-89875070D01*
X116927418Y-89800959D01*
X116829795Y-89746094D01*
X116720577Y-89710212D01*
X116599439Y-89693051D01*
X116530038Y-89691880D01*
X116407168Y-89706141D01*
X116291664Y-89741241D01*
X116184953Y-89796682D01*
X116088464Y-89871964D01*
X116072720Y-89886440D01*
X116042150Y-89912962D01*
X116019809Y-89930138D01*
X116009691Y-89934787D01*
X116007706Y-89932597D01*
X115993241Y-89913721D01*
X115969400Y-89880397D01*
X115938029Y-89835380D01*
X115900974Y-89781425D01*
X115860083Y-89721285D01*
X115817202Y-89657718D01*
X115774178Y-89593476D01*
X115732857Y-89531315D01*
X115695086Y-89473991D01*
X115662712Y-89424257D01*
X115637582Y-89384868D01*
X115621542Y-89358580D01*
X115616439Y-89348147D01*
X115621050Y-89343941D01*
X115640267Y-89338933D01*
X115649838Y-89336386D01*
X115677809Y-89325249D01*
X115719448Y-89306802D01*
X115770995Y-89282725D01*
X115828690Y-89254699D01*
X115839957Y-89249154D01*
X116017687Y-89169889D01*
X116187490Y-89110385D01*
X116351430Y-89070245D01*
X116511571Y-89049071D01*
X116669977Y-89046466D01*
X116828711Y-89062033D01*
G37*
D11*
X116828711Y-89062033D02*
X116924268Y-89079523D01*
X117088558Y-89124564D01*
X117242589Y-89187656D01*
X117388509Y-89269915D01*
X117528466Y-89372457D01*
X117664608Y-89496399D01*
X117708473Y-89541661D01*
X117820758Y-89673865D01*
X117913972Y-89811832D01*
X117990719Y-89959750D01*
X118053603Y-90121803D01*
X118057420Y-90133391D01*
X118107507Y-90319392D01*
X118140899Y-90515521D01*
X118157584Y-90717568D01*
X118157551Y-90921325D01*
X118140791Y-91122581D01*
X118107292Y-91317128D01*
X118057044Y-91500756D01*
X118013190Y-91618053D01*
X117935348Y-91780951D01*
X117841828Y-91934866D01*
X117734822Y-92076671D01*
X117616519Y-92203239D01*
X117489111Y-92311441D01*
X117411606Y-92364120D01*
X117284725Y-92433750D01*
X117147243Y-92492468D01*
X117005716Y-92537587D01*
X116866702Y-92566422D01*
X116852597Y-92568106D01*
X116809153Y-92571434D01*
X116751723Y-92574275D01*
X116686122Y-92576373D01*
X116618167Y-92577468D01*
X116491378Y-92575140D01*
X116343673Y-92562136D01*
X116205779Y-92537133D01*
X116072014Y-92499318D01*
X116048562Y-92490889D01*
X116000612Y-92471408D01*
X115944140Y-92446473D01*
X115882379Y-92417722D01*
X115818563Y-92386790D01*
X115755926Y-92355315D01*
X115697703Y-92324934D01*
X115647127Y-92297283D01*
X115607433Y-92273999D01*
X115581854Y-92256718D01*
X115573625Y-92247079D01*
X115575076Y-92243984D01*
X115586250Y-92224079D01*
X115607134Y-92188420D01*
X115636265Y-92139459D01*
X115672181Y-92079646D01*
X115713420Y-92011433D01*
X115758517Y-91937271D01*
X115939785Y-91640008D01*
X115986315Y-91684539D01*
X116077723Y-91762865D01*
X116191334Y-91837439D01*
X116309122Y-91891474D01*
X116429559Y-91924290D01*
X116551117Y-91935211D01*
X116592585Y-91933868D01*
X116710080Y-91915612D01*
X116820089Y-91876617D01*
X116921430Y-91817670D01*
X117012921Y-91739557D01*
X117093380Y-91643064D01*
X117161627Y-91528978D01*
X117177908Y-91494724D01*
X117223982Y-91371240D01*
X117259106Y-91232918D01*
X117283197Y-91083561D01*
X117296173Y-90926973D01*
X117297949Y-90766956D01*
X117288443Y-90607314D01*
X117267572Y-90451850D01*
X117235252Y-90304366D01*
X117191399Y-90168667D01*
X117153982Y-90082076D01*
X117089185Y-89968688D01*
X117013772Y-89875070D01*
X116927418Y-89800959D01*
X116829795Y-89746094D01*
X116720577Y-89710212D01*
X116599439Y-89693051D01*
X116530038Y-89691880D01*
X116407168Y-89706141D01*
X116291664Y-89741241D01*
X116184953Y-89796682D01*
X116088464Y-89871964D01*
X116072720Y-89886440D01*
X116042150Y-89912962D01*
X116019809Y-89930138D01*
X116009691Y-89934787D01*
X116007706Y-89932597D01*
X115993241Y-89913721D01*
X115969400Y-89880397D01*
X115938029Y-89835380D01*
X115900974Y-89781425D01*
X115860083Y-89721285D01*
X115817202Y-89657718D01*
X115774178Y-89593476D01*
X115732857Y-89531315D01*
X115695086Y-89473991D01*
X115662712Y-89424257D01*
X115637582Y-89384868D01*
X115621542Y-89358580D01*
X115616439Y-89348147D01*
X115621050Y-89343941D01*
X115640267Y-89338933D01*
X115649838Y-89336386D01*
X115677809Y-89325249D01*
X115719448Y-89306802D01*
X115770995Y-89282725D01*
X115828690Y-89254699D01*
X115839957Y-89249154D01*
X116017687Y-89169889D01*
X116187490Y-89110385D01*
X116351430Y-89070245D01*
X116511571Y-89049071D01*
X116669977Y-89046466D01*
X116828711Y-89062033D01*
G36*
X112695406Y-93374949D02*
G01*
X112721127Y-93390647D01*
X112747778Y-93412227D01*
X112747778Y-94059684D01*
X112721127Y-94081264D01*
X112689767Y-94098739D01*
X112653966Y-94099575D01*
X112622528Y-94079082D01*
X112618652Y-94074416D01*
X112613186Y-94064949D01*
X112608979Y-94051267D01*
X112605867Y-94030748D01*
X112603687Y-94000768D01*
X112602276Y-93958704D01*
X112601471Y-93901932D01*
X112601107Y-93827830D01*
X112601022Y-93733773D01*
X112601022Y-93412227D01*
X112627673Y-93390647D01*
X112651386Y-93375877D01*
X112674400Y-93369067D01*
X112695406Y-93374949D01*
G37*
X112695406Y-93374949D02*
X112721127Y-93390647D01*
X112747778Y-93412227D01*
X112747778Y-94059684D01*
X112721127Y-94081264D01*
X112689767Y-94098739D01*
X112653966Y-94099575D01*
X112622528Y-94079082D01*
X112618652Y-94074416D01*
X112613186Y-94064949D01*
X112608979Y-94051267D01*
X112605867Y-94030748D01*
X112603687Y-94000768D01*
X112602276Y-93958704D01*
X112601471Y-93901932D01*
X112601107Y-93827830D01*
X112601022Y-93733773D01*
X112601022Y-93412227D01*
X112627673Y-93390647D01*
X112651386Y-93375877D01*
X112674400Y-93369067D01*
X112695406Y-93374949D01*
G36*
X121696734Y-93369083D02*
G01*
X121773831Y-93369275D01*
X121832777Y-93369860D01*
X121876364Y-93371051D01*
X121907383Y-93373064D01*
X121928625Y-93376112D01*
X121942882Y-93380409D01*
X121952945Y-93386172D01*
X121961606Y-93393612D01*
X121963391Y-93395293D01*
X121970635Y-93402832D01*
X121976277Y-93411850D01*
X121980517Y-93424984D01*
X121983556Y-93444872D01*
X121985594Y-93474151D01*
X121986830Y-93515458D01*
X121987465Y-93571431D01*
X121987700Y-93644707D01*
X121987734Y-93737923D01*
X121987697Y-93810713D01*
X121987448Y-93888889D01*
X121986812Y-93949103D01*
X121985615Y-93993982D01*
X121983684Y-94026152D01*
X121980846Y-94048239D01*
X121976927Y-94062870D01*
X121971755Y-94072670D01*
X121965156Y-94080267D01*
X121961822Y-94083444D01*
X121953300Y-94089554D01*
X121941298Y-94094229D01*
X121923087Y-94097659D01*
X121895940Y-94100036D01*
X121857129Y-94101552D01*
X121803924Y-94102398D01*
X121733598Y-94102765D01*
X121643422Y-94102845D01*
X121601314Y-94102833D01*
X121520167Y-94102651D01*
X121457675Y-94102098D01*
X121411109Y-94100982D01*
X121377741Y-94099113D01*
X121354844Y-94096298D01*
X121339688Y-94092346D01*
X121329546Y-94087066D01*
X121321689Y-94080267D01*
X121306963Y-94058667D01*
X121299111Y-94029467D01*
X121304610Y-94005560D01*
X121321689Y-93978667D01*
X121326668Y-93974059D01*
X121336443Y-93967772D01*
X121350559Y-93963146D01*
X121372054Y-93959930D01*
X121403968Y-93957870D01*
X121449342Y-93956712D01*
X121511213Y-93956202D01*
X121592622Y-93956089D01*
X121840978Y-93956089D01*
X121840978Y-93798045D01*
X121679801Y-93798045D01*
X121643983Y-93797899D01*
X121578359Y-93796176D01*
X121531118Y-93791741D01*
X121499383Y-93783637D01*
X121480277Y-93770906D01*
X121470923Y-93752592D01*
X121468445Y-93727738D01*
X121469242Y-93707482D01*
X121474494Y-93685656D01*
X121487288Y-93670304D01*
X121510628Y-93660309D01*
X121547517Y-93654553D01*
X121600959Y-93651919D01*
X121673958Y-93651289D01*
X121842105Y-93651289D01*
X121838719Y-93586378D01*
X121835334Y-93521467D01*
X121587617Y-93518418D01*
X121525026Y-93517539D01*
X121456565Y-93516095D01*
X121405661Y-93514164D01*
X121369408Y-93511514D01*
X121344901Y-93507910D01*
X121329235Y-93503121D01*
X121319506Y-93496913D01*
X121313491Y-93490510D01*
X121300482Y-93458828D01*
X121304043Y-93423142D01*
X121323818Y-93392084D01*
X121327069Y-93389161D01*
X121336049Y-93382810D01*
X121348153Y-93377957D01*
X121366159Y-93374403D01*
X121392847Y-93371946D01*
X121430997Y-93370385D01*
X121483386Y-93369518D01*
X121552794Y-93369146D01*
X121642001Y-93369067D01*
X121696734Y-93369083D01*
G37*
X121696734Y-93369083D02*
X121773831Y-93369275D01*
X121832777Y-93369860D01*
X121876364Y-93371051D01*
X121907383Y-93373064D01*
X121928625Y-93376112D01*
X121942882Y-93380409D01*
X121952945Y-93386172D01*
X121961606Y-93393612D01*
X121963391Y-93395293D01*
X121970635Y-93402832D01*
X121976277Y-93411850D01*
X121980517Y-93424984D01*
X121983556Y-93444872D01*
X121985594Y-93474151D01*
X121986830Y-93515458D01*
X121987465Y-93571431D01*
X121987700Y-93644707D01*
X121987734Y-93737923D01*
X121987697Y-93810713D01*
X121987448Y-93888889D01*
X121986812Y-93949103D01*
X121985615Y-93993982D01*
X121983684Y-94026152D01*
X121980846Y-94048239D01*
X121976927Y-94062870D01*
X121971755Y-94072670D01*
X121965156Y-94080267D01*
X121961822Y-94083444D01*
X121953300Y-94089554D01*
X121941298Y-94094229D01*
X121923087Y-94097659D01*
X121895940Y-94100036D01*
X121857129Y-94101552D01*
X121803924Y-94102398D01*
X121733598Y-94102765D01*
X121643422Y-94102845D01*
X121601314Y-94102833D01*
X121520167Y-94102651D01*
X121457675Y-94102098D01*
X121411109Y-94100982D01*
X121377741Y-94099113D01*
X121354844Y-94096298D01*
X121339688Y-94092346D01*
X121329546Y-94087066D01*
X121321689Y-94080267D01*
X121306963Y-94058667D01*
X121299111Y-94029467D01*
X121304610Y-94005560D01*
X121321689Y-93978667D01*
X121326668Y-93974059D01*
X121336443Y-93967772D01*
X121350559Y-93963146D01*
X121372054Y-93959930D01*
X121403968Y-93957870D01*
X121449342Y-93956712D01*
X121511213Y-93956202D01*
X121592622Y-93956089D01*
X121840978Y-93956089D01*
X121840978Y-93798045D01*
X121679801Y-93798045D01*
X121643983Y-93797899D01*
X121578359Y-93796176D01*
X121531118Y-93791741D01*
X121499383Y-93783637D01*
X121480277Y-93770906D01*
X121470923Y-93752592D01*
X121468445Y-93727738D01*
X121469242Y-93707482D01*
X121474494Y-93685656D01*
X121487288Y-93670304D01*
X121510628Y-93660309D01*
X121547517Y-93654553D01*
X121600959Y-93651919D01*
X121673958Y-93651289D01*
X121842105Y-93651289D01*
X121838719Y-93586378D01*
X121835334Y-93521467D01*
X121587617Y-93518418D01*
X121525026Y-93517539D01*
X121456565Y-93516095D01*
X121405661Y-93514164D01*
X121369408Y-93511514D01*
X121344901Y-93507910D01*
X121329235Y-93503121D01*
X121319506Y-93496913D01*
X121313491Y-93490510D01*
X121300482Y-93458828D01*
X121304043Y-93423142D01*
X121323818Y-93392084D01*
X121327069Y-93389161D01*
X121336049Y-93382810D01*
X121348153Y-93377957D01*
X121366159Y-93374403D01*
X121392847Y-93371946D01*
X121430997Y-93370385D01*
X121483386Y-93369518D01*
X121552794Y-93369146D01*
X121642001Y-93369067D01*
X121696734Y-93369083D01*
G36*
X123116059Y-89343011D02*
G01*
X123116362Y-89490216D01*
X123116548Y-89654349D01*
X123116642Y-89836352D01*
X123116671Y-90037165D01*
X123116661Y-90257732D01*
X123116636Y-90498992D01*
X123116622Y-90761889D01*
X123116622Y-90804040D01*
X123116646Y-91064668D01*
X123116685Y-91303796D01*
X123116708Y-91522360D01*
X123116687Y-91721295D01*
X123116593Y-91901535D01*
X123116395Y-92064015D01*
X123116063Y-92209670D01*
X123115569Y-92339434D01*
X123114883Y-92454243D01*
X123113976Y-92555030D01*
X123112817Y-92642730D01*
X123111378Y-92718279D01*
X123109629Y-92782611D01*
X123107540Y-92836661D01*
X123105083Y-92881363D01*
X123102227Y-92917652D01*
X123098943Y-92946463D01*
X123095202Y-92968731D01*
X123090974Y-92985390D01*
X123086229Y-92997375D01*
X123080939Y-93005621D01*
X123075073Y-93011062D01*
X123068602Y-93014634D01*
X123061497Y-93017270D01*
X123053728Y-93019906D01*
X123045266Y-93023477D01*
X123040908Y-93025145D01*
X123032395Y-93027111D01*
X123019694Y-93028911D01*
X123001885Y-93030555D01*
X122978049Y-93032047D01*
X122947266Y-93033397D01*
X122908617Y-93034611D01*
X122861182Y-93035697D01*
X122804043Y-93036661D01*
X122736279Y-93037511D01*
X122656971Y-93038253D01*
X122565199Y-93038897D01*
X122460044Y-93039447D01*
X122340587Y-93039913D01*
X122205908Y-93040300D01*
X122055088Y-93040616D01*
X121887206Y-93040869D01*
X121701345Y-93041066D01*
X121496583Y-93041213D01*
X121272002Y-93041318D01*
X121026682Y-93041389D01*
X120759704Y-93041432D01*
X120721321Y-93041437D01*
X120455922Y-93041480D01*
X120212050Y-93041525D01*
X119988783Y-93041548D01*
X119785196Y-93041524D01*
X119600367Y-93041430D01*
X119433373Y-93041243D01*
X119283290Y-93040939D01*
X119149196Y-93040494D01*
X119030166Y-93039885D01*
X118925279Y-93039089D01*
X118833610Y-93038080D01*
X118754237Y-93036837D01*
X118686237Y-93035335D01*
X118628686Y-93033551D01*
X118580662Y-93031461D01*
X118541240Y-93029042D01*
X118509499Y-93026270D01*
X118484514Y-93023121D01*
X118465364Y-93019572D01*
X118451123Y-93015598D01*
X118440871Y-93011178D01*
X118433682Y-93006286D01*
X118428635Y-93000900D01*
X118424805Y-92994996D01*
X118421271Y-92988549D01*
X118417108Y-92981537D01*
X118416025Y-92979687D01*
X118413813Y-92974180D01*
X118411786Y-92965868D01*
X118409938Y-92953809D01*
X118408261Y-92937063D01*
X118406745Y-92914687D01*
X118405383Y-92885740D01*
X118404167Y-92849280D01*
X118403089Y-92804367D01*
X118402140Y-92750057D01*
X118401312Y-92685410D01*
X118400597Y-92609484D01*
X118399987Y-92521338D01*
X118399942Y-92512493D01*
X118691378Y-92512493D01*
X118695260Y-92513765D01*
X118718520Y-92515791D01*
X118760874Y-92517626D01*
X118820132Y-92519227D01*
X118894107Y-92520549D01*
X118980610Y-92521548D01*
X119077452Y-92522180D01*
X119182445Y-92522400D01*
X119880651Y-92522400D01*
X121035090Y-92522400D01*
X121034456Y-92446200D01*
X121035574Y-92404160D01*
X121041304Y-92368334D01*
X121053890Y-92330772D01*
X121075568Y-92282577D01*
X121078789Y-92275897D01*
X121104188Y-92226359D01*
X121130996Y-92178369D01*
X121153917Y-92141466D01*
X121158485Y-92134834D01*
X121180516Y-92103593D01*
X121212693Y-92058654D01*
X121253457Y-92002147D01*
X121301245Y-91936204D01*
X121354498Y-91862957D01*
X121411655Y-91784536D01*
X121471155Y-91703072D01*
X121531437Y-91620698D01*
X121590940Y-91539544D01*
X121648105Y-91461742D01*
X121701370Y-91389423D01*
X121749174Y-91324718D01*
X121789957Y-91269759D01*
X121822158Y-91226676D01*
X121844216Y-91197602D01*
X121854571Y-91184667D01*
X121859044Y-91180351D01*
X121863236Y-91178312D01*
X121866643Y-91180926D01*
X121869325Y-91189986D01*
X121871341Y-91207285D01*
X121872748Y-91234614D01*
X121873605Y-91273765D01*
X121873970Y-91326533D01*
X121873903Y-91394707D01*
X121873460Y-91480082D01*
X121872702Y-91584449D01*
X121871685Y-91709600D01*
X121871308Y-91754300D01*
X121870169Y-91875395D01*
X121868972Y-91976688D01*
X121867636Y-92060262D01*
X121866077Y-92128204D01*
X121864215Y-92182599D01*
X121861966Y-92225532D01*
X121859248Y-92259089D01*
X121855979Y-92285355D01*
X121852078Y-92306416D01*
X121847461Y-92324357D01*
X121839192Y-92350770D01*
X121815583Y-92412772D01*
X121789685Y-92465573D01*
X121764535Y-92502645D01*
X121763339Y-92504075D01*
X121761168Y-92508424D01*
X121763328Y-92512026D01*
X121771644Y-92514951D01*
X121787940Y-92517269D01*
X121814041Y-92519051D01*
X121851771Y-92520367D01*
X121902956Y-92521286D01*
X121969420Y-92521878D01*
X122052987Y-92522215D01*
X122155483Y-92522365D01*
X122278732Y-92522400D01*
X122810296Y-92522400D01*
X122771523Y-92464783D01*
X122765432Y-92455893D01*
X122754976Y-92441069D01*
X122745579Y-92427422D01*
X122737183Y-92413765D01*
X122729733Y-92398911D01*
X122723173Y-92381670D01*
X122717446Y-92360855D01*
X122712495Y-92335280D01*
X122708266Y-92303755D01*
X122704701Y-92265093D01*
X122701744Y-92218107D01*
X122699340Y-92161608D01*
X122697431Y-92094409D01*
X122695962Y-92015322D01*
X122694876Y-91923160D01*
X122694118Y-91816734D01*
X122693630Y-91694857D01*
X122693358Y-91556341D01*
X122693243Y-91399999D01*
X122693231Y-91224642D01*
X122693265Y-91029082D01*
X122693289Y-90812133D01*
X122693280Y-90689513D01*
X122693243Y-90484447D01*
X122693227Y-90300116D01*
X122693288Y-90135334D01*
X122693484Y-89988916D01*
X122693870Y-89859674D01*
X122694505Y-89746422D01*
X122695444Y-89647975D01*
X122696745Y-89563144D01*
X122698464Y-89490744D01*
X122700659Y-89429589D01*
X122703385Y-89378492D01*
X122706701Y-89336267D01*
X122710662Y-89301727D01*
X122715325Y-89273686D01*
X122720747Y-89250958D01*
X122726986Y-89232356D01*
X122734097Y-89216693D01*
X122742138Y-89202784D01*
X122751166Y-89189441D01*
X122761236Y-89175479D01*
X122772407Y-89159711D01*
X122812197Y-89101867D01*
X121752314Y-89101867D01*
X121790311Y-89164966D01*
X121804993Y-89190005D01*
X121819531Y-89217586D01*
X121831627Y-89245700D01*
X121841532Y-89276551D01*
X121849494Y-89312344D01*
X121855761Y-89355283D01*
X121860582Y-89407574D01*
X121864206Y-89471419D01*
X121866881Y-89549025D01*
X121868857Y-89642594D01*
X121870382Y-89754333D01*
X121871704Y-89886445D01*
X121872613Y-90006434D01*
X121873020Y-90123063D01*
X121872767Y-90218531D01*
X121871857Y-90292556D01*
X121870293Y-90344855D01*
X121868079Y-90375149D01*
X121865220Y-90383156D01*
X121862161Y-90379858D01*
X121844006Y-90358408D01*
X121814275Y-90321889D01*
X121774639Y-90272442D01*
X121726771Y-90212207D01*
X121672343Y-90143327D01*
X121613027Y-90067943D01*
X121550495Y-89988196D01*
X121486421Y-89906228D01*
X121422475Y-89824180D01*
X121360331Y-89744194D01*
X121301661Y-89668411D01*
X121248137Y-89598973D01*
X121201430Y-89538021D01*
X121163214Y-89487696D01*
X121135161Y-89450140D01*
X121118943Y-89427495D01*
X121073635Y-89355212D01*
X121033661Y-89275463D01*
X121012130Y-89207188D01*
X121008827Y-89149844D01*
X121014116Y-89101867D01*
X119882356Y-89102117D01*
X119921867Y-89132722D01*
X119931248Y-89140089D01*
X119994183Y-89194438D01*
X120062997Y-89262259D01*
X120139596Y-89345516D01*
X120225888Y-89446178D01*
X120243052Y-89466847D01*
X120283833Y-89516409D01*
X120333588Y-89577326D01*
X120390955Y-89647898D01*
X120454569Y-89726424D01*
X120523069Y-89811204D01*
X120595090Y-89900537D01*
X120669270Y-89992722D01*
X120684517Y-90011702D01*
X120744246Y-90086060D01*
X120818653Y-90178848D01*
X120891131Y-90269388D01*
X120960314Y-90355978D01*
X121024841Y-90436918D01*
X121083347Y-90510506D01*
X121134470Y-90575044D01*
X121176847Y-90628829D01*
X121209115Y-90670162D01*
X121229910Y-90697342D01*
X121237869Y-90708668D01*
X121236111Y-90712771D01*
X121223230Y-90733334D01*
X121198885Y-90769561D01*
X121164247Y-90819824D01*
X121120486Y-90882492D01*
X121068775Y-90955936D01*
X121010284Y-91038527D01*
X120946184Y-91128636D01*
X120877646Y-91224631D01*
X120805843Y-91324885D01*
X120731944Y-91427768D01*
X120657121Y-91531650D01*
X120582545Y-91634901D01*
X120509387Y-91735892D01*
X120438819Y-91832994D01*
X120372011Y-91924577D01*
X120310135Y-92009011D01*
X120254361Y-92084667D01*
X120205862Y-92149916D01*
X120165807Y-92203128D01*
X120135369Y-92242673D01*
X120114944Y-92268026D01*
X120068899Y-92322295D01*
X120018612Y-92378775D01*
X119971815Y-92428669D01*
X119880651Y-92522400D01*
X119182445Y-92522400D01*
X119251356Y-92522349D01*
X119349607Y-92522091D01*
X119439030Y-92521637D01*
X119517333Y-92521010D01*
X119582223Y-92520235D01*
X119631411Y-92519335D01*
X119662604Y-92518334D01*
X119673511Y-92517257D01*
X119672322Y-92514037D01*
X119662176Y-92496452D01*
X119645040Y-92470158D01*
X119636540Y-92457691D01*
X119627329Y-92443622D01*
X119619233Y-92429351D01*
X119612185Y-92413479D01*
X119606117Y-92394609D01*
X119600961Y-92371341D01*
X119596651Y-92342278D01*
X119593119Y-92306021D01*
X119590297Y-92261170D01*
X119588118Y-92206328D01*
X119586514Y-92140097D01*
X119585419Y-92061077D01*
X119584765Y-91967871D01*
X119584484Y-91859079D01*
X119584509Y-91733303D01*
X119584772Y-91589145D01*
X119585206Y-91425207D01*
X119585745Y-91240089D01*
X119586279Y-91061232D01*
X119586805Y-90902374D01*
X119587350Y-90763316D01*
X119587945Y-90642665D01*
X119588619Y-90539028D01*
X119589403Y-90451011D01*
X119590326Y-90377223D01*
X119591419Y-90316269D01*
X119592712Y-90266757D01*
X119594235Y-90227293D01*
X119596019Y-90196484D01*
X119598092Y-90172938D01*
X119600486Y-90155260D01*
X119603230Y-90142059D01*
X119606356Y-90131940D01*
X119609892Y-90123511D01*
X119613791Y-90115375D01*
X119633438Y-90078544D01*
X119652225Y-90048391D01*
X119653272Y-90046908D01*
X119667602Y-90024659D01*
X119673511Y-90011702D01*
X119672504Y-90011249D01*
X119655305Y-90009803D01*
X119618656Y-90008480D01*
X119564962Y-90007316D01*
X119496630Y-90006347D01*
X119416064Y-90005611D01*
X119325670Y-90005142D01*
X119227853Y-90004978D01*
X118782195Y-90004978D01*
X118779120Y-91181845D01*
X118776045Y-92358711D01*
X118749407Y-92417622D01*
X118737485Y-92442183D01*
X118720246Y-92472434D01*
X118707074Y-92489560D01*
X118699076Y-92497591D01*
X118691378Y-92512493D01*
X118399942Y-92512493D01*
X118399474Y-92420029D01*
X118399050Y-92304617D01*
X118398706Y-92174160D01*
X118398434Y-92027716D01*
X118398227Y-91864344D01*
X118398076Y-91683101D01*
X118397972Y-91483048D01*
X118397908Y-91263241D01*
X118397876Y-91022739D01*
X118397867Y-90760602D01*
X118397867Y-88569031D01*
X118436249Y-88530649D01*
X118463355Y-88506911D01*
X118490253Y-88495111D01*
X118526560Y-88492267D01*
X118578489Y-88492267D01*
X118578489Y-88580206D01*
X118580427Y-88630102D01*
X118599199Y-88740523D01*
X118636217Y-88841987D01*
X118689369Y-88933152D01*
X118756546Y-89012673D01*
X118835638Y-89079205D01*
X118924534Y-89131406D01*
X119021125Y-89167930D01*
X119123300Y-89187434D01*
X119228950Y-89188573D01*
X119335964Y-89170005D01*
X119442232Y-89130384D01*
X119539219Y-89072516D01*
X119624293Y-88997684D01*
X119693015Y-88909615D01*
X119743918Y-88810616D01*
X119775535Y-88702993D01*
X119786400Y-88589054D01*
X119786400Y-88492267D01*
X121406753Y-88492267D01*
X121617897Y-88492280D01*
X121822020Y-88492330D01*
X122005686Y-88492430D01*
X122169991Y-88492592D01*
X122316029Y-88492829D01*
X122444894Y-88493153D01*
X122557683Y-88493575D01*
X122655488Y-88494109D01*
X122739404Y-88494767D01*
X122810527Y-88495561D01*
X122869950Y-88496504D01*
X122918768Y-88497608D01*
X122958077Y-88498884D01*
X122988969Y-88500347D01*
X123012541Y-88502007D01*
X123029886Y-88503878D01*
X123042099Y-88505972D01*
X123050275Y-88508300D01*
X123055508Y-88510876D01*
X123061504Y-88514445D01*
X123068279Y-88517978D01*
X123074478Y-88521488D01*
X123080126Y-88525918D01*
X123085247Y-88532208D01*
X123089869Y-88541301D01*
X123094015Y-88554139D01*
X123097713Y-88571662D01*
X123100987Y-88594813D01*
X123103863Y-88624534D01*
X123106367Y-88661765D01*
X123108524Y-88707449D01*
X123110360Y-88762527D01*
X123111900Y-88827941D01*
X123113170Y-88904633D01*
X123114195Y-88993544D01*
X123115001Y-89095617D01*
X123115034Y-89101867D01*
X123115614Y-89211792D01*
X123116059Y-89343011D01*
G37*
X123116059Y-89343011D02*
X123116362Y-89490216D01*
X123116548Y-89654349D01*
X123116642Y-89836352D01*
X123116671Y-90037165D01*
X123116661Y-90257732D01*
X123116636Y-90498992D01*
X123116622Y-90761889D01*
X123116622Y-90804040D01*
X123116646Y-91064668D01*
X123116685Y-91303796D01*
X123116708Y-91522360D01*
X123116687Y-91721295D01*
X123116593Y-91901535D01*
X123116395Y-92064015D01*
X123116063Y-92209670D01*
X123115569Y-92339434D01*
X123114883Y-92454243D01*
X123113976Y-92555030D01*
X123112817Y-92642730D01*
X123111378Y-92718279D01*
X123109629Y-92782611D01*
X123107540Y-92836661D01*
X123105083Y-92881363D01*
X123102227Y-92917652D01*
X123098943Y-92946463D01*
X123095202Y-92968731D01*
X123090974Y-92985390D01*
X123086229Y-92997375D01*
X123080939Y-93005621D01*
X123075073Y-93011062D01*
X123068602Y-93014634D01*
X123061497Y-93017270D01*
X123053728Y-93019906D01*
X123045266Y-93023477D01*
X123040908Y-93025145D01*
X123032395Y-93027111D01*
X123019694Y-93028911D01*
X123001885Y-93030555D01*
X122978049Y-93032047D01*
X122947266Y-93033397D01*
X122908617Y-93034611D01*
X122861182Y-93035697D01*
X122804043Y-93036661D01*
X122736279Y-93037511D01*
X122656971Y-93038253D01*
X122565199Y-93038897D01*
X122460044Y-93039447D01*
X122340587Y-93039913D01*
X122205908Y-93040300D01*
X122055088Y-93040616D01*
X121887206Y-93040869D01*
X121701345Y-93041066D01*
X121496583Y-93041213D01*
X121272002Y-93041318D01*
X121026682Y-93041389D01*
X120759704Y-93041432D01*
X120721321Y-93041437D01*
X120455922Y-93041480D01*
X120212050Y-93041525D01*
X119988783Y-93041548D01*
X119785196Y-93041524D01*
X119600367Y-93041430D01*
X119433373Y-93041243D01*
X119283290Y-93040939D01*
X119149196Y-93040494D01*
X119030166Y-93039885D01*
X118925279Y-93039089D01*
X118833610Y-93038080D01*
X118754237Y-93036837D01*
X118686237Y-93035335D01*
X118628686Y-93033551D01*
X118580662Y-93031461D01*
X118541240Y-93029042D01*
X118509499Y-93026270D01*
X118484514Y-93023121D01*
X118465364Y-93019572D01*
X118451123Y-93015598D01*
X118440871Y-93011178D01*
X118433682Y-93006286D01*
X118428635Y-93000900D01*
X118424805Y-92994996D01*
X118421271Y-92988549D01*
X118417108Y-92981537D01*
X118416025Y-92979687D01*
X118413813Y-92974180D01*
X118411786Y-92965868D01*
X118409938Y-92953809D01*
X118408261Y-92937063D01*
X118406745Y-92914687D01*
X118405383Y-92885740D01*
X118404167Y-92849280D01*
X118403089Y-92804367D01*
X118402140Y-92750057D01*
X118401312Y-92685410D01*
X118400597Y-92609484D01*
X118399987Y-92521338D01*
X118399942Y-92512493D01*
X118691378Y-92512493D01*
X118695260Y-92513765D01*
X118718520Y-92515791D01*
X118760874Y-92517626D01*
X118820132Y-92519227D01*
X118894107Y-92520549D01*
X118980610Y-92521548D01*
X119077452Y-92522180D01*
X119182445Y-92522400D01*
X119880651Y-92522400D01*
X121035090Y-92522400D01*
X121034456Y-92446200D01*
X121035574Y-92404160D01*
X121041304Y-92368334D01*
X121053890Y-92330772D01*
X121075568Y-92282577D01*
X121078789Y-92275897D01*
X121104188Y-92226359D01*
X121130996Y-92178369D01*
X121153917Y-92141466D01*
X121158485Y-92134834D01*
X121180516Y-92103593D01*
X121212693Y-92058654D01*
X121253457Y-92002147D01*
X121301245Y-91936204D01*
X121354498Y-91862957D01*
X121411655Y-91784536D01*
X121471155Y-91703072D01*
X121531437Y-91620698D01*
X121590940Y-91539544D01*
X121648105Y-91461742D01*
X121701370Y-91389423D01*
X121749174Y-91324718D01*
X121789957Y-91269759D01*
X121822158Y-91226676D01*
X121844216Y-91197602D01*
X121854571Y-91184667D01*
X121859044Y-91180351D01*
X121863236Y-91178312D01*
X121866643Y-91180926D01*
X121869325Y-91189986D01*
X121871341Y-91207285D01*
X121872748Y-91234614D01*
X121873605Y-91273765D01*
X121873970Y-91326533D01*
X121873903Y-91394707D01*
X121873460Y-91480082D01*
X121872702Y-91584449D01*
X121871685Y-91709600D01*
X121871308Y-91754300D01*
X121870169Y-91875395D01*
X121868972Y-91976688D01*
X121867636Y-92060262D01*
X121866077Y-92128204D01*
X121864215Y-92182599D01*
X121861966Y-92225532D01*
X121859248Y-92259089D01*
X121855979Y-92285355D01*
X121852078Y-92306416D01*
X121847461Y-92324357D01*
X121839192Y-92350770D01*
X121815583Y-92412772D01*
X121789685Y-92465573D01*
X121764535Y-92502645D01*
X121763339Y-92504075D01*
X121761168Y-92508424D01*
X121763328Y-92512026D01*
X121771644Y-92514951D01*
X121787940Y-92517269D01*
X121814041Y-92519051D01*
X121851771Y-92520367D01*
X121902956Y-92521286D01*
X121969420Y-92521878D01*
X122052987Y-92522215D01*
X122155483Y-92522365D01*
X122278732Y-92522400D01*
X122810296Y-92522400D01*
X122771523Y-92464783D01*
X122765432Y-92455893D01*
X122754976Y-92441069D01*
X122745579Y-92427422D01*
X122737183Y-92413765D01*
X122729733Y-92398911D01*
X122723173Y-92381670D01*
X122717446Y-92360855D01*
X122712495Y-92335280D01*
X122708266Y-92303755D01*
X122704701Y-92265093D01*
X122701744Y-92218107D01*
X122699340Y-92161608D01*
X122697431Y-92094409D01*
X122695962Y-92015322D01*
X122694876Y-91923160D01*
X122694118Y-91816734D01*
X122693630Y-91694857D01*
X122693358Y-91556341D01*
X122693243Y-91399999D01*
X122693231Y-91224642D01*
X122693265Y-91029082D01*
X122693289Y-90812133D01*
X122693280Y-90689513D01*
X122693243Y-90484447D01*
X122693227Y-90300116D01*
X122693288Y-90135334D01*
X122693484Y-89988916D01*
X122693870Y-89859674D01*
X122694505Y-89746422D01*
X122695444Y-89647975D01*
X122696745Y-89563144D01*
X122698464Y-89490744D01*
X122700659Y-89429589D01*
X122703385Y-89378492D01*
X122706701Y-89336267D01*
X122710662Y-89301727D01*
X122715325Y-89273686D01*
X122720747Y-89250958D01*
X122726986Y-89232356D01*
X122734097Y-89216693D01*
X122742138Y-89202784D01*
X122751166Y-89189441D01*
X122761236Y-89175479D01*
X122772407Y-89159711D01*
X122812197Y-89101867D01*
X121752314Y-89101867D01*
X121790311Y-89164966D01*
X121804993Y-89190005D01*
X121819531Y-89217586D01*
X121831627Y-89245700D01*
X121841532Y-89276551D01*
X121849494Y-89312344D01*
X121855761Y-89355283D01*
X121860582Y-89407574D01*
X121864206Y-89471419D01*
X121866881Y-89549025D01*
X121868857Y-89642594D01*
X121870382Y-89754333D01*
X121871704Y-89886445D01*
X121872613Y-90006434D01*
X121873020Y-90123063D01*
X121872767Y-90218531D01*
X121871857Y-90292556D01*
X121870293Y-90344855D01*
X121868079Y-90375149D01*
X121865220Y-90383156D01*
X121862161Y-90379858D01*
X121844006Y-90358408D01*
X121814275Y-90321889D01*
X121774639Y-90272442D01*
X121726771Y-90212207D01*
X121672343Y-90143327D01*
X121613027Y-90067943D01*
X121550495Y-89988196D01*
X121486421Y-89906228D01*
X121422475Y-89824180D01*
X121360331Y-89744194D01*
X121301661Y-89668411D01*
X121248137Y-89598973D01*
X121201430Y-89538021D01*
X121163214Y-89487696D01*
X121135161Y-89450140D01*
X121118943Y-89427495D01*
X121073635Y-89355212D01*
X121033661Y-89275463D01*
X121012130Y-89207188D01*
X121008827Y-89149844D01*
X121014116Y-89101867D01*
X119882356Y-89102117D01*
X119921867Y-89132722D01*
X119931248Y-89140089D01*
X119994183Y-89194438D01*
X120062997Y-89262259D01*
X120139596Y-89345516D01*
X120225888Y-89446178D01*
X120243052Y-89466847D01*
X120283833Y-89516409D01*
X120333588Y-89577326D01*
X120390955Y-89647898D01*
X120454569Y-89726424D01*
X120523069Y-89811204D01*
X120595090Y-89900537D01*
X120669270Y-89992722D01*
X120684517Y-90011702D01*
X120744246Y-90086060D01*
X120818653Y-90178848D01*
X120891131Y-90269388D01*
X120960314Y-90355978D01*
X121024841Y-90436918D01*
X121083347Y-90510506D01*
X121134470Y-90575044D01*
X121176847Y-90628829D01*
X121209115Y-90670162D01*
X121229910Y-90697342D01*
X121237869Y-90708668D01*
X121236111Y-90712771D01*
X121223230Y-90733334D01*
X121198885Y-90769561D01*
X121164247Y-90819824D01*
X121120486Y-90882492D01*
X121068775Y-90955936D01*
X121010284Y-91038527D01*
X120946184Y-91128636D01*
X120877646Y-91224631D01*
X120805843Y-91324885D01*
X120731944Y-91427768D01*
X120657121Y-91531650D01*
X120582545Y-91634901D01*
X120509387Y-91735892D01*
X120438819Y-91832994D01*
X120372011Y-91924577D01*
X120310135Y-92009011D01*
X120254361Y-92084667D01*
X120205862Y-92149916D01*
X120165807Y-92203128D01*
X120135369Y-92242673D01*
X120114944Y-92268026D01*
X120068899Y-92322295D01*
X120018612Y-92378775D01*
X119971815Y-92428669D01*
X119880651Y-92522400D01*
X119182445Y-92522400D01*
X119251356Y-92522349D01*
X119349607Y-92522091D01*
X119439030Y-92521637D01*
X119517333Y-92521010D01*
X119582223Y-92520235D01*
X119631411Y-92519335D01*
X119662604Y-92518334D01*
X119673511Y-92517257D01*
X119672322Y-92514037D01*
X119662176Y-92496452D01*
X119645040Y-92470158D01*
X119636540Y-92457691D01*
X119627329Y-92443622D01*
X119619233Y-92429351D01*
X119612185Y-92413479D01*
X119606117Y-92394609D01*
X119600961Y-92371341D01*
X119596651Y-92342278D01*
X119593119Y-92306021D01*
X119590297Y-92261170D01*
X119588118Y-92206328D01*
X119586514Y-92140097D01*
X119585419Y-92061077D01*
X119584765Y-91967871D01*
X119584484Y-91859079D01*
X119584509Y-91733303D01*
X119584772Y-91589145D01*
X119585206Y-91425207D01*
X119585745Y-91240089D01*
X119586279Y-91061232D01*
X119586805Y-90902374D01*
X119587350Y-90763316D01*
X119587945Y-90642665D01*
X119588619Y-90539028D01*
X119589403Y-90451011D01*
X119590326Y-90377223D01*
X119591419Y-90316269D01*
X119592712Y-90266757D01*
X119594235Y-90227293D01*
X119596019Y-90196484D01*
X119598092Y-90172938D01*
X119600486Y-90155260D01*
X119603230Y-90142059D01*
X119606356Y-90131940D01*
X119609892Y-90123511D01*
X119613791Y-90115375D01*
X119633438Y-90078544D01*
X119652225Y-90048391D01*
X119653272Y-90046908D01*
X119667602Y-90024659D01*
X119673511Y-90011702D01*
X119672504Y-90011249D01*
X119655305Y-90009803D01*
X119618656Y-90008480D01*
X119564962Y-90007316D01*
X119496630Y-90006347D01*
X119416064Y-90005611D01*
X119325670Y-90005142D01*
X119227853Y-90004978D01*
X118782195Y-90004978D01*
X118779120Y-91181845D01*
X118776045Y-92358711D01*
X118749407Y-92417622D01*
X118737485Y-92442183D01*
X118720246Y-92472434D01*
X118707074Y-92489560D01*
X118699076Y-92497591D01*
X118691378Y-92512493D01*
X118399942Y-92512493D01*
X118399474Y-92420029D01*
X118399050Y-92304617D01*
X118398706Y-92174160D01*
X118398434Y-92027716D01*
X118398227Y-91864344D01*
X118398076Y-91683101D01*
X118397972Y-91483048D01*
X118397908Y-91263241D01*
X118397876Y-91022739D01*
X118397867Y-90760602D01*
X118397867Y-88569031D01*
X118436249Y-88530649D01*
X118463355Y-88506911D01*
X118490253Y-88495111D01*
X118526560Y-88492267D01*
X118578489Y-88492267D01*
X118578489Y-88580206D01*
X118580427Y-88630102D01*
X118599199Y-88740523D01*
X118636217Y-88841987D01*
X118689369Y-88933152D01*
X118756546Y-89012673D01*
X118835638Y-89079205D01*
X118924534Y-89131406D01*
X119021125Y-89167930D01*
X119123300Y-89187434D01*
X119228950Y-89188573D01*
X119335964Y-89170005D01*
X119442232Y-89130384D01*
X119539219Y-89072516D01*
X119624293Y-88997684D01*
X119693015Y-88909615D01*
X119743918Y-88810616D01*
X119775535Y-88702993D01*
X119786400Y-88589054D01*
X119786400Y-88492267D01*
X121406753Y-88492267D01*
X121617897Y-88492280D01*
X121822020Y-88492330D01*
X122005686Y-88492430D01*
X122169991Y-88492592D01*
X122316029Y-88492829D01*
X122444894Y-88493153D01*
X122557683Y-88493575D01*
X122655488Y-88494109D01*
X122739404Y-88494767D01*
X122810527Y-88495561D01*
X122869950Y-88496504D01*
X122918768Y-88497608D01*
X122958077Y-88498884D01*
X122988969Y-88500347D01*
X123012541Y-88502007D01*
X123029886Y-88503878D01*
X123042099Y-88505972D01*
X123050275Y-88508300D01*
X123055508Y-88510876D01*
X123061504Y-88514445D01*
X123068279Y-88517978D01*
X123074478Y-88521488D01*
X123080126Y-88525918D01*
X123085247Y-88532208D01*
X123089869Y-88541301D01*
X123094015Y-88554139D01*
X123097713Y-88571662D01*
X123100987Y-88594813D01*
X123103863Y-88624534D01*
X123106367Y-88661765D01*
X123108524Y-88707449D01*
X123110360Y-88762527D01*
X123111900Y-88827941D01*
X123113170Y-88904633D01*
X123114195Y-88993544D01*
X123115001Y-89095617D01*
X123115034Y-89101867D01*
X123115614Y-89211792D01*
X123116059Y-89343011D01*
G36*
X118171893Y-93367892D02*
G01*
X118183301Y-93374029D01*
X118193850Y-93384691D01*
X118205136Y-93398811D01*
X118209589Y-93404772D01*
X118215588Y-93415268D01*
X118220167Y-93429093D01*
X118223519Y-93448998D01*
X118225833Y-93477732D01*
X118227301Y-93518045D01*
X118228113Y-93572687D01*
X118228460Y-93644407D01*
X118228534Y-93735956D01*
X118228511Y-93794486D01*
X118228292Y-93873573D01*
X118227683Y-93934516D01*
X118226492Y-93980062D01*
X118224529Y-94012963D01*
X118221603Y-94035968D01*
X118217523Y-94051826D01*
X118212097Y-94063286D01*
X118205136Y-94073100D01*
X118174708Y-94097493D01*
X118139765Y-94100372D01*
X118102784Y-94081282D01*
X118098600Y-94077807D01*
X118090424Y-94069279D01*
X118084364Y-94057728D01*
X118079981Y-94039896D01*
X118076839Y-94012524D01*
X118074502Y-93972354D01*
X118072531Y-93916128D01*
X118070489Y-93840589D01*
X118064845Y-93621458D01*
X117799556Y-93862099D01*
X117725722Y-93928875D01*
X117660542Y-93986991D01*
X117608348Y-94031949D01*
X117567273Y-94064871D01*
X117535455Y-94086879D01*
X117511026Y-94099094D01*
X117492124Y-94102639D01*
X117476883Y-94098636D01*
X117463439Y-94088207D01*
X117449927Y-94072474D01*
X117443682Y-94063991D01*
X117438050Y-94053413D01*
X117433839Y-94039255D01*
X117430887Y-94018803D01*
X117429032Y-93989342D01*
X117428113Y-93948161D01*
X117427968Y-93892544D01*
X117428435Y-93819779D01*
X117429352Y-93727151D01*
X117432667Y-93412199D01*
X117459318Y-93390633D01*
X117485383Y-93374441D01*
X117518241Y-93371670D01*
X117552772Y-93390623D01*
X117557084Y-93394208D01*
X117565216Y-93402737D01*
X117571245Y-93414329D01*
X117575606Y-93432235D01*
X117578734Y-93459706D01*
X117581063Y-93499994D01*
X117583029Y-93556351D01*
X117585067Y-93632029D01*
X117590711Y-93851878D01*
X117771334Y-93688084D01*
X117858072Y-93609451D01*
X117933843Y-93541058D01*
X117995980Y-93485708D01*
X118046078Y-93442338D01*
X118085735Y-93409881D01*
X118116548Y-93387273D01*
X118140114Y-93373448D01*
X118158030Y-93367343D01*
X118171893Y-93367892D01*
G37*
X118171893Y-93367892D02*
X118183301Y-93374029D01*
X118193850Y-93384691D01*
X118205136Y-93398811D01*
X118209589Y-93404772D01*
X118215588Y-93415268D01*
X118220167Y-93429093D01*
X118223519Y-93448998D01*
X118225833Y-93477732D01*
X118227301Y-93518045D01*
X118228113Y-93572687D01*
X118228460Y-93644407D01*
X118228534Y-93735956D01*
X118228511Y-93794486D01*
X118228292Y-93873573D01*
X118227683Y-93934516D01*
X118226492Y-93980062D01*
X118224529Y-94012963D01*
X118221603Y-94035968D01*
X118217523Y-94051826D01*
X118212097Y-94063286D01*
X118205136Y-94073100D01*
X118174708Y-94097493D01*
X118139765Y-94100372D01*
X118102784Y-94081282D01*
X118098600Y-94077807D01*
X118090424Y-94069279D01*
X118084364Y-94057728D01*
X118079981Y-94039896D01*
X118076839Y-94012524D01*
X118074502Y-93972354D01*
X118072531Y-93916128D01*
X118070489Y-93840589D01*
X118064845Y-93621458D01*
X117799556Y-93862099D01*
X117725722Y-93928875D01*
X117660542Y-93986991D01*
X117608348Y-94031949D01*
X117567273Y-94064871D01*
X117535455Y-94086879D01*
X117511026Y-94099094D01*
X117492124Y-94102639D01*
X117476883Y-94098636D01*
X117463439Y-94088207D01*
X117449927Y-94072474D01*
X117443682Y-94063991D01*
X117438050Y-94053413D01*
X117433839Y-94039255D01*
X117430887Y-94018803D01*
X117429032Y-93989342D01*
X117428113Y-93948161D01*
X117427968Y-93892544D01*
X117428435Y-93819779D01*
X117429352Y-93727151D01*
X117432667Y-93412199D01*
X117459318Y-93390633D01*
X117485383Y-93374441D01*
X117518241Y-93371670D01*
X117552772Y-93390623D01*
X117557084Y-93394208D01*
X117565216Y-93402737D01*
X117571245Y-93414329D01*
X117575606Y-93432235D01*
X117578734Y-93459706D01*
X117581063Y-93499994D01*
X117583029Y-93556351D01*
X117585067Y-93632029D01*
X117590711Y-93851878D01*
X117771334Y-93688084D01*
X117858072Y-93609451D01*
X117933843Y-93541058D01*
X117995980Y-93485708D01*
X118046078Y-93442338D01*
X118085735Y-93409881D01*
X118116548Y-93387273D01*
X118140114Y-93373448D01*
X118158030Y-93367343D01*
X118171893Y-93367892D01*
G36*
X115567261Y-91777363D02*
G01*
X115563632Y-91852202D01*
X115556022Y-91914401D01*
X115543688Y-91970984D01*
X115499313Y-92097076D01*
X115436400Y-92211679D01*
X115356238Y-92312568D01*
X115259740Y-92398924D01*
X115147822Y-92469932D01*
X115021397Y-92524776D01*
X114881378Y-92562638D01*
X114845149Y-92568351D01*
X114766155Y-92574313D01*
X114677841Y-92574646D01*
X114588075Y-92569659D01*
X114504722Y-92559666D01*
X114435651Y-92544978D01*
X114349187Y-92514749D01*
X114239286Y-92460057D01*
X114141956Y-92392543D01*
X114079867Y-92341556D01*
X114076605Y-92437622D01*
X114073343Y-92533689D01*
X113650450Y-92533689D01*
X113639543Y-92533686D01*
X113545056Y-92533380D01*
X113458331Y-92532616D01*
X113381837Y-92531451D01*
X113318043Y-92529942D01*
X113269418Y-92528147D01*
X113238433Y-92526121D01*
X113227556Y-92523922D01*
X113227578Y-92523463D01*
X113234614Y-92507910D01*
X113250434Y-92485071D01*
X113254734Y-92479638D01*
X113265777Y-92465606D01*
X113275311Y-92452186D01*
X113283461Y-92437722D01*
X113290352Y-92420556D01*
X113296111Y-92399034D01*
X113300862Y-92371498D01*
X113304731Y-92336292D01*
X113307844Y-92291760D01*
X113310325Y-92236246D01*
X113312300Y-92168093D01*
X113313894Y-92085645D01*
X113315234Y-91987246D01*
X113316444Y-91871239D01*
X113316896Y-91820462D01*
X114119378Y-91820462D01*
X114164048Y-91876973D01*
X114176785Y-91892212D01*
X114223604Y-91934844D01*
X114284255Y-91970672D01*
X114294897Y-91975850D01*
X114333676Y-91992745D01*
X114368692Y-92002909D01*
X114408722Y-92008325D01*
X114462541Y-92010978D01*
X114480648Y-92011383D01*
X114556011Y-92008540D01*
X114616743Y-91996620D01*
X114668452Y-91974037D01*
X114716746Y-91939211D01*
X114721803Y-91934798D01*
X114770272Y-91879160D01*
X114798459Y-91815333D01*
X114807752Y-91740282D01*
X114800520Y-91668693D01*
X114775796Y-91605645D01*
X114731249Y-91547758D01*
X114676319Y-91500808D01*
X114603894Y-91460961D01*
X114517340Y-91433263D01*
X114414670Y-91417096D01*
X114293894Y-91411842D01*
X114285007Y-91411857D01*
X114229660Y-91412655D01*
X114182736Y-91414488D01*
X114148953Y-91417111D01*
X114133028Y-91420274D01*
X114128943Y-91426741D01*
X114124572Y-91448875D01*
X114121604Y-91487988D01*
X114119914Y-91545939D01*
X114119378Y-91624586D01*
X114119378Y-91820462D01*
X113316896Y-91820462D01*
X113317649Y-91735968D01*
X113318975Y-91579778D01*
X113320228Y-91437012D01*
X113321651Y-91291942D01*
X113323176Y-91166027D01*
X113324933Y-91057436D01*
X113327051Y-90964334D01*
X113329660Y-90884891D01*
X113332890Y-90817273D01*
X113336869Y-90759649D01*
X113341728Y-90710185D01*
X113347597Y-90667050D01*
X113354604Y-90628410D01*
X113362880Y-90592434D01*
X113372554Y-90557289D01*
X113383756Y-90521142D01*
X113396616Y-90482161D01*
X113412090Y-90439091D01*
X113454994Y-90346871D01*
X113508735Y-90267099D01*
X113577576Y-90192965D01*
X113655185Y-90129405D01*
X113759761Y-90067725D01*
X113879244Y-90020202D01*
X114014508Y-89986567D01*
X114166426Y-89966552D01*
X114335872Y-89959889D01*
X114393890Y-89960287D01*
X114459398Y-89962335D01*
X114520693Y-89966704D01*
X114582097Y-89974035D01*
X114647932Y-89984969D01*
X114722520Y-90000147D01*
X114810184Y-90020209D01*
X114915245Y-90045797D01*
X114943806Y-90052820D01*
X115019054Y-90070776D01*
X115089388Y-90086820D01*
X115150567Y-90100028D01*
X115198354Y-90109474D01*
X115228511Y-90114231D01*
X115256783Y-90117910D01*
X115283060Y-90123187D01*
X115293059Y-90127942D01*
X115289952Y-90136781D01*
X115279194Y-90164072D01*
X115261864Y-90206906D01*
X115239126Y-90262425D01*
X115212147Y-90327772D01*
X115182090Y-90400089D01*
X115175493Y-90415879D01*
X115136907Y-90506484D01*
X115105768Y-90576217D01*
X115081917Y-90625405D01*
X115065198Y-90654374D01*
X115055454Y-90663452D01*
X115047766Y-90661405D01*
X115021415Y-90651760D01*
X114982982Y-90636190D01*
X114937822Y-90616815D01*
X114843293Y-90578814D01*
X114706480Y-90537780D01*
X114565289Y-90512612D01*
X114527314Y-90508611D01*
X114424059Y-90506447D01*
X114336952Y-90519622D01*
X114265129Y-90548756D01*
X114207731Y-90594466D01*
X114163896Y-90657372D01*
X114132762Y-90738092D01*
X114113470Y-90837245D01*
X114106050Y-90896224D01*
X114267936Y-90889445D01*
X114394495Y-90887813D01*
X114545951Y-90894194D01*
X114694396Y-90908777D01*
X114830578Y-90930882D01*
X114895245Y-90945821D01*
X115027490Y-90988741D01*
X115149762Y-91045340D01*
X115259685Y-91114017D01*
X115354883Y-91193170D01*
X115432980Y-91281196D01*
X115491599Y-91376493D01*
X115515595Y-91428864D01*
X115541232Y-91499590D01*
X115557478Y-91570812D01*
X115565822Y-91649712D01*
X115567690Y-91740282D01*
X115567755Y-91743467D01*
X115567261Y-91777363D01*
G37*
X115567261Y-91777363D02*
X115563632Y-91852202D01*
X115556022Y-91914401D01*
X115543688Y-91970984D01*
X115499313Y-92097076D01*
X115436400Y-92211679D01*
X115356238Y-92312568D01*
X115259740Y-92398924D01*
X115147822Y-92469932D01*
X115021397Y-92524776D01*
X114881378Y-92562638D01*
X114845149Y-92568351D01*
X114766155Y-92574313D01*
X114677841Y-92574646D01*
X114588075Y-92569659D01*
X114504722Y-92559666D01*
X114435651Y-92544978D01*
X114349187Y-92514749D01*
X114239286Y-92460057D01*
X114141956Y-92392543D01*
X114079867Y-92341556D01*
X114076605Y-92437622D01*
X114073343Y-92533689D01*
X113650450Y-92533689D01*
X113639543Y-92533686D01*
X113545056Y-92533380D01*
X113458331Y-92532616D01*
X113381837Y-92531451D01*
X113318043Y-92529942D01*
X113269418Y-92528147D01*
X113238433Y-92526121D01*
X113227556Y-92523922D01*
X113227578Y-92523463D01*
X113234614Y-92507910D01*
X113250434Y-92485071D01*
X113254734Y-92479638D01*
X113265777Y-92465606D01*
X113275311Y-92452186D01*
X113283461Y-92437722D01*
X113290352Y-92420556D01*
X113296111Y-92399034D01*
X113300862Y-92371498D01*
X113304731Y-92336292D01*
X113307844Y-92291760D01*
X113310325Y-92236246D01*
X113312300Y-92168093D01*
X113313894Y-92085645D01*
X113315234Y-91987246D01*
X113316444Y-91871239D01*
X113316896Y-91820462D01*
X114119378Y-91820462D01*
X114164048Y-91876973D01*
X114176785Y-91892212D01*
X114223604Y-91934844D01*
X114284255Y-91970672D01*
X114294897Y-91975850D01*
X114333676Y-91992745D01*
X114368692Y-92002909D01*
X114408722Y-92008325D01*
X114462541Y-92010978D01*
X114480648Y-92011383D01*
X114556011Y-92008540D01*
X114616743Y-91996620D01*
X114668452Y-91974037D01*
X114716746Y-91939211D01*
X114721803Y-91934798D01*
X114770272Y-91879160D01*
X114798459Y-91815333D01*
X114807752Y-91740282D01*
X114800520Y-91668693D01*
X114775796Y-91605645D01*
X114731249Y-91547758D01*
X114676319Y-91500808D01*
X114603894Y-91460961D01*
X114517340Y-91433263D01*
X114414670Y-91417096D01*
X114293894Y-91411842D01*
X114285007Y-91411857D01*
X114229660Y-91412655D01*
X114182736Y-91414488D01*
X114148953Y-91417111D01*
X114133028Y-91420274D01*
X114128943Y-91426741D01*
X114124572Y-91448875D01*
X114121604Y-91487988D01*
X114119914Y-91545939D01*
X114119378Y-91624586D01*
X114119378Y-91820462D01*
X113316896Y-91820462D01*
X113317649Y-91735968D01*
X113318975Y-91579778D01*
X113320228Y-91437012D01*
X113321651Y-91291942D01*
X113323176Y-91166027D01*
X113324933Y-91057436D01*
X113327051Y-90964334D01*
X113329660Y-90884891D01*
X113332890Y-90817273D01*
X113336869Y-90759649D01*
X113341728Y-90710185D01*
X113347597Y-90667050D01*
X113354604Y-90628410D01*
X113362880Y-90592434D01*
X113372554Y-90557289D01*
X113383756Y-90521142D01*
X113396616Y-90482161D01*
X113412090Y-90439091D01*
X113454994Y-90346871D01*
X113508735Y-90267099D01*
X113577576Y-90192965D01*
X113655185Y-90129405D01*
X113759761Y-90067725D01*
X113879244Y-90020202D01*
X114014508Y-89986567D01*
X114166426Y-89966552D01*
X114335872Y-89959889D01*
X114393890Y-89960287D01*
X114459398Y-89962335D01*
X114520693Y-89966704D01*
X114582097Y-89974035D01*
X114647932Y-89984969D01*
X114722520Y-90000147D01*
X114810184Y-90020209D01*
X114915245Y-90045797D01*
X114943806Y-90052820D01*
X115019054Y-90070776D01*
X115089388Y-90086820D01*
X115150567Y-90100028D01*
X115198354Y-90109474D01*
X115228511Y-90114231D01*
X115256783Y-90117910D01*
X115283060Y-90123187D01*
X115293059Y-90127942D01*
X115289952Y-90136781D01*
X115279194Y-90164072D01*
X115261864Y-90206906D01*
X115239126Y-90262425D01*
X115212147Y-90327772D01*
X115182090Y-90400089D01*
X115175493Y-90415879D01*
X115136907Y-90506484D01*
X115105768Y-90576217D01*
X115081917Y-90625405D01*
X115065198Y-90654374D01*
X115055454Y-90663452D01*
X115047766Y-90661405D01*
X115021415Y-90651760D01*
X114982982Y-90636190D01*
X114937822Y-90616815D01*
X114843293Y-90578814D01*
X114706480Y-90537780D01*
X114565289Y-90512612D01*
X114527314Y-90508611D01*
X114424059Y-90506447D01*
X114336952Y-90519622D01*
X114265129Y-90548756D01*
X114207731Y-90594466D01*
X114163896Y-90657372D01*
X114132762Y-90738092D01*
X114113470Y-90837245D01*
X114106050Y-90896224D01*
X114267936Y-90889445D01*
X114394495Y-90887813D01*
X114545951Y-90894194D01*
X114694396Y-90908777D01*
X114830578Y-90930882D01*
X114895245Y-90945821D01*
X115027490Y-90988741D01*
X115149762Y-91045340D01*
X115259685Y-91114017D01*
X115354883Y-91193170D01*
X115432980Y-91281196D01*
X115491599Y-91376493D01*
X115515595Y-91428864D01*
X115541232Y-91499590D01*
X115557478Y-91570812D01*
X115565822Y-91649712D01*
X115567690Y-91740282D01*
X115567755Y-91743467D01*
X115567261Y-91777363D01*
G36*
X118969150Y-93374179D02*
G01*
X119075157Y-93390494D01*
X119168969Y-93418545D01*
X119247765Y-93457452D01*
X119308719Y-93506334D01*
X119334789Y-93539195D01*
X119364297Y-93588394D01*
X119389568Y-93642252D01*
X119407218Y-93693419D01*
X119413858Y-93734544D01*
X119412298Y-93754259D01*
X119399357Y-93805592D01*
X119376194Y-93862118D01*
X119346302Y-93916035D01*
X119313173Y-93959539D01*
X119302977Y-93969887D01*
X119235892Y-94021662D01*
X119155766Y-94061554D01*
X119069556Y-94085956D01*
X119014592Y-94094068D01*
X118921139Y-94100673D01*
X118831358Y-94098586D01*
X118748869Y-94088340D01*
X118677286Y-94070470D01*
X118620228Y-94045508D01*
X118581311Y-94013988D01*
X118579936Y-94012012D01*
X118572848Y-93986786D01*
X118568609Y-93939535D01*
X118567200Y-93870071D01*
X118568060Y-93807838D01*
X118572780Y-93760456D01*
X118584470Y-93728353D01*
X118606239Y-93708800D01*
X118641198Y-93699070D01*
X118692456Y-93696433D01*
X118763123Y-93698161D01*
X118811743Y-93701173D01*
X118861939Y-93709366D01*
X118894433Y-93723419D01*
X118911892Y-93744654D01*
X118916983Y-93774394D01*
X118916877Y-93778936D01*
X118908175Y-93813730D01*
X118884165Y-93837147D01*
X118842900Y-93850347D01*
X118782431Y-93854489D01*
X118713956Y-93854489D01*
X118713956Y-93892841D01*
X118714006Y-93901976D01*
X118716227Y-93919227D01*
X118725494Y-93929521D01*
X118746875Y-93936459D01*
X118785436Y-93943641D01*
X118790910Y-93944575D01*
X118887860Y-93954478D01*
X118977852Y-93951559D01*
X119058760Y-93936829D01*
X119128459Y-93911299D01*
X119184824Y-93875978D01*
X119225729Y-93831879D01*
X119249051Y-93780012D01*
X119252663Y-93721388D01*
X119247145Y-93692494D01*
X119220461Y-93636604D01*
X119174273Y-93590945D01*
X119109291Y-93556108D01*
X119026229Y-93532690D01*
X119001555Y-93528241D01*
X118912226Y-93517742D01*
X118832419Y-93518971D01*
X118754326Y-93531906D01*
X118719183Y-93538696D01*
X118673745Y-93539713D01*
X118642430Y-93527182D01*
X118622277Y-93500395D01*
X118615893Y-93472148D01*
X118625379Y-93440924D01*
X118634708Y-93427499D01*
X118668943Y-93403967D01*
X118721565Y-93386095D01*
X118790081Y-93374599D01*
X118872000Y-93370192D01*
X118969150Y-93374179D01*
G37*
X118969150Y-93374179D02*
X119075157Y-93390494D01*
X119168969Y-93418545D01*
X119247765Y-93457452D01*
X119308719Y-93506334D01*
X119334789Y-93539195D01*
X119364297Y-93588394D01*
X119389568Y-93642252D01*
X119407218Y-93693419D01*
X119413858Y-93734544D01*
X119412298Y-93754259D01*
X119399357Y-93805592D01*
X119376194Y-93862118D01*
X119346302Y-93916035D01*
X119313173Y-93959539D01*
X119302977Y-93969887D01*
X119235892Y-94021662D01*
X119155766Y-94061554D01*
X119069556Y-94085956D01*
X119014592Y-94094068D01*
X118921139Y-94100673D01*
X118831358Y-94098586D01*
X118748869Y-94088340D01*
X118677286Y-94070470D01*
X118620228Y-94045508D01*
X118581311Y-94013988D01*
X118579936Y-94012012D01*
X118572848Y-93986786D01*
X118568609Y-93939535D01*
X118567200Y-93870071D01*
X118568060Y-93807838D01*
X118572780Y-93760456D01*
X118584470Y-93728353D01*
X118606239Y-93708800D01*
X118641198Y-93699070D01*
X118692456Y-93696433D01*
X118763123Y-93698161D01*
X118811743Y-93701173D01*
X118861939Y-93709366D01*
X118894433Y-93723419D01*
X118911892Y-93744654D01*
X118916983Y-93774394D01*
X118916877Y-93778936D01*
X118908175Y-93813730D01*
X118884165Y-93837147D01*
X118842900Y-93850347D01*
X118782431Y-93854489D01*
X118713956Y-93854489D01*
X118713956Y-93892841D01*
X118714006Y-93901976D01*
X118716227Y-93919227D01*
X118725494Y-93929521D01*
X118746875Y-93936459D01*
X118785436Y-93943641D01*
X118790910Y-93944575D01*
X118887860Y-93954478D01*
X118977852Y-93951559D01*
X119058760Y-93936829D01*
X119128459Y-93911299D01*
X119184824Y-93875978D01*
X119225729Y-93831879D01*
X119249051Y-93780012D01*
X119252663Y-93721388D01*
X119247145Y-93692494D01*
X119220461Y-93636604D01*
X119174273Y-93590945D01*
X119109291Y-93556108D01*
X119026229Y-93532690D01*
X119001555Y-93528241D01*
X118912226Y-93517742D01*
X118832419Y-93518971D01*
X118754326Y-93531906D01*
X118719183Y-93538696D01*
X118673745Y-93539713D01*
X118642430Y-93527182D01*
X118622277Y-93500395D01*
X118615893Y-93472148D01*
X118625379Y-93440924D01*
X118634708Y-93427499D01*
X118668943Y-93403967D01*
X118721565Y-93386095D01*
X118790081Y-93374599D01*
X118872000Y-93370192D01*
X118969150Y-93374179D01*
G36*
X113025268Y-91420158D02*
G01*
X113016689Y-91571594D01*
X112997833Y-91708283D01*
X112967837Y-91834276D01*
X112925836Y-91953625D01*
X112870969Y-92070381D01*
X112804167Y-92181179D01*
X112713363Y-92294739D01*
X112609708Y-92390211D01*
X112493887Y-92467073D01*
X112366586Y-92524797D01*
X112228489Y-92562858D01*
X112190793Y-92568666D01*
X112111752Y-92574396D01*
X112023629Y-92574583D01*
X111934236Y-92569539D01*
X111851384Y-92559578D01*
X111782887Y-92545012D01*
X111752035Y-92535364D01*
X111674730Y-92505123D01*
X111597679Y-92467617D01*
X111528200Y-92426614D01*
X111473615Y-92385879D01*
X111450916Y-92366505D01*
X111428201Y-92348662D01*
X111416779Y-92341778D01*
X111415537Y-92343424D01*
X111412728Y-92361205D01*
X111410776Y-92394370D01*
X111410045Y-92437733D01*
X111410045Y-92533689D01*
X110551896Y-92533689D01*
X110586161Y-92472974D01*
X110591355Y-92463868D01*
X110599715Y-92449249D01*
X110607288Y-92435173D01*
X110614112Y-92420540D01*
X110620227Y-92404249D01*
X110625673Y-92385198D01*
X110630487Y-92362286D01*
X110634708Y-92334413D01*
X110638377Y-92300478D01*
X110641531Y-92259379D01*
X110644211Y-92210015D01*
X110646454Y-92151286D01*
X110648299Y-92082090D01*
X110649787Y-92001326D01*
X110650955Y-91907894D01*
X110651678Y-91820721D01*
X111455200Y-91820721D01*
X111525756Y-91867089D01*
X111566417Y-91890791D01*
X111620546Y-91916639D01*
X111669689Y-91934829D01*
X111733165Y-91950551D01*
X111829331Y-91961541D01*
X111913900Y-91953365D01*
X111987219Y-91925805D01*
X112049637Y-91878642D01*
X112101502Y-91811658D01*
X112143160Y-91724633D01*
X112174962Y-91617350D01*
X112177545Y-91605009D01*
X112186000Y-91543772D01*
X112191663Y-91466692D01*
X112194576Y-91379002D01*
X112194783Y-91285934D01*
X112192330Y-91192720D01*
X112187261Y-91104594D01*
X112179619Y-91026788D01*
X112169448Y-90964533D01*
X112168167Y-90958666D01*
X112139126Y-90848121D01*
X112104610Y-90757575D01*
X112063456Y-90684953D01*
X112014499Y-90628181D01*
X111956574Y-90585184D01*
X111924620Y-90569615D01*
X111851784Y-90550722D01*
X111770443Y-90547465D01*
X111685319Y-90559389D01*
X111601133Y-90586040D01*
X111522608Y-90626962D01*
X111455200Y-90670530D01*
X111455200Y-91820721D01*
X110651678Y-91820721D01*
X110651844Y-91800692D01*
X110652491Y-91678620D01*
X110652936Y-91540576D01*
X110653218Y-91385459D01*
X110653375Y-91212168D01*
X110653448Y-91019603D01*
X110653474Y-90806662D01*
X110653493Y-90572245D01*
X110653689Y-88887378D01*
X111559017Y-88887378D01*
X111534585Y-88924067D01*
X111528318Y-88933647D01*
X111502208Y-88979981D01*
X111484469Y-89027102D01*
X111472908Y-89082251D01*
X111465331Y-89152667D01*
X111464839Y-89159650D01*
X111463062Y-89197641D01*
X111461444Y-89251576D01*
X111459999Y-89318703D01*
X111458740Y-89396271D01*
X111457680Y-89481528D01*
X111456829Y-89571724D01*
X111456203Y-89664107D01*
X111455812Y-89755925D01*
X111455670Y-89844427D01*
X111455790Y-89926862D01*
X111456183Y-90000479D01*
X111456862Y-90062526D01*
X111457841Y-90110251D01*
X111459132Y-90140904D01*
X111460747Y-90151733D01*
X111468957Y-90147333D01*
X111490647Y-90132362D01*
X111520014Y-90110448D01*
X111568879Y-90076236D01*
X111657125Y-90029714D01*
X111755916Y-89996046D01*
X111868510Y-89974231D01*
X111998164Y-89963265D01*
X112090670Y-89962219D01*
X112212011Y-89972014D01*
X112322099Y-89996174D01*
X112425389Y-90035785D01*
X112526338Y-90091932D01*
X112571503Y-90122883D01*
X112676911Y-90214115D01*
X112768538Y-90323106D01*
X112846332Y-90449726D01*
X112910241Y-90593845D01*
X112960214Y-90755332D01*
X112996198Y-90934059D01*
X113018143Y-91129895D01*
X113023900Y-91285934D01*
X113025994Y-91342711D01*
X113025268Y-91420158D01*
G37*
X113025268Y-91420158D02*
X113016689Y-91571594D01*
X112997833Y-91708283D01*
X112967837Y-91834276D01*
X112925836Y-91953625D01*
X112870969Y-92070381D01*
X112804167Y-92181179D01*
X112713363Y-92294739D01*
X112609708Y-92390211D01*
X112493887Y-92467073D01*
X112366586Y-92524797D01*
X112228489Y-92562858D01*
X112190793Y-92568666D01*
X112111752Y-92574396D01*
X112023629Y-92574583D01*
X111934236Y-92569539D01*
X111851384Y-92559578D01*
X111782887Y-92545012D01*
X111752035Y-92535364D01*
X111674730Y-92505123D01*
X111597679Y-92467617D01*
X111528200Y-92426614D01*
X111473615Y-92385879D01*
X111450916Y-92366505D01*
X111428201Y-92348662D01*
X111416779Y-92341778D01*
X111415537Y-92343424D01*
X111412728Y-92361205D01*
X111410776Y-92394370D01*
X111410045Y-92437733D01*
X111410045Y-92533689D01*
X110551896Y-92533689D01*
X110586161Y-92472974D01*
X110591355Y-92463868D01*
X110599715Y-92449249D01*
X110607288Y-92435173D01*
X110614112Y-92420540D01*
X110620227Y-92404249D01*
X110625673Y-92385198D01*
X110630487Y-92362286D01*
X110634708Y-92334413D01*
X110638377Y-92300478D01*
X110641531Y-92259379D01*
X110644211Y-92210015D01*
X110646454Y-92151286D01*
X110648299Y-92082090D01*
X110649787Y-92001326D01*
X110650955Y-91907894D01*
X110651678Y-91820721D01*
X111455200Y-91820721D01*
X111525756Y-91867089D01*
X111566417Y-91890791D01*
X111620546Y-91916639D01*
X111669689Y-91934829D01*
X111733165Y-91950551D01*
X111829331Y-91961541D01*
X111913900Y-91953365D01*
X111987219Y-91925805D01*
X112049637Y-91878642D01*
X112101502Y-91811658D01*
X112143160Y-91724633D01*
X112174962Y-91617350D01*
X112177545Y-91605009D01*
X112186000Y-91543772D01*
X112191663Y-91466692D01*
X112194576Y-91379002D01*
X112194783Y-91285934D01*
X112192330Y-91192720D01*
X112187261Y-91104594D01*
X112179619Y-91026788D01*
X112169448Y-90964533D01*
X112168167Y-90958666D01*
X112139126Y-90848121D01*
X112104610Y-90757575D01*
X112063456Y-90684953D01*
X112014499Y-90628181D01*
X111956574Y-90585184D01*
X111924620Y-90569615D01*
X111851784Y-90550722D01*
X111770443Y-90547465D01*
X111685319Y-90559389D01*
X111601133Y-90586040D01*
X111522608Y-90626962D01*
X111455200Y-90670530D01*
X111455200Y-91820721D01*
X110651678Y-91820721D01*
X110651844Y-91800692D01*
X110652491Y-91678620D01*
X110652936Y-91540576D01*
X110653218Y-91385459D01*
X110653375Y-91212168D01*
X110653448Y-91019603D01*
X110653474Y-90806662D01*
X110653493Y-90572245D01*
X110653689Y-88887378D01*
X111559017Y-88887378D01*
X111534585Y-88924067D01*
X111528318Y-88933647D01*
X111502208Y-88979981D01*
X111484469Y-89027102D01*
X111472908Y-89082251D01*
X111465331Y-89152667D01*
X111464839Y-89159650D01*
X111463062Y-89197641D01*
X111461444Y-89251576D01*
X111459999Y-89318703D01*
X111458740Y-89396271D01*
X111457680Y-89481528D01*
X111456829Y-89571724D01*
X111456203Y-89664107D01*
X111455812Y-89755925D01*
X111455670Y-89844427D01*
X111455790Y-89926862D01*
X111456183Y-90000479D01*
X111456862Y-90062526D01*
X111457841Y-90110251D01*
X111459132Y-90140904D01*
X111460747Y-90151733D01*
X111468957Y-90147333D01*
X111490647Y-90132362D01*
X111520014Y-90110448D01*
X111568879Y-90076236D01*
X111657125Y-90029714D01*
X111755916Y-89996046D01*
X111868510Y-89974231D01*
X111998164Y-89963265D01*
X112090670Y-89962219D01*
X112212011Y-89972014D01*
X112322099Y-89996174D01*
X112425389Y-90035785D01*
X112526338Y-90091932D01*
X112571503Y-90122883D01*
X112676911Y-90214115D01*
X112768538Y-90323106D01*
X112846332Y-90449726D01*
X112910241Y-90593845D01*
X112960214Y-90755332D01*
X112996198Y-90934059D01*
X113018143Y-91129895D01*
X113023900Y-91285934D01*
X113025994Y-91342711D01*
X113025268Y-91420158D01*
G36*
X113129702Y-93378478D02*
G01*
X113147663Y-93396989D01*
X113168263Y-93428071D01*
X113193095Y-93473756D01*
X113223750Y-93536078D01*
X113261820Y-93617071D01*
X113276454Y-93648454D01*
X113306203Y-93711638D01*
X113332297Y-93766244D01*
X113353292Y-93809290D01*
X113367739Y-93837793D01*
X113374191Y-93848770D01*
X113375550Y-93848189D01*
X113385542Y-93834242D01*
X113402833Y-93804704D01*
X113425430Y-93763087D01*
X113451338Y-93712903D01*
X113467311Y-93681414D01*
X113496261Y-93626061D01*
X113518749Y-93587044D01*
X113536965Y-93561566D01*
X113553096Y-93546831D01*
X113569330Y-93540042D01*
X113587857Y-93538400D01*
X113598360Y-93538875D01*
X113614476Y-93543082D01*
X113629790Y-93553946D01*
X113646388Y-93574219D01*
X113666357Y-93606654D01*
X113691783Y-93654004D01*
X113724752Y-93719022D01*
X113734485Y-93738277D01*
X113758943Y-93784946D01*
X113779178Y-93821109D01*
X113793311Y-93843497D01*
X113799460Y-93848845D01*
X113800827Y-93845573D01*
X113810202Y-93824664D01*
X113827062Y-93787725D01*
X113849979Y-93737874D01*
X113877520Y-93678226D01*
X113908255Y-93611898D01*
X113934970Y-93554677D01*
X113964593Y-93492688D01*
X113987664Y-93446949D01*
X114005643Y-93414908D01*
X114019990Y-93394014D01*
X114032166Y-93381718D01*
X114043632Y-93375466D01*
X114053042Y-93372574D01*
X114078147Y-93372425D01*
X114105290Y-93387768D01*
X114106590Y-93388753D01*
X114128674Y-93411388D01*
X114139723Y-93433613D01*
X114139769Y-93434253D01*
X114135228Y-93451915D01*
X114122364Y-93486481D01*
X114102605Y-93534826D01*
X114077381Y-93593825D01*
X114048119Y-93660355D01*
X114016250Y-93731291D01*
X113983201Y-93803507D01*
X113950401Y-93873880D01*
X113919280Y-93939285D01*
X113891265Y-93996597D01*
X113867786Y-94042692D01*
X113850272Y-94074446D01*
X113840151Y-94088733D01*
X113805743Y-94102102D01*
X113764046Y-94095741D01*
X113758681Y-94091044D01*
X113742852Y-94068893D01*
X113720650Y-94032132D01*
X113694233Y-93984415D01*
X113665760Y-93929393D01*
X113585986Y-93770150D01*
X113512799Y-93916742D01*
X113503103Y-93936032D01*
X113476125Y-93988380D01*
X113452096Y-94033170D01*
X113433332Y-94066154D01*
X113422146Y-94083089D01*
X113421000Y-94084332D01*
X113392879Y-94099619D01*
X113357817Y-94101302D01*
X113326776Y-94088733D01*
X113324350Y-94085884D01*
X113312090Y-94065259D01*
X113292352Y-94027708D01*
X113266448Y-93975880D01*
X113235685Y-93912423D01*
X113201375Y-93839985D01*
X113164825Y-93761216D01*
X113144585Y-93717093D01*
X113107812Y-93636365D01*
X113079355Y-93572687D01*
X113058331Y-93523752D01*
X113043854Y-93487257D01*
X113035039Y-93460895D01*
X113031004Y-93442361D01*
X113030862Y-93429352D01*
X113033730Y-93419561D01*
X113048387Y-93398678D01*
X113074990Y-93378377D01*
X113075745Y-93378035D01*
X113095335Y-93371034D01*
X113112790Y-93370504D01*
X113129702Y-93378478D01*
G37*
X113129702Y-93378478D02*
X113147663Y-93396989D01*
X113168263Y-93428071D01*
X113193095Y-93473756D01*
X113223750Y-93536078D01*
X113261820Y-93617071D01*
X113276454Y-93648454D01*
X113306203Y-93711638D01*
X113332297Y-93766244D01*
X113353292Y-93809290D01*
X113367739Y-93837793D01*
X113374191Y-93848770D01*
X113375550Y-93848189D01*
X113385542Y-93834242D01*
X113402833Y-93804704D01*
X113425430Y-93763087D01*
X113451338Y-93712903D01*
X113467311Y-93681414D01*
X113496261Y-93626061D01*
X113518749Y-93587044D01*
X113536965Y-93561566D01*
X113553096Y-93546831D01*
X113569330Y-93540042D01*
X113587857Y-93538400D01*
X113598360Y-93538875D01*
X113614476Y-93543082D01*
X113629790Y-93553946D01*
X113646388Y-93574219D01*
X113666357Y-93606654D01*
X113691783Y-93654004D01*
X113724752Y-93719022D01*
X113734485Y-93738277D01*
X113758943Y-93784946D01*
X113779178Y-93821109D01*
X113793311Y-93843497D01*
X113799460Y-93848845D01*
X113800827Y-93845573D01*
X113810202Y-93824664D01*
X113827062Y-93787725D01*
X113849979Y-93737874D01*
X113877520Y-93678226D01*
X113908255Y-93611898D01*
X113934970Y-93554677D01*
X113964593Y-93492688D01*
X113987664Y-93446949D01*
X114005643Y-93414908D01*
X114019990Y-93394014D01*
X114032166Y-93381718D01*
X114043632Y-93375466D01*
X114053042Y-93372574D01*
X114078147Y-93372425D01*
X114105290Y-93387768D01*
X114106590Y-93388753D01*
X114128674Y-93411388D01*
X114139723Y-93433613D01*
X114139769Y-93434253D01*
X114135228Y-93451915D01*
X114122364Y-93486481D01*
X114102605Y-93534826D01*
X114077381Y-93593825D01*
X114048119Y-93660355D01*
X114016250Y-93731291D01*
X113983201Y-93803507D01*
X113950401Y-93873880D01*
X113919280Y-93939285D01*
X113891265Y-93996597D01*
X113867786Y-94042692D01*
X113850272Y-94074446D01*
X113840151Y-94088733D01*
X113805743Y-94102102D01*
X113764046Y-94095741D01*
X113758681Y-94091044D01*
X113742852Y-94068893D01*
X113720650Y-94032132D01*
X113694233Y-93984415D01*
X113665760Y-93929393D01*
X113585986Y-93770150D01*
X113512799Y-93916742D01*
X113503103Y-93936032D01*
X113476125Y-93988380D01*
X113452096Y-94033170D01*
X113433332Y-94066154D01*
X113422146Y-94083089D01*
X113421000Y-94084332D01*
X113392879Y-94099619D01*
X113357817Y-94101302D01*
X113326776Y-94088733D01*
X113324350Y-94085884D01*
X113312090Y-94065259D01*
X113292352Y-94027708D01*
X113266448Y-93975880D01*
X113235685Y-93912423D01*
X113201375Y-93839985D01*
X113164825Y-93761216D01*
X113144585Y-93717093D01*
X113107812Y-93636365D01*
X113079355Y-93572687D01*
X113058331Y-93523752D01*
X113043854Y-93487257D01*
X113035039Y-93460895D01*
X113031004Y-93442361D01*
X113030862Y-93429352D01*
X113033730Y-93419561D01*
X113048387Y-93398678D01*
X113074990Y-93378377D01*
X113075745Y-93378035D01*
X113095335Y-93371034D01*
X113112790Y-93370504D01*
X113129702Y-93378478D01*
G36*
X120680853Y-93369936D02*
G01*
X120747100Y-93375366D01*
X120802400Y-93384964D01*
X120853283Y-93399825D01*
X120924595Y-93432958D01*
X120975752Y-93475640D01*
X121006575Y-93527705D01*
X121016889Y-93588983D01*
X121015952Y-93620232D01*
X121010160Y-93645029D01*
X120995353Y-93666699D01*
X120967380Y-93694049D01*
X120959402Y-93701378D01*
X120935692Y-93722281D01*
X120913298Y-93739251D01*
X120889265Y-93753205D01*
X120860637Y-93765056D01*
X120824460Y-93775720D01*
X120777780Y-93786111D01*
X120717641Y-93797146D01*
X120641090Y-93809738D01*
X120545171Y-93824804D01*
X120526808Y-93827838D01*
X120464478Y-93841458D01*
X120419260Y-93857192D01*
X120392976Y-93874263D01*
X120387447Y-93891897D01*
X120390068Y-93896168D01*
X120408000Y-93911233D01*
X120436126Y-93927867D01*
X120448926Y-93933857D01*
X120470224Y-93941050D01*
X120496610Y-93945827D01*
X120532454Y-93948646D01*
X120582128Y-93949964D01*
X120650000Y-93950237D01*
X120667785Y-93950164D01*
X120735406Y-93949053D01*
X120800345Y-93946828D01*
X120855970Y-93943762D01*
X120895651Y-93940127D01*
X120931162Y-93936059D01*
X120960415Y-93935276D01*
X120979315Y-93939876D01*
X120994429Y-93950551D01*
X120998085Y-93954144D01*
X121014427Y-93985918D01*
X121013107Y-94021572D01*
X120994150Y-94052190D01*
X120973780Y-94063796D01*
X120937796Y-94076491D01*
X120895372Y-94086541D01*
X120891922Y-94087140D01*
X120849252Y-94092356D01*
X120791866Y-94096730D01*
X120726849Y-94099818D01*
X120661289Y-94101177D01*
X120645057Y-94101218D01*
X120546744Y-94098741D01*
X120466692Y-94090735D01*
X120401513Y-94076203D01*
X120347817Y-94054149D01*
X120302216Y-94023576D01*
X120261323Y-93983486D01*
X120241202Y-93957259D01*
X120229576Y-93927712D01*
X120226667Y-93887995D01*
X120226808Y-93876026D01*
X120230681Y-93843345D01*
X120243065Y-93816819D01*
X120268230Y-93785971D01*
X120289442Y-93763831D01*
X120315838Y-93741285D01*
X120345555Y-93722917D01*
X120381785Y-93707661D01*
X120427717Y-93694449D01*
X120486544Y-93682214D01*
X120561456Y-93669889D01*
X120655645Y-93656406D01*
X120700957Y-93649396D01*
X120768911Y-93634837D01*
X120818047Y-93618337D01*
X120847614Y-93600439D01*
X120856864Y-93581685D01*
X120845048Y-93562615D01*
X120811416Y-93543771D01*
X120808370Y-93542557D01*
X120762011Y-93530479D01*
X120699361Y-93522279D01*
X120625927Y-93518119D01*
X120547217Y-93518161D01*
X120468739Y-93522569D01*
X120396000Y-93531505D01*
X120392073Y-93532154D01*
X120343257Y-93539861D01*
X120311005Y-93543473D01*
X120290008Y-93542876D01*
X120274954Y-93537954D01*
X120260534Y-93528596D01*
X120259364Y-93527725D01*
X120234847Y-93497351D01*
X120230054Y-93461850D01*
X120245860Y-93427269D01*
X120250406Y-93422813D01*
X120280020Y-93407673D01*
X120327002Y-93394550D01*
X120387306Y-93383750D01*
X120456888Y-93375581D01*
X120531703Y-93370351D01*
X120607706Y-93368367D01*
X120680853Y-93369936D01*
G37*
X120680853Y-93369936D02*
X120747100Y-93375366D01*
X120802400Y-93384964D01*
X120853283Y-93399825D01*
X120924595Y-93432958D01*
X120975752Y-93475640D01*
X121006575Y-93527705D01*
X121016889Y-93588983D01*
X121015952Y-93620232D01*
X121010160Y-93645029D01*
X120995353Y-93666699D01*
X120967380Y-93694049D01*
X120959402Y-93701378D01*
X120935692Y-93722281D01*
X120913298Y-93739251D01*
X120889265Y-93753205D01*
X120860637Y-93765056D01*
X120824460Y-93775720D01*
X120777780Y-93786111D01*
X120717641Y-93797146D01*
X120641090Y-93809738D01*
X120545171Y-93824804D01*
X120526808Y-93827838D01*
X120464478Y-93841458D01*
X120419260Y-93857192D01*
X120392976Y-93874263D01*
X120387447Y-93891897D01*
X120390068Y-93896168D01*
X120408000Y-93911233D01*
X120436126Y-93927867D01*
X120448926Y-93933857D01*
X120470224Y-93941050D01*
X120496610Y-93945827D01*
X120532454Y-93948646D01*
X120582128Y-93949964D01*
X120650000Y-93950237D01*
X120667785Y-93950164D01*
X120735406Y-93949053D01*
X120800345Y-93946828D01*
X120855970Y-93943762D01*
X120895651Y-93940127D01*
X120931162Y-93936059D01*
X120960415Y-93935276D01*
X120979315Y-93939876D01*
X120994429Y-93950551D01*
X120998085Y-93954144D01*
X121014427Y-93985918D01*
X121013107Y-94021572D01*
X120994150Y-94052190D01*
X120973780Y-94063796D01*
X120937796Y-94076491D01*
X120895372Y-94086541D01*
X120891922Y-94087140D01*
X120849252Y-94092356D01*
X120791866Y-94096730D01*
X120726849Y-94099818D01*
X120661289Y-94101177D01*
X120645057Y-94101218D01*
X120546744Y-94098741D01*
X120466692Y-94090735D01*
X120401513Y-94076203D01*
X120347817Y-94054149D01*
X120302216Y-94023576D01*
X120261323Y-93983486D01*
X120241202Y-93957259D01*
X120229576Y-93927712D01*
X120226667Y-93887995D01*
X120226808Y-93876026D01*
X120230681Y-93843345D01*
X120243065Y-93816819D01*
X120268230Y-93785971D01*
X120289442Y-93763831D01*
X120315838Y-93741285D01*
X120345555Y-93722917D01*
X120381785Y-93707661D01*
X120427717Y-93694449D01*
X120486544Y-93682214D01*
X120561456Y-93669889D01*
X120655645Y-93656406D01*
X120700957Y-93649396D01*
X120768911Y-93634837D01*
X120818047Y-93618337D01*
X120847614Y-93600439D01*
X120856864Y-93581685D01*
X120845048Y-93562615D01*
X120811416Y-93543771D01*
X120808370Y-93542557D01*
X120762011Y-93530479D01*
X120699361Y-93522279D01*
X120625927Y-93518119D01*
X120547217Y-93518161D01*
X120468739Y-93522569D01*
X120396000Y-93531505D01*
X120392073Y-93532154D01*
X120343257Y-93539861D01*
X120311005Y-93543473D01*
X120290008Y-93542876D01*
X120274954Y-93537954D01*
X120260534Y-93528596D01*
X120259364Y-93527725D01*
X120234847Y-93497351D01*
X120230054Y-93461850D01*
X120245860Y-93427269D01*
X120250406Y-93422813D01*
X120280020Y-93407673D01*
X120327002Y-93394550D01*
X120387306Y-93383750D01*
X120456888Y-93375581D01*
X120531703Y-93370351D01*
X120607706Y-93368367D01*
X120680853Y-93369936D01*
G36*
X123116870Y-93635041D02*
G01*
X123116622Y-93735956D01*
X123116583Y-93811617D01*
X123116328Y-93889526D01*
X123115684Y-93949536D01*
X123114480Y-93994264D01*
X123112543Y-94026326D01*
X123109703Y-94048340D01*
X123105788Y-94062924D01*
X123100626Y-94072694D01*
X123094045Y-94080267D01*
X123087077Y-94086501D01*
X123074079Y-94093801D01*
X123054931Y-94098554D01*
X123025528Y-94101292D01*
X122981762Y-94102545D01*
X122919528Y-94102845D01*
X122870582Y-94102469D01*
X122763722Y-94098041D01*
X122674494Y-94087953D01*
X122599696Y-94071365D01*
X122536125Y-94047435D01*
X122480579Y-94015321D01*
X122429854Y-93974182D01*
X122423866Y-93968330D01*
X122386999Y-93919821D01*
X122355899Y-93859013D01*
X122334417Y-93794769D01*
X122329136Y-93756026D01*
X122476353Y-93756026D01*
X122494635Y-93806961D01*
X122524305Y-93852878D01*
X122571002Y-93895287D01*
X122632392Y-93925090D01*
X122711538Y-93944226D01*
X122713028Y-93944464D01*
X122761999Y-93950256D01*
X122820693Y-93954396D01*
X122876734Y-93956004D01*
X122969867Y-93956089D01*
X122969867Y-93515822D01*
X122893667Y-93515808D01*
X122890639Y-93515817D01*
X122839519Y-93517782D01*
X122779416Y-93522507D01*
X122722708Y-93529035D01*
X122672750Y-93538331D01*
X122597998Y-93564600D01*
X122540489Y-93603899D01*
X122498988Y-93656933D01*
X122477771Y-93708200D01*
X122476353Y-93756026D01*
X122329136Y-93756026D01*
X122326400Y-93735956D01*
X122327679Y-93714739D01*
X122339991Y-93657323D01*
X122362520Y-93597413D01*
X122391750Y-93543363D01*
X122424167Y-93503532D01*
X122443708Y-93486510D01*
X122498420Y-93447322D01*
X122558723Y-93417193D01*
X122627919Y-93395232D01*
X122709311Y-93380550D01*
X122806200Y-93372259D01*
X122921889Y-93369467D01*
X122961371Y-93369066D01*
X123007082Y-93368653D01*
X123042883Y-93370457D01*
X123069974Y-93376739D01*
X123089556Y-93389759D01*
X123102830Y-93411778D01*
X123110998Y-93445055D01*
X123115260Y-93491851D01*
X123115857Y-93515822D01*
X123116817Y-93554427D01*
X123116870Y-93635041D01*
G37*
X123116870Y-93635041D02*
X123116622Y-93735956D01*
X123116583Y-93811617D01*
X123116328Y-93889526D01*
X123115684Y-93949536D01*
X123114480Y-93994264D01*
X123112543Y-94026326D01*
X123109703Y-94048340D01*
X123105788Y-94062924D01*
X123100626Y-94072694D01*
X123094045Y-94080267D01*
X123087077Y-94086501D01*
X123074079Y-94093801D01*
X123054931Y-94098554D01*
X123025528Y-94101292D01*
X122981762Y-94102545D01*
X122919528Y-94102845D01*
X122870582Y-94102469D01*
X122763722Y-94098041D01*
X122674494Y-94087953D01*
X122599696Y-94071365D01*
X122536125Y-94047435D01*
X122480579Y-94015321D01*
X122429854Y-93974182D01*
X122423866Y-93968330D01*
X122386999Y-93919821D01*
X122355899Y-93859013D01*
X122334417Y-93794769D01*
X122329136Y-93756026D01*
X122476353Y-93756026D01*
X122494635Y-93806961D01*
X122524305Y-93852878D01*
X122571002Y-93895287D01*
X122632392Y-93925090D01*
X122711538Y-93944226D01*
X122713028Y-93944464D01*
X122761999Y-93950256D01*
X122820693Y-93954396D01*
X122876734Y-93956004D01*
X122969867Y-93956089D01*
X122969867Y-93515822D01*
X122893667Y-93515808D01*
X122890639Y-93515817D01*
X122839519Y-93517782D01*
X122779416Y-93522507D01*
X122722708Y-93529035D01*
X122672750Y-93538331D01*
X122597998Y-93564600D01*
X122540489Y-93603899D01*
X122498988Y-93656933D01*
X122477771Y-93708200D01*
X122476353Y-93756026D01*
X122329136Y-93756026D01*
X122326400Y-93735956D01*
X122327679Y-93714739D01*
X122339991Y-93657323D01*
X122362520Y-93597413D01*
X122391750Y-93543363D01*
X122424167Y-93503532D01*
X122443708Y-93486510D01*
X122498420Y-93447322D01*
X122558723Y-93417193D01*
X122627919Y-93395232D01*
X122709311Y-93380550D01*
X122806200Y-93372259D01*
X122921889Y-93369467D01*
X122961371Y-93369066D01*
X123007082Y-93368653D01*
X123042883Y-93370457D01*
X123069974Y-93376739D01*
X123089556Y-93389759D01*
X123102830Y-93411778D01*
X123110998Y-93445055D01*
X123115260Y-93491851D01*
X123115857Y-93515822D01*
X123116817Y-93554427D01*
X123116870Y-93635041D01*
G36*
X117019803Y-93398811D02*
G01*
X117024752Y-93405495D01*
X117030596Y-93416066D01*
X117035057Y-93430153D01*
X117038321Y-93450478D01*
X117040574Y-93479765D01*
X117042002Y-93520737D01*
X117042792Y-93576117D01*
X117043129Y-93648628D01*
X117043200Y-93740994D01*
X117043171Y-93806911D01*
X117042939Y-93885228D01*
X117042319Y-93945496D01*
X117041126Y-93990393D01*
X117039179Y-94022602D01*
X117036294Y-94044800D01*
X117032288Y-94059669D01*
X117026979Y-94069889D01*
X117020183Y-94078138D01*
X117015668Y-94082795D01*
X117007438Y-94089282D01*
X116996078Y-94094194D01*
X116978810Y-94097749D01*
X116952855Y-94100167D01*
X116915436Y-94101667D01*
X116863773Y-94102467D01*
X116795089Y-94102787D01*
X116706606Y-94102845D01*
X116686931Y-94102838D01*
X116599906Y-94102572D01*
X116532254Y-94101806D01*
X116481299Y-94100392D01*
X116444367Y-94098180D01*
X116418783Y-94095022D01*
X116401871Y-94090769D01*
X116390957Y-94085271D01*
X116380464Y-94075285D01*
X116367203Y-94044168D01*
X116368386Y-94008280D01*
X116384550Y-93976733D01*
X116386739Y-93974457D01*
X116395427Y-93968189D01*
X116408769Y-93963523D01*
X116429752Y-93960227D01*
X116461363Y-93958068D01*
X116506590Y-93956814D01*
X116568420Y-93956231D01*
X116649839Y-93956089D01*
X116896445Y-93956089D01*
X116896445Y-93798045D01*
X116734006Y-93798045D01*
X116698338Y-93797964D01*
X116642568Y-93797167D01*
X116603430Y-93795162D01*
X116576976Y-93791521D01*
X116559259Y-93785812D01*
X116546329Y-93777607D01*
X116542686Y-93774423D01*
X116524278Y-93743448D01*
X116523644Y-93707112D01*
X116541183Y-93673493D01*
X116541245Y-93673424D01*
X116550916Y-93664798D01*
X116564209Y-93658742D01*
X116584917Y-93654811D01*
X116616828Y-93652556D01*
X116663734Y-93651531D01*
X116729424Y-93651289D01*
X116897571Y-93651289D01*
X116894186Y-93586378D01*
X116890800Y-93521467D01*
X116648723Y-93518414D01*
X116623707Y-93518086D01*
X116542087Y-93516606D01*
X116479768Y-93514222D01*
X116434154Y-93510227D01*
X116402652Y-93503913D01*
X116382667Y-93494574D01*
X116371604Y-93481503D01*
X116366869Y-93463992D01*
X116365867Y-93441335D01*
X116365873Y-93438970D01*
X116367027Y-93418939D01*
X116371824Y-93403146D01*
X116382632Y-93391090D01*
X116401817Y-93382267D01*
X116431745Y-93376175D01*
X116474783Y-93372311D01*
X116533299Y-93370174D01*
X116609657Y-93369260D01*
X116706226Y-93369067D01*
X116996406Y-93369067D01*
X117019803Y-93398811D01*
G37*
X117019803Y-93398811D02*
X117024752Y-93405495D01*
X117030596Y-93416066D01*
X117035057Y-93430153D01*
X117038321Y-93450478D01*
X117040574Y-93479765D01*
X117042002Y-93520737D01*
X117042792Y-93576117D01*
X117043129Y-93648628D01*
X117043200Y-93740994D01*
X117043171Y-93806911D01*
X117042939Y-93885228D01*
X117042319Y-93945496D01*
X117041126Y-93990393D01*
X117039179Y-94022602D01*
X117036294Y-94044800D01*
X117032288Y-94059669D01*
X117026979Y-94069889D01*
X117020183Y-94078138D01*
X117015668Y-94082795D01*
X117007438Y-94089282D01*
X116996078Y-94094194D01*
X116978810Y-94097749D01*
X116952855Y-94100167D01*
X116915436Y-94101667D01*
X116863773Y-94102467D01*
X116795089Y-94102787D01*
X116706606Y-94102845D01*
X116686931Y-94102838D01*
X116599906Y-94102572D01*
X116532254Y-94101806D01*
X116481299Y-94100392D01*
X116444367Y-94098180D01*
X116418783Y-94095022D01*
X116401871Y-94090769D01*
X116390957Y-94085271D01*
X116380464Y-94075285D01*
X116367203Y-94044168D01*
X116368386Y-94008280D01*
X116384550Y-93976733D01*
X116386739Y-93974457D01*
X116395427Y-93968189D01*
X116408769Y-93963523D01*
X116429752Y-93960227D01*
X116461363Y-93958068D01*
X116506590Y-93956814D01*
X116568420Y-93956231D01*
X116649839Y-93956089D01*
X116896445Y-93956089D01*
X116896445Y-93798045D01*
X116734006Y-93798045D01*
X116698338Y-93797964D01*
X116642568Y-93797167D01*
X116603430Y-93795162D01*
X116576976Y-93791521D01*
X116559259Y-93785812D01*
X116546329Y-93777607D01*
X116542686Y-93774423D01*
X116524278Y-93743448D01*
X116523644Y-93707112D01*
X116541183Y-93673493D01*
X116541245Y-93673424D01*
X116550916Y-93664798D01*
X116564209Y-93658742D01*
X116584917Y-93654811D01*
X116616828Y-93652556D01*
X116663734Y-93651531D01*
X116729424Y-93651289D01*
X116897571Y-93651289D01*
X116894186Y-93586378D01*
X116890800Y-93521467D01*
X116648723Y-93518414D01*
X116623707Y-93518086D01*
X116542087Y-93516606D01*
X116479768Y-93514222D01*
X116434154Y-93510227D01*
X116402652Y-93503913D01*
X116382667Y-93494574D01*
X116371604Y-93481503D01*
X116366869Y-93463992D01*
X116365867Y-93441335D01*
X116365873Y-93438970D01*
X116367027Y-93418939D01*
X116371824Y-93403146D01*
X116382632Y-93391090D01*
X116401817Y-93382267D01*
X116431745Y-93376175D01*
X116474783Y-93372311D01*
X116533299Y-93370174D01*
X116609657Y-93369260D01*
X116706226Y-93369067D01*
X116996406Y-93369067D01*
X117019803Y-93398811D01*
G36*
X119294562Y-88132850D02*
G01*
X119377313Y-88160053D01*
X119452406Y-88205484D01*
X119524298Y-88271302D01*
X119562846Y-88315567D01*
X119602256Y-88373961D01*
X119627446Y-88434586D01*
X119640861Y-88503865D01*
X119644948Y-88588222D01*
X119644669Y-88634307D01*
X119642460Y-88675450D01*
X119636894Y-88707582D01*
X119626586Y-88738122D01*
X119610148Y-88774489D01*
X119596200Y-88801728D01*
X119537665Y-88887429D01*
X119465619Y-88956617D01*
X119381947Y-89007741D01*
X119288531Y-89039250D01*
X119255434Y-89046225D01*
X119214960Y-89053094D01*
X119181999Y-89054919D01*
X119147698Y-89051947D01*
X119103200Y-89044426D01*
X119051934Y-89032002D01*
X118961434Y-88994112D01*
X118882345Y-88939836D01*
X118816528Y-88871770D01*
X118765840Y-88792511D01*
X118732140Y-88704654D01*
X118717286Y-88610795D01*
X118723136Y-88513530D01*
X118749399Y-88417220D01*
X118794418Y-88328494D01*
X118855373Y-88253419D01*
X118930184Y-88193641D01*
X119016768Y-88150809D01*
X119113043Y-88126571D01*
X119216928Y-88122576D01*
X119294562Y-88132850D01*
G37*
X119294562Y-88132850D02*
X119377313Y-88160053D01*
X119452406Y-88205484D01*
X119524298Y-88271302D01*
X119562846Y-88315567D01*
X119602256Y-88373961D01*
X119627446Y-88434586D01*
X119640861Y-88503865D01*
X119644948Y-88588222D01*
X119644669Y-88634307D01*
X119642460Y-88675450D01*
X119636894Y-88707582D01*
X119626586Y-88738122D01*
X119610148Y-88774489D01*
X119596200Y-88801728D01*
X119537665Y-88887429D01*
X119465619Y-88956617D01*
X119381947Y-89007741D01*
X119288531Y-89039250D01*
X119255434Y-89046225D01*
X119214960Y-89053094D01*
X119181999Y-89054919D01*
X119147698Y-89051947D01*
X119103200Y-89044426D01*
X119051934Y-89032002D01*
X118961434Y-88994112D01*
X118882345Y-88939836D01*
X118816528Y-88871770D01*
X118765840Y-88792511D01*
X118732140Y-88704654D01*
X118717286Y-88610795D01*
X118723136Y-88513530D01*
X118749399Y-88417220D01*
X118794418Y-88328494D01*
X118855373Y-88253419D01*
X118930184Y-88193641D01*
X119016768Y-88150809D01*
X119113043Y-88126571D01*
X119216928Y-88122576D01*
X119294562Y-88132850D01*
G36*
X119826137Y-93373463D02*
G01*
X119860291Y-93396776D01*
X119888000Y-93424485D01*
X119888000Y-93737537D01*
X119887959Y-93821567D01*
X119887701Y-93895789D01*
X119887030Y-93952541D01*
X119885752Y-93994512D01*
X119883673Y-94024389D01*
X119880599Y-94044861D01*
X119876334Y-94058614D01*
X119870684Y-94068337D01*
X119863455Y-94076717D01*
X119831991Y-94098181D01*
X119796826Y-94099947D01*
X119763822Y-94080267D01*
X119758516Y-94074398D01*
X119753066Y-94065314D01*
X119748900Y-94051973D01*
X119745846Y-94031757D01*
X119743732Y-94002049D01*
X119742386Y-93960232D01*
X119741638Y-93903689D01*
X119741314Y-93829802D01*
X119741245Y-93735956D01*
X119741284Y-93660294D01*
X119741539Y-93582385D01*
X119742183Y-93522375D01*
X119743387Y-93477648D01*
X119745324Y-93445585D01*
X119748164Y-93423571D01*
X119752079Y-93408987D01*
X119757242Y-93399218D01*
X119763822Y-93391645D01*
X119793006Y-93372623D01*
X119826137Y-93373463D01*
G37*
X119826137Y-93373463D02*
X119860291Y-93396776D01*
X119888000Y-93424485D01*
X119888000Y-93737537D01*
X119887959Y-93821567D01*
X119887701Y-93895789D01*
X119887030Y-93952541D01*
X119885752Y-93994512D01*
X119883673Y-94024389D01*
X119880599Y-94044861D01*
X119876334Y-94058614D01*
X119870684Y-94068337D01*
X119863455Y-94076717D01*
X119831991Y-94098181D01*
X119796826Y-94099947D01*
X119763822Y-94080267D01*
X119758516Y-94074398D01*
X119753066Y-94065314D01*
X119748900Y-94051973D01*
X119745846Y-94031757D01*
X119743732Y-94002049D01*
X119742386Y-93960232D01*
X119741638Y-93903689D01*
X119741314Y-93829802D01*
X119741245Y-93735956D01*
X119741284Y-93660294D01*
X119741539Y-93582385D01*
X119742183Y-93522375D01*
X119743387Y-93477648D01*
X119745324Y-93445585D01*
X119748164Y-93423571D01*
X119752079Y-93408987D01*
X119757242Y-93399218D01*
X119763822Y-93391645D01*
X119793006Y-93372623D01*
X119826137Y-93373463D01*
G36*
X111995767Y-93369068D02*
G01*
X112089890Y-93369158D01*
X112164405Y-93369498D01*
X112221811Y-93370239D01*
X112264611Y-93371535D01*
X112295304Y-93373537D01*
X112316391Y-93376396D01*
X112330373Y-93380266D01*
X112339750Y-93385298D01*
X112347022Y-93391645D01*
X112365828Y-93424362D01*
X112367275Y-93461939D01*
X112350917Y-93495178D01*
X112349557Y-93496631D01*
X112338354Y-93504992D01*
X112321252Y-93510547D01*
X112294082Y-93513840D01*
X112252678Y-93515418D01*
X112192873Y-93515822D01*
X112053511Y-93515822D01*
X112053511Y-93779589D01*
X112053436Y-93855417D01*
X112053028Y-93922083D01*
X112052046Y-93971867D01*
X112050250Y-94007784D01*
X112047399Y-94032850D01*
X112043253Y-94050081D01*
X112037571Y-94062492D01*
X112030114Y-94073100D01*
X112027824Y-94075906D01*
X111996646Y-94098548D01*
X111962266Y-94100112D01*
X111929334Y-94080267D01*
X111922355Y-94072191D01*
X111916883Y-94061593D01*
X111912863Y-94045749D01*
X111910072Y-94021773D01*
X111908288Y-93986774D01*
X111907289Y-93937864D01*
X111906852Y-93872154D01*
X111906756Y-93786756D01*
X111906756Y-93515822D01*
X111760820Y-93515822D01*
X111749720Y-93515821D01*
X111693202Y-93515596D01*
X111654358Y-93514457D01*
X111628965Y-93511657D01*
X111612804Y-93506450D01*
X111601652Y-93498089D01*
X111591289Y-93485826D01*
X111575441Y-93455138D01*
X111578543Y-93421358D01*
X111604187Y-93388822D01*
X111609129Y-93385105D01*
X111619338Y-93380269D01*
X111634764Y-93376506D01*
X111657886Y-93373683D01*
X111691183Y-93371670D01*
X111737137Y-93370333D01*
X111798228Y-93369542D01*
X111876935Y-93369163D01*
X111975740Y-93369067D01*
X111995767Y-93369068D01*
G37*
X111995767Y-93369068D02*
X112089890Y-93369158D01*
X112164405Y-93369498D01*
X112221811Y-93370239D01*
X112264611Y-93371535D01*
X112295304Y-93373537D01*
X112316391Y-93376396D01*
X112330373Y-93380266D01*
X112339750Y-93385298D01*
X112347022Y-93391645D01*
X112365828Y-93424362D01*
X112367275Y-93461939D01*
X112350917Y-93495178D01*
X112349557Y-93496631D01*
X112338354Y-93504992D01*
X112321252Y-93510547D01*
X112294082Y-93513840D01*
X112252678Y-93515418D01*
X112192873Y-93515822D01*
X112053511Y-93515822D01*
X112053511Y-93779589D01*
X112053436Y-93855417D01*
X112053028Y-93922083D01*
X112052046Y-93971867D01*
X112050250Y-94007784D01*
X112047399Y-94032850D01*
X112043253Y-94050081D01*
X112037571Y-94062492D01*
X112030114Y-94073100D01*
X112027824Y-94075906D01*
X111996646Y-94098548D01*
X111962266Y-94100112D01*
X111929334Y-94080267D01*
X111922355Y-94072191D01*
X111916883Y-94061593D01*
X111912863Y-94045749D01*
X111910072Y-94021773D01*
X111908288Y-93986774D01*
X111907289Y-93937864D01*
X111906852Y-93872154D01*
X111906756Y-93786756D01*
X111906756Y-93515822D01*
X111760820Y-93515822D01*
X111749720Y-93515821D01*
X111693202Y-93515596D01*
X111654358Y-93514457D01*
X111628965Y-93511657D01*
X111612804Y-93506450D01*
X111601652Y-93498089D01*
X111591289Y-93485826D01*
X111575441Y-93455138D01*
X111578543Y-93421358D01*
X111604187Y-93388822D01*
X111609129Y-93385105D01*
X111619338Y-93380269D01*
X111634764Y-93376506D01*
X111657886Y-93373683D01*
X111691183Y-93371670D01*
X111737137Y-93370333D01*
X111798228Y-93369542D01*
X111876935Y-93369163D01*
X111975740Y-93369067D01*
X111995767Y-93369068D01*
G36*
X111319734Y-93391645D02*
G01*
X111325366Y-93397835D01*
X111330456Y-93406041D01*
X111334543Y-93417817D01*
X111337721Y-93435276D01*
X111340087Y-93460530D01*
X111341738Y-93495690D01*
X111342769Y-93542869D01*
X111343277Y-93604177D01*
X111343359Y-93681727D01*
X111343109Y-93777631D01*
X111342625Y-93894000D01*
X111342557Y-93908175D01*
X111341971Y-93969937D01*
X111340648Y-94013620D01*
X111338103Y-94043001D01*
X111333848Y-94061855D01*
X111327396Y-94073959D01*
X111318262Y-94083089D01*
X111284804Y-94100506D01*
X111249856Y-94097604D01*
X111218953Y-94073100D01*
X111209944Y-94059897D01*
X111202492Y-94041361D01*
X111198124Y-94015333D01*
X111196069Y-93976787D01*
X111195556Y-93920700D01*
X111195556Y-93798045D01*
X110698845Y-93798045D01*
X110698845Y-93932871D01*
X110698772Y-93968662D01*
X110698009Y-94014992D01*
X110695833Y-94045526D01*
X110691536Y-94064557D01*
X110684412Y-94076374D01*
X110673755Y-94085271D01*
X110641504Y-94100341D01*
X110606217Y-94097673D01*
X110575486Y-94073100D01*
X110570831Y-94066845D01*
X110564895Y-94056321D01*
X110560364Y-94042391D01*
X110557048Y-94022317D01*
X110554759Y-93993360D01*
X110553308Y-93952780D01*
X110552505Y-93897840D01*
X110552162Y-93825799D01*
X110552089Y-93733920D01*
X110552089Y-93424485D01*
X110579798Y-93396776D01*
X110611177Y-93374533D01*
X110644406Y-93371844D01*
X110676267Y-93391645D01*
X110684553Y-93401415D01*
X110691965Y-93417307D01*
X110696302Y-93441275D01*
X110698338Y-93478148D01*
X110698845Y-93532756D01*
X110698845Y-93651289D01*
X111195556Y-93651289D01*
X111195556Y-93535776D01*
X111195994Y-93484078D01*
X111197958Y-93449554D01*
X111202474Y-93426978D01*
X111210567Y-93411126D01*
X111223265Y-93396776D01*
X111254643Y-93374533D01*
X111287872Y-93371844D01*
X111319734Y-93391645D01*
G37*
X111319734Y-93391645D02*
X111325366Y-93397835D01*
X111330456Y-93406041D01*
X111334543Y-93417817D01*
X111337721Y-93435276D01*
X111340087Y-93460530D01*
X111341738Y-93495690D01*
X111342769Y-93542869D01*
X111343277Y-93604177D01*
X111343359Y-93681727D01*
X111343109Y-93777631D01*
X111342625Y-93894000D01*
X111342557Y-93908175D01*
X111341971Y-93969937D01*
X111340648Y-94013620D01*
X111338103Y-94043001D01*
X111333848Y-94061855D01*
X111327396Y-94073959D01*
X111318262Y-94083089D01*
X111284804Y-94100506D01*
X111249856Y-94097604D01*
X111218953Y-94073100D01*
X111209944Y-94059897D01*
X111202492Y-94041361D01*
X111198124Y-94015333D01*
X111196069Y-93976787D01*
X111195556Y-93920700D01*
X111195556Y-93798045D01*
X110698845Y-93798045D01*
X110698845Y-93932871D01*
X110698772Y-93968662D01*
X110698009Y-94014992D01*
X110695833Y-94045526D01*
X110691536Y-94064557D01*
X110684412Y-94076374D01*
X110673755Y-94085271D01*
X110641504Y-94100341D01*
X110606217Y-94097673D01*
X110575486Y-94073100D01*
X110570831Y-94066845D01*
X110564895Y-94056321D01*
X110560364Y-94042391D01*
X110557048Y-94022317D01*
X110554759Y-93993360D01*
X110553308Y-93952780D01*
X110552505Y-93897840D01*
X110552162Y-93825799D01*
X110552089Y-93733920D01*
X110552089Y-93424485D01*
X110579798Y-93396776D01*
X110611177Y-93374533D01*
X110644406Y-93371844D01*
X110676267Y-93391645D01*
X110684553Y-93401415D01*
X110691965Y-93417307D01*
X110696302Y-93441275D01*
X110698338Y-93478148D01*
X110698845Y-93532756D01*
X110698845Y-93651289D01*
X111195556Y-93651289D01*
X111195556Y-93535776D01*
X111195994Y-93484078D01*
X111197958Y-93449554D01*
X111202474Y-93426978D01*
X111210567Y-93411126D01*
X111223265Y-93396776D01*
X111254643Y-93374533D01*
X111287872Y-93371844D01*
X111319734Y-93391645D01*
G36*
X116023163Y-94013175D02*
G01*
X116020235Y-94036095D01*
X116016158Y-94051897D01*
X116010743Y-94063319D01*
X116003803Y-94073100D01*
X115980406Y-94102845D01*
X115814714Y-94102251D01*
X115779918Y-94101953D01*
X115681435Y-94098522D01*
X115600473Y-94090839D01*
X115533379Y-94078282D01*
X115476496Y-94060227D01*
X115426169Y-94036052D01*
X115422810Y-94034135D01*
X115364998Y-93997417D01*
X115322644Y-93960451D01*
X115289828Y-93916966D01*
X115260628Y-93860689D01*
X115256346Y-93851073D01*
X115233769Y-93787887D01*
X115228034Y-93742333D01*
X115377279Y-93742333D01*
X115382892Y-93767061D01*
X115388618Y-93782939D01*
X115421548Y-93842847D01*
X115468886Y-93888600D01*
X115532652Y-93921736D01*
X115614861Y-93943790D01*
X115617655Y-93944292D01*
X115663940Y-93950255D01*
X115720336Y-93954483D01*
X115775274Y-93956089D01*
X115869156Y-93956089D01*
X115869156Y-93515822D01*
X115781667Y-93516270D01*
X115714747Y-93518746D01*
X115622349Y-93529998D01*
X115543034Y-93549537D01*
X115481060Y-93576511D01*
X115450120Y-93597240D01*
X115422000Y-93627006D01*
X115398660Y-93669434D01*
X115391533Y-93685400D01*
X115379709Y-93717902D01*
X115377279Y-93742333D01*
X115228034Y-93742333D01*
X115226797Y-93732509D01*
X115235399Y-93677483D01*
X115259541Y-93615351D01*
X115260337Y-93613658D01*
X115300788Y-93544236D01*
X115351473Y-93487638D01*
X115414198Y-93443070D01*
X115490774Y-93409741D01*
X115583009Y-93386861D01*
X115692712Y-93373636D01*
X115821691Y-93369275D01*
X115825263Y-93369270D01*
X115885283Y-93369410D01*
X115927214Y-93370446D01*
X115955328Y-93373040D01*
X115973897Y-93377853D01*
X115987194Y-93385544D01*
X115999491Y-93396776D01*
X116027200Y-93424485D01*
X116027200Y-93733920D01*
X116027175Y-93795526D01*
X116026950Y-93874311D01*
X116026332Y-93935021D01*
X116025775Y-93956089D01*
X116025133Y-93980396D01*
X116023163Y-94013175D01*
G37*
X116023163Y-94013175D02*
X116020235Y-94036095D01*
X116016158Y-94051897D01*
X116010743Y-94063319D01*
X116003803Y-94073100D01*
X115980406Y-94102845D01*
X115814714Y-94102251D01*
X115779918Y-94101953D01*
X115681435Y-94098522D01*
X115600473Y-94090839D01*
X115533379Y-94078282D01*
X115476496Y-94060227D01*
X115426169Y-94036052D01*
X115422810Y-94034135D01*
X115364998Y-93997417D01*
X115322644Y-93960451D01*
X115289828Y-93916966D01*
X115260628Y-93860689D01*
X115256346Y-93851073D01*
X115233769Y-93787887D01*
X115228034Y-93742333D01*
X115377279Y-93742333D01*
X115382892Y-93767061D01*
X115388618Y-93782939D01*
X115421548Y-93842847D01*
X115468886Y-93888600D01*
X115532652Y-93921736D01*
X115614861Y-93943790D01*
X115617655Y-93944292D01*
X115663940Y-93950255D01*
X115720336Y-93954483D01*
X115775274Y-93956089D01*
X115869156Y-93956089D01*
X115869156Y-93515822D01*
X115781667Y-93516270D01*
X115714747Y-93518746D01*
X115622349Y-93529998D01*
X115543034Y-93549537D01*
X115481060Y-93576511D01*
X115450120Y-93597240D01*
X115422000Y-93627006D01*
X115398660Y-93669434D01*
X115391533Y-93685400D01*
X115379709Y-93717902D01*
X115377279Y-93742333D01*
X115228034Y-93742333D01*
X115226797Y-93732509D01*
X115235399Y-93677483D01*
X115259541Y-93615351D01*
X115260337Y-93613658D01*
X115300788Y-93544236D01*
X115351473Y-93487638D01*
X115414198Y-93443070D01*
X115490774Y-93409741D01*
X115583009Y-93386861D01*
X115692712Y-93373636D01*
X115821691Y-93369275D01*
X115825263Y-93369270D01*
X115885283Y-93369410D01*
X115927214Y-93370446D01*
X115955328Y-93373040D01*
X115973897Y-93377853D01*
X115987194Y-93385544D01*
X115999491Y-93396776D01*
X116027200Y-93424485D01*
X116027200Y-93733920D01*
X116027175Y-93795526D01*
X116026950Y-93874311D01*
X116026332Y-93935021D01*
X116025775Y-93956089D01*
X116025133Y-93980396D01*
X116023163Y-94013175D01*
%TD*%
M02*
