M48
; DRILL file {KiCad 6.0.4-6f826c9f35~116~ubuntu20.04.1} date Mon 18 Apr 2022 02:08:05 PM
; FORMAT={-:-/ absolute / metric / decimal}
; #@! TF.CreationDate,2022-04-18T14:08:05+07:00
; #@! TF.GenerationSoftware,Kicad,Pcbnew,6.0.4-6f826c9f35~116~ubuntu20.04.1
; #@! TF.FileFunction,MixedPlating,1,2
FMAT,2
METRIC
; #@! TA.AperFunction,Plated,PTH,ComponentDrill
T1C1.000
%
G90
G05
T1
X100.17Y-74.22
X100.17Y-76.76
X100.17Y-79.3
X100.17Y-81.84
X100.17Y-84.38
X100.17Y-86.92
X100.17Y-97.08
X100.17Y-99.62
X100.17Y-102.16
X100.17Y-104.7
X100.17Y-107.24
X100.17Y-109.78
X102.71Y-74.22
X102.71Y-76.76
X102.71Y-79.3
X102.71Y-81.84
X102.71Y-84.38
X102.71Y-86.92
X102.71Y-97.08
X102.71Y-99.62
X102.71Y-102.16
X102.71Y-104.7
X102.71Y-107.24
X102.71Y-109.78
T0
M30
