%TF.GenerationSoftware,KiCad,Pcbnew,6.0.4-6f826c9f35~116~ubuntu20.04.1*%
%TF.CreationDate,2022-04-18T14:08:09+07:00*%
%TF.ProjectId,pmod-thin-16-leds,706d6f64-2d74-4686-996e-2d31362d6c65,1.0*%
%TF.SameCoordinates,Original*%
%TF.FileFunction,Copper,L2,Bot*%
%TF.FilePolarity,Positive*%
%FSLAX46Y46*%
G04 Gerber Fmt 4.6, Leading zero omitted, Abs format (unit mm)*
G04 Created by KiCad (PCBNEW 6.0.4-6f826c9f35~116~ubuntu20.04.1) date 2022-04-18 14:08:09*
%MOMM*%
%LPD*%
G01*
G04 APERTURE LIST*
%TA.AperFunction,ComponentPad*%
%ADD10R,1.700000X1.700000*%
%TD*%
%TA.AperFunction,ComponentPad*%
%ADD11O,1.700000X1.700000*%
%TD*%
%TA.AperFunction,ComponentPad*%
%ADD12C,1.700000*%
%TD*%
%TA.AperFunction,Conductor*%
%ADD13C,0.254000*%
%TD*%
G04 APERTURE END LIST*
D10*
%TO.P,J1,1,Pin_1*%
%TO.N,/p1*%
X102710000Y-74220000D03*
D11*
%TO.P,J1,2,Pin_2*%
%TO.N,/p3*%
X102710000Y-76760000D03*
%TO.P,J1,3,Pin_3*%
%TO.N,/p5*%
X102710000Y-79300000D03*
%TO.P,J1,4,Pin_4*%
%TO.N,/p7*%
X102710000Y-81840000D03*
%TO.P,J1,5,GND*%
%TO.N,GND*%
X102710000Y-84380000D03*
D12*
%TO.P,J1,6,3.3V*%
%TO.N,+3V3*%
X102710000Y-86920000D03*
%TO.P,J1,7,Pin_7*%
%TO.N,/p2*%
X100170000Y-74220000D03*
D11*
%TO.P,J1,8,Pin_8*%
%TO.N,/p4*%
X100170000Y-76760000D03*
%TO.P,J1,9,Pin_9*%
%TO.N,/p6*%
X100170000Y-79300000D03*
%TO.P,J1,10,Pin_10*%
%TO.N,/p8*%
X100170000Y-81840000D03*
%TO.P,J1,11,GND*%
%TO.N,GND*%
X100170000Y-84380000D03*
%TO.P,J1,12,3.3V*%
%TO.N,+3V3*%
X100170000Y-86920000D03*
%TD*%
D10*
%TO.P,J2,1,Pin_1*%
%TO.N,/p9*%
X102710000Y-97080000D03*
D11*
%TO.P,J2,2,Pin_2*%
%TO.N,/p11*%
X102710000Y-99620000D03*
%TO.P,J2,3,Pin_3*%
%TO.N,/p13*%
X102710000Y-102160000D03*
%TO.P,J2,4,Pin_4*%
%TO.N,/p15*%
X102710000Y-104700000D03*
%TO.P,J2,5,GND*%
%TO.N,GND*%
X102710000Y-107240000D03*
D12*
%TO.P,J2,6,3.3V*%
%TO.N,+3V3*%
X102710000Y-109780000D03*
%TO.P,J2,7,Pin_7*%
%TO.N,/p10*%
X100170000Y-97080000D03*
D11*
%TO.P,J2,8,Pin_8*%
%TO.N,/p12*%
X100170000Y-99620000D03*
%TO.P,J2,9,Pin_9*%
%TO.N,/p14*%
X100170000Y-102160000D03*
%TO.P,J2,10,Pin_10*%
%TO.N,/p16*%
X100170000Y-104700000D03*
%TO.P,J2,11,GND*%
%TO.N,GND*%
X100170000Y-107240000D03*
%TO.P,J2,12,3.3V*%
%TO.N,+3V3*%
X100170000Y-109780000D03*
%TD*%
D13*
%TO.N,+3V3*%
X98939489Y-108549489D02*
X100170000Y-109780000D01*
X100170000Y-109780000D02*
X102710000Y-109780000D01*
X98939489Y-88150511D02*
X98939489Y-108549489D01*
X100170000Y-86920000D02*
X98939489Y-88150511D01*
X102710000Y-86920000D02*
X100170000Y-86920000D01*
%TD*%
%TA.AperFunction,Conductor*%
%TO.N,GND*%
G36*
X123544942Y-71506897D02*
G01*
X123559750Y-71509203D01*
X123559752Y-71509203D01*
X123568621Y-71510584D01*
X123577524Y-71509420D01*
X123577526Y-71509420D01*
X123577650Y-71509404D01*
X123608088Y-71509133D01*
X123637755Y-71512475D01*
X123670158Y-71516126D01*
X123697666Y-71522404D01*
X123774756Y-71549379D01*
X123800176Y-71561620D01*
X123869326Y-71605069D01*
X123891386Y-71622661D01*
X123949135Y-71680409D01*
X123966727Y-71702469D01*
X124010178Y-71771621D01*
X124022420Y-71797041D01*
X124049393Y-71874124D01*
X124055672Y-71901632D01*
X124061919Y-71957072D01*
X124061611Y-71972764D01*
X124062693Y-71972777D01*
X124062584Y-71981746D01*
X124061202Y-71990621D01*
X124065328Y-72022171D01*
X124066391Y-72038500D01*
X124065479Y-90278318D01*
X124064395Y-111953521D01*
X124062895Y-111972898D01*
X124060583Y-111987745D01*
X124060583Y-111987752D01*
X124059202Y-111996621D01*
X124060382Y-112005646D01*
X124060654Y-112036081D01*
X124053661Y-112098155D01*
X124047382Y-112125664D01*
X124020408Y-112202752D01*
X124008169Y-112228168D01*
X123964714Y-112297325D01*
X123947125Y-112319380D01*
X123889380Y-112377125D01*
X123867325Y-112394714D01*
X123798168Y-112438169D01*
X123772752Y-112450408D01*
X123695664Y-112477382D01*
X123668159Y-112483660D01*
X123612673Y-112489912D01*
X123597036Y-112489245D01*
X123597018Y-112490694D01*
X123588047Y-112490584D01*
X123579173Y-112489202D01*
X123570270Y-112490366D01*
X123570265Y-112490366D01*
X123547621Y-112493327D01*
X123531284Y-112494391D01*
X97117866Y-112492996D01*
X97098489Y-112491495D01*
X97083645Y-112489183D01*
X97083641Y-112489183D01*
X97074773Y-112487802D01*
X97065871Y-112488966D01*
X97065869Y-112488966D01*
X97065753Y-112488981D01*
X97035304Y-112489252D01*
X96973233Y-112482257D01*
X96945727Y-112475979D01*
X96868645Y-112449006D01*
X96843226Y-112436765D01*
X96776306Y-112394717D01*
X96774076Y-112393316D01*
X96752017Y-112375724D01*
X96694271Y-112317976D01*
X96676680Y-112295917D01*
X96633233Y-112226770D01*
X96620992Y-112201350D01*
X96594018Y-112124263D01*
X96587739Y-112096754D01*
X96581477Y-112041170D01*
X96580694Y-112025522D01*
X96580803Y-112016646D01*
X96582184Y-112007773D01*
X96578052Y-111976168D01*
X96576989Y-111959850D01*
X96576989Y-111953521D01*
X96574606Y-88130390D01*
X98299254Y-88130390D01*
X98300000Y-88138282D01*
X98303430Y-88174567D01*
X98303989Y-88186425D01*
X98303989Y-108470469D01*
X98303459Y-108481703D01*
X98301781Y-108489208D01*
X98302030Y-108497127D01*
X98303927Y-108557501D01*
X98303989Y-108561458D01*
X98303989Y-108589472D01*
X98304485Y-108593397D01*
X98304485Y-108593398D01*
X98304497Y-108593493D01*
X98305430Y-108605338D01*
X98306824Y-108649694D01*
X98309036Y-108657306D01*
X98312502Y-108669237D01*
X98316512Y-108688601D01*
X98319062Y-108708788D01*
X98321978Y-108716152D01*
X98321979Y-108716157D01*
X98335396Y-108750045D01*
X98339241Y-108761274D01*
X98344087Y-108777954D01*
X98351620Y-108803882D01*
X98355658Y-108810709D01*
X98355659Y-108810712D01*
X98361977Y-108821395D01*
X98370677Y-108839153D01*
X98375250Y-108850704D01*
X98375254Y-108850710D01*
X98378170Y-108858077D01*
X98382828Y-108864488D01*
X98382829Y-108864490D01*
X98404253Y-108893977D01*
X98410770Y-108903899D01*
X98429315Y-108935257D01*
X98429318Y-108935261D01*
X98433355Y-108942087D01*
X98447739Y-108956471D01*
X98460580Y-108971505D01*
X98472547Y-108987976D01*
X98478655Y-108993029D01*
X98506744Y-109016266D01*
X98515524Y-109024256D01*
X98819164Y-109327896D01*
X98853190Y-109390208D01*
X98851486Y-109450662D01*
X98830989Y-109524570D01*
X98830441Y-109529700D01*
X98830440Y-109529704D01*
X98826933Y-109562522D01*
X98807251Y-109746695D01*
X98807548Y-109751848D01*
X98807548Y-109751851D01*
X98813011Y-109846590D01*
X98820110Y-109969715D01*
X98821247Y-109974761D01*
X98821248Y-109974767D01*
X98841119Y-110062939D01*
X98869222Y-110187639D01*
X98953266Y-110394616D01*
X99069987Y-110585088D01*
X99216250Y-110753938D01*
X99388126Y-110896632D01*
X99581000Y-111009338D01*
X99789692Y-111089030D01*
X99794760Y-111090061D01*
X99794763Y-111090062D01*
X99902017Y-111111883D01*
X100008597Y-111133567D01*
X100013772Y-111133757D01*
X100013774Y-111133757D01*
X100226673Y-111141564D01*
X100226677Y-111141564D01*
X100231837Y-111141753D01*
X100236957Y-111141097D01*
X100236959Y-111141097D01*
X100448288Y-111114025D01*
X100448289Y-111114025D01*
X100453416Y-111113368D01*
X100458366Y-111111883D01*
X100662429Y-111050661D01*
X100662434Y-111050659D01*
X100667384Y-111049174D01*
X100867994Y-110950896D01*
X101049860Y-110821173D01*
X101208096Y-110663489D01*
X101267594Y-110580689D01*
X101338453Y-110482077D01*
X101339771Y-110483024D01*
X101386676Y-110439842D01*
X101456614Y-110427628D01*
X101522053Y-110455165D01*
X101549876Y-110486995D01*
X101607287Y-110580684D01*
X101607291Y-110580689D01*
X101609987Y-110585088D01*
X101756250Y-110753938D01*
X101928126Y-110896632D01*
X102121000Y-111009338D01*
X102329692Y-111089030D01*
X102334760Y-111090061D01*
X102334763Y-111090062D01*
X102442017Y-111111883D01*
X102548597Y-111133567D01*
X102553772Y-111133757D01*
X102553774Y-111133757D01*
X102766673Y-111141564D01*
X102766677Y-111141564D01*
X102771837Y-111141753D01*
X102776957Y-111141097D01*
X102776959Y-111141097D01*
X102988288Y-111114025D01*
X102988289Y-111114025D01*
X102993416Y-111113368D01*
X102998366Y-111111883D01*
X103202429Y-111050661D01*
X103202434Y-111050659D01*
X103207384Y-111049174D01*
X103407994Y-110950896D01*
X103589860Y-110821173D01*
X103748096Y-110663489D01*
X103807594Y-110580689D01*
X103875435Y-110486277D01*
X103878453Y-110482077D01*
X103977430Y-110281811D01*
X104042370Y-110068069D01*
X104071529Y-109846590D01*
X104073156Y-109780000D01*
X104054852Y-109557361D01*
X104000431Y-109340702D01*
X103911354Y-109135840D01*
X103833998Y-109016266D01*
X103792822Y-108952617D01*
X103792820Y-108952614D01*
X103790014Y-108948277D01*
X103639670Y-108783051D01*
X103635619Y-108779852D01*
X103635615Y-108779848D01*
X103468414Y-108647800D01*
X103468410Y-108647798D01*
X103464359Y-108644598D01*
X103422569Y-108621529D01*
X103372598Y-108571097D01*
X103357826Y-108501654D01*
X103382942Y-108435248D01*
X103410294Y-108408641D01*
X103585328Y-108283792D01*
X103593200Y-108277139D01*
X103744052Y-108126812D01*
X103750730Y-108118965D01*
X103875003Y-107946020D01*
X103880313Y-107937183D01*
X103974670Y-107746267D01*
X103978469Y-107736672D01*
X104040377Y-107532910D01*
X104042555Y-107522837D01*
X104043986Y-107511962D01*
X104041775Y-107497778D01*
X104028617Y-107494000D01*
X100042000Y-107494000D01*
X99973879Y-107473998D01*
X99927386Y-107420342D01*
X99916000Y-107368000D01*
X99916000Y-107112000D01*
X99936002Y-107043879D01*
X99989658Y-106997386D01*
X100042000Y-106986000D01*
X104028344Y-106986000D01*
X104041875Y-106982027D01*
X104043180Y-106972947D01*
X104001214Y-106805875D01*
X103997894Y-106796124D01*
X103912972Y-106600814D01*
X103908105Y-106591739D01*
X103792426Y-106412926D01*
X103786136Y-106404757D01*
X103642806Y-106247240D01*
X103635273Y-106240215D01*
X103468139Y-106108222D01*
X103459556Y-106102520D01*
X103422602Y-106082120D01*
X103372631Y-106031687D01*
X103357859Y-105962245D01*
X103382975Y-105895839D01*
X103410327Y-105869232D01*
X103433797Y-105852491D01*
X103589860Y-105741173D01*
X103748096Y-105583489D01*
X103878453Y-105402077D01*
X103899320Y-105359857D01*
X103975136Y-105206453D01*
X103975137Y-105206451D01*
X103977430Y-105201811D01*
X104042370Y-104988069D01*
X104071529Y-104766590D01*
X104073156Y-104700000D01*
X104054852Y-104477361D01*
X104000431Y-104260702D01*
X103911354Y-104055840D01*
X103790014Y-103868277D01*
X103639670Y-103703051D01*
X103635619Y-103699852D01*
X103635615Y-103699848D01*
X103468414Y-103567800D01*
X103468410Y-103567798D01*
X103464359Y-103564598D01*
X103423053Y-103541796D01*
X103373084Y-103491364D01*
X103358312Y-103421921D01*
X103383428Y-103355516D01*
X103410780Y-103328909D01*
X103454603Y-103297650D01*
X103589860Y-103201173D01*
X103748096Y-103043489D01*
X103878453Y-102862077D01*
X103899320Y-102819857D01*
X103975136Y-102666453D01*
X103975137Y-102666451D01*
X103977430Y-102661811D01*
X104042370Y-102448069D01*
X104071529Y-102226590D01*
X104073156Y-102160000D01*
X104054852Y-101937361D01*
X104000431Y-101720702D01*
X103911354Y-101515840D01*
X103790014Y-101328277D01*
X103639670Y-101163051D01*
X103635619Y-101159852D01*
X103635615Y-101159848D01*
X103468414Y-101027800D01*
X103468410Y-101027798D01*
X103464359Y-101024598D01*
X103423053Y-101001796D01*
X103373084Y-100951364D01*
X103358312Y-100881921D01*
X103383428Y-100815516D01*
X103410780Y-100788909D01*
X103454603Y-100757650D01*
X103589860Y-100661173D01*
X103748096Y-100503489D01*
X103878453Y-100322077D01*
X103899320Y-100279857D01*
X103975136Y-100126453D01*
X103975137Y-100126451D01*
X103977430Y-100121811D01*
X104042370Y-99908069D01*
X104071529Y-99686590D01*
X104073156Y-99620000D01*
X104054852Y-99397361D01*
X104000431Y-99180702D01*
X103911354Y-98975840D01*
X103790014Y-98788277D01*
X103786532Y-98784450D01*
X103642798Y-98626488D01*
X103611746Y-98562642D01*
X103620141Y-98492143D01*
X103665317Y-98437375D01*
X103691761Y-98423706D01*
X103798297Y-98383767D01*
X103806705Y-98380615D01*
X103923261Y-98293261D01*
X104010615Y-98176705D01*
X104061745Y-98040316D01*
X104068500Y-97978134D01*
X104068500Y-96181866D01*
X104061745Y-96119684D01*
X104010615Y-95983295D01*
X103923261Y-95866739D01*
X103806705Y-95779385D01*
X103670316Y-95728255D01*
X103608134Y-95721500D01*
X101811866Y-95721500D01*
X101749684Y-95728255D01*
X101613295Y-95779385D01*
X101496739Y-95866739D01*
X101409385Y-95983295D01*
X101406233Y-95991703D01*
X101364919Y-96101907D01*
X101322277Y-96158671D01*
X101255716Y-96183371D01*
X101186367Y-96168163D01*
X101153743Y-96142476D01*
X101103151Y-96086875D01*
X101103142Y-96086866D01*
X101099670Y-96083051D01*
X101095619Y-96079852D01*
X101095615Y-96079848D01*
X100928414Y-95947800D01*
X100928410Y-95947798D01*
X100924359Y-95944598D01*
X100728789Y-95836638D01*
X100723920Y-95834914D01*
X100723916Y-95834912D01*
X100523087Y-95763795D01*
X100523083Y-95763794D01*
X100518212Y-95762069D01*
X100513119Y-95761162D01*
X100513116Y-95761161D01*
X100303373Y-95723800D01*
X100303367Y-95723799D01*
X100298284Y-95722894D01*
X100224452Y-95721992D01*
X100080081Y-95720228D01*
X100080079Y-95720228D01*
X100074911Y-95720165D01*
X99854091Y-95753955D01*
X99759810Y-95784771D01*
X99740134Y-95791202D01*
X99669170Y-95793353D01*
X99608309Y-95756797D01*
X99576872Y-95693140D01*
X99574989Y-95671437D01*
X99574989Y-88465933D01*
X99594991Y-88397812D01*
X99611894Y-88376838D01*
X99716899Y-88271833D01*
X99779211Y-88237807D01*
X99831112Y-88237457D01*
X100008597Y-88273567D01*
X100013772Y-88273757D01*
X100013774Y-88273757D01*
X100226673Y-88281564D01*
X100226677Y-88281564D01*
X100231837Y-88281753D01*
X100236957Y-88281097D01*
X100236959Y-88281097D01*
X100448288Y-88254025D01*
X100448289Y-88254025D01*
X100453416Y-88253368D01*
X100458366Y-88251883D01*
X100662429Y-88190661D01*
X100662434Y-88190659D01*
X100667384Y-88189174D01*
X100867994Y-88090896D01*
X101049860Y-87961173D01*
X101208096Y-87803489D01*
X101338453Y-87622077D01*
X101339771Y-87623024D01*
X101386676Y-87579842D01*
X101456614Y-87567628D01*
X101522053Y-87595165D01*
X101549876Y-87626995D01*
X101607287Y-87720684D01*
X101607295Y-87720694D01*
X101609987Y-87725088D01*
X101756250Y-87893938D01*
X101928126Y-88036632D01*
X102121000Y-88149338D01*
X102329692Y-88229030D01*
X102334760Y-88230061D01*
X102334763Y-88230062D01*
X102442017Y-88251883D01*
X102548597Y-88273567D01*
X102553772Y-88273757D01*
X102553774Y-88273757D01*
X102766673Y-88281564D01*
X102766677Y-88281564D01*
X102771837Y-88281753D01*
X102776957Y-88281097D01*
X102776959Y-88281097D01*
X102988288Y-88254025D01*
X102988289Y-88254025D01*
X102993416Y-88253368D01*
X102998366Y-88251883D01*
X103202429Y-88190661D01*
X103202434Y-88190659D01*
X103207384Y-88189174D01*
X103407994Y-88090896D01*
X103589860Y-87961173D01*
X103748096Y-87803489D01*
X103878453Y-87622077D01*
X103977430Y-87421811D01*
X104042370Y-87208069D01*
X104071529Y-86986590D01*
X104073156Y-86920000D01*
X104054852Y-86697361D01*
X104000431Y-86480702D01*
X103911354Y-86275840D01*
X103790014Y-86088277D01*
X103639670Y-85923051D01*
X103635619Y-85919852D01*
X103635615Y-85919848D01*
X103468414Y-85787800D01*
X103468410Y-85787798D01*
X103464359Y-85784598D01*
X103422569Y-85761529D01*
X103372598Y-85711097D01*
X103357826Y-85641654D01*
X103382942Y-85575248D01*
X103410294Y-85548641D01*
X103585328Y-85423792D01*
X103593200Y-85417139D01*
X103744052Y-85266812D01*
X103750730Y-85258965D01*
X103875003Y-85086020D01*
X103880313Y-85077183D01*
X103974670Y-84886267D01*
X103978469Y-84876672D01*
X104040377Y-84672910D01*
X104042555Y-84662837D01*
X104043986Y-84651962D01*
X104041775Y-84637778D01*
X104028617Y-84634000D01*
X98853225Y-84634000D01*
X98839694Y-84637973D01*
X98838257Y-84647966D01*
X98868565Y-84782446D01*
X98871645Y-84792275D01*
X98951770Y-84989603D01*
X98956413Y-84998794D01*
X99067694Y-85180388D01*
X99073777Y-85188699D01*
X99213213Y-85349667D01*
X99220580Y-85356883D01*
X99384434Y-85492916D01*
X99392881Y-85498831D01*
X99461969Y-85539203D01*
X99510693Y-85590842D01*
X99523764Y-85660625D01*
X99497033Y-85726396D01*
X99456584Y-85759752D01*
X99443607Y-85766507D01*
X99439474Y-85769610D01*
X99439471Y-85769612D01*
X99415247Y-85787800D01*
X99264965Y-85900635D01*
X99110629Y-86062138D01*
X98984743Y-86246680D01*
X98890688Y-86449305D01*
X98830989Y-86664570D01*
X98807251Y-86886695D01*
X98807548Y-86891848D01*
X98807548Y-86891851D01*
X98813011Y-86986590D01*
X98820110Y-87109715D01*
X98821247Y-87114761D01*
X98821248Y-87114767D01*
X98852933Y-87255360D01*
X98848397Y-87326212D01*
X98819111Y-87372156D01*
X98546006Y-87645261D01*
X98537680Y-87652837D01*
X98531186Y-87656958D01*
X98525763Y-87662733D01*
X98484404Y-87706776D01*
X98481649Y-87709618D01*
X98461850Y-87729417D01*
X98459426Y-87732542D01*
X98459418Y-87732551D01*
X98459352Y-87732637D01*
X98451644Y-87741662D01*
X98421272Y-87774005D01*
X98417454Y-87780949D01*
X98417453Y-87780951D01*
X98411467Y-87791840D01*
X98400616Y-87808358D01*
X98388139Y-87824444D01*
X98370513Y-87865177D01*
X98365296Y-87875825D01*
X98343920Y-87914708D01*
X98341949Y-87922383D01*
X98341947Y-87922389D01*
X98338858Y-87934422D01*
X98332455Y-87953124D01*
X98324372Y-87971803D01*
X98323133Y-87979628D01*
X98317429Y-88015638D01*
X98315024Y-88027251D01*
X98303989Y-88070229D01*
X98303989Y-88090576D01*
X98302438Y-88110287D01*
X98299254Y-88130390D01*
X96574606Y-88130390D01*
X96573974Y-81806695D01*
X98807251Y-81806695D01*
X98807548Y-81811848D01*
X98807548Y-81811851D01*
X98813011Y-81906590D01*
X98820110Y-82029715D01*
X98821247Y-82034761D01*
X98821248Y-82034767D01*
X98841119Y-82122939D01*
X98869222Y-82247639D01*
X98953266Y-82454616D01*
X99004019Y-82537438D01*
X99067291Y-82640688D01*
X99069987Y-82645088D01*
X99216250Y-82813938D01*
X99388126Y-82956632D01*
X99461955Y-82999774D01*
X99510679Y-83051412D01*
X99523750Y-83121195D01*
X99497019Y-83186967D01*
X99456562Y-83220327D01*
X99448457Y-83224546D01*
X99439738Y-83230036D01*
X99269433Y-83357905D01*
X99261726Y-83364748D01*
X99114590Y-83518717D01*
X99108104Y-83526727D01*
X98988098Y-83702649D01*
X98983000Y-83711623D01*
X98893338Y-83904783D01*
X98889775Y-83914470D01*
X98834389Y-84114183D01*
X98835912Y-84122607D01*
X98848292Y-84126000D01*
X104028344Y-84126000D01*
X104041875Y-84122027D01*
X104043180Y-84112947D01*
X104001214Y-83945875D01*
X103997894Y-83936124D01*
X103912972Y-83740814D01*
X103908105Y-83731739D01*
X103792426Y-83552926D01*
X103786136Y-83544757D01*
X103642806Y-83387240D01*
X103635273Y-83380215D01*
X103468139Y-83248222D01*
X103459556Y-83242520D01*
X103422602Y-83222120D01*
X103372631Y-83171687D01*
X103357859Y-83102245D01*
X103382975Y-83035839D01*
X103410327Y-83009232D01*
X103433797Y-82992491D01*
X103589860Y-82881173D01*
X103748096Y-82723489D01*
X103807594Y-82640689D01*
X103875435Y-82546277D01*
X103878453Y-82542077D01*
X103899320Y-82499857D01*
X103975136Y-82346453D01*
X103975137Y-82346451D01*
X103977430Y-82341811D01*
X104042370Y-82128069D01*
X104071529Y-81906590D01*
X104073156Y-81840000D01*
X104054852Y-81617361D01*
X104000431Y-81400702D01*
X103911354Y-81195840D01*
X103790014Y-81008277D01*
X103639670Y-80843051D01*
X103635619Y-80839852D01*
X103635615Y-80839848D01*
X103468414Y-80707800D01*
X103468410Y-80707798D01*
X103464359Y-80704598D01*
X103423053Y-80681796D01*
X103373084Y-80631364D01*
X103358312Y-80561921D01*
X103383428Y-80495516D01*
X103410780Y-80468909D01*
X103454603Y-80437650D01*
X103589860Y-80341173D01*
X103748096Y-80183489D01*
X103807594Y-80100689D01*
X103875435Y-80006277D01*
X103878453Y-80002077D01*
X103899320Y-79959857D01*
X103975136Y-79806453D01*
X103975137Y-79806451D01*
X103977430Y-79801811D01*
X104042370Y-79588069D01*
X104071529Y-79366590D01*
X104073156Y-79300000D01*
X104054852Y-79077361D01*
X104000431Y-78860702D01*
X103911354Y-78655840D01*
X103790014Y-78468277D01*
X103639670Y-78303051D01*
X103635619Y-78299852D01*
X103635615Y-78299848D01*
X103468414Y-78167800D01*
X103468410Y-78167798D01*
X103464359Y-78164598D01*
X103423053Y-78141796D01*
X103373084Y-78091364D01*
X103358312Y-78021921D01*
X103383428Y-77955516D01*
X103410780Y-77928909D01*
X103454603Y-77897650D01*
X103589860Y-77801173D01*
X103748096Y-77643489D01*
X103807594Y-77560689D01*
X103875435Y-77466277D01*
X103878453Y-77462077D01*
X103899320Y-77419857D01*
X103975136Y-77266453D01*
X103975137Y-77266451D01*
X103977430Y-77261811D01*
X104042370Y-77048069D01*
X104071529Y-76826590D01*
X104073156Y-76760000D01*
X104054852Y-76537361D01*
X104000431Y-76320702D01*
X103911354Y-76115840D01*
X103790014Y-75928277D01*
X103786532Y-75924450D01*
X103642798Y-75766488D01*
X103611746Y-75702642D01*
X103620141Y-75632143D01*
X103665317Y-75577375D01*
X103691761Y-75563706D01*
X103798297Y-75523767D01*
X103806705Y-75520615D01*
X103923261Y-75433261D01*
X104010615Y-75316705D01*
X104061745Y-75180316D01*
X104068500Y-75118134D01*
X104068500Y-73321866D01*
X104061745Y-73259684D01*
X104010615Y-73123295D01*
X103923261Y-73006739D01*
X103806705Y-72919385D01*
X103670316Y-72868255D01*
X103608134Y-72861500D01*
X101811866Y-72861500D01*
X101749684Y-72868255D01*
X101613295Y-72919385D01*
X101496739Y-73006739D01*
X101409385Y-73123295D01*
X101406233Y-73131703D01*
X101364919Y-73241907D01*
X101322277Y-73298671D01*
X101255716Y-73323371D01*
X101186367Y-73308163D01*
X101153743Y-73282476D01*
X101103151Y-73226875D01*
X101103142Y-73226866D01*
X101099670Y-73223051D01*
X101095619Y-73219852D01*
X101095615Y-73219848D01*
X100928414Y-73087800D01*
X100928410Y-73087798D01*
X100924359Y-73084598D01*
X100728789Y-72976638D01*
X100723920Y-72974914D01*
X100723916Y-72974912D01*
X100523087Y-72903795D01*
X100523083Y-72903794D01*
X100518212Y-72902069D01*
X100513119Y-72901162D01*
X100513116Y-72901161D01*
X100303373Y-72863800D01*
X100303367Y-72863799D01*
X100298284Y-72862894D01*
X100224452Y-72861992D01*
X100080081Y-72860228D01*
X100080079Y-72860228D01*
X100074911Y-72860165D01*
X99854091Y-72893955D01*
X99641756Y-72963357D01*
X99443607Y-73066507D01*
X99439474Y-73069610D01*
X99439471Y-73069612D01*
X99269100Y-73197530D01*
X99264965Y-73200635D01*
X99225525Y-73241907D01*
X99171280Y-73298671D01*
X99110629Y-73362138D01*
X98984743Y-73546680D01*
X98890688Y-73749305D01*
X98830989Y-73964570D01*
X98807251Y-74186695D01*
X98820110Y-74409715D01*
X98821247Y-74414761D01*
X98821248Y-74414767D01*
X98845304Y-74521508D01*
X98869222Y-74627639D01*
X98953266Y-74834616D01*
X99069987Y-75025088D01*
X99216250Y-75193938D01*
X99388126Y-75336632D01*
X99458595Y-75377811D01*
X99461445Y-75379476D01*
X99510169Y-75431114D01*
X99523240Y-75500897D01*
X99496509Y-75566669D01*
X99456055Y-75600027D01*
X99443607Y-75606507D01*
X99439474Y-75609610D01*
X99439471Y-75609612D01*
X99315567Y-75702642D01*
X99264965Y-75740635D01*
X99110629Y-75902138D01*
X98984743Y-76086680D01*
X98890688Y-76289305D01*
X98830989Y-76504570D01*
X98807251Y-76726695D01*
X98807548Y-76731848D01*
X98807548Y-76731851D01*
X98813011Y-76826590D01*
X98820110Y-76949715D01*
X98821247Y-76954761D01*
X98821248Y-76954767D01*
X98841119Y-77042939D01*
X98869222Y-77167639D01*
X98953266Y-77374616D01*
X99004019Y-77457438D01*
X99067291Y-77560688D01*
X99069987Y-77565088D01*
X99216250Y-77733938D01*
X99388126Y-77876632D01*
X99458595Y-77917811D01*
X99461445Y-77919476D01*
X99510169Y-77971114D01*
X99523240Y-78040897D01*
X99496509Y-78106669D01*
X99456055Y-78140027D01*
X99443607Y-78146507D01*
X99439474Y-78149610D01*
X99439471Y-78149612D01*
X99415247Y-78167800D01*
X99264965Y-78280635D01*
X99110629Y-78442138D01*
X98984743Y-78626680D01*
X98890688Y-78829305D01*
X98830989Y-79044570D01*
X98807251Y-79266695D01*
X98807548Y-79271848D01*
X98807548Y-79271851D01*
X98813011Y-79366590D01*
X98820110Y-79489715D01*
X98821247Y-79494761D01*
X98821248Y-79494767D01*
X98841119Y-79582939D01*
X98869222Y-79707639D01*
X98953266Y-79914616D01*
X99004019Y-79997438D01*
X99067291Y-80100688D01*
X99069987Y-80105088D01*
X99216250Y-80273938D01*
X99388126Y-80416632D01*
X99458595Y-80457811D01*
X99461445Y-80459476D01*
X99510169Y-80511114D01*
X99523240Y-80580897D01*
X99496509Y-80646669D01*
X99456055Y-80680027D01*
X99443607Y-80686507D01*
X99439474Y-80689610D01*
X99439471Y-80689612D01*
X99415247Y-80707800D01*
X99264965Y-80820635D01*
X99110629Y-80982138D01*
X98984743Y-81166680D01*
X98890688Y-81369305D01*
X98830989Y-81584570D01*
X98807251Y-81806695D01*
X96573974Y-81806695D01*
X96573313Y-75197240D01*
X96572998Y-72048844D01*
X96574498Y-72029446D01*
X96576803Y-72014644D01*
X96576803Y-72014642D01*
X96578184Y-72005773D01*
X96577005Y-71996753D01*
X96576733Y-71966305D01*
X96577774Y-71957072D01*
X96583728Y-71904230D01*
X96590007Y-71876724D01*
X96616978Y-71799645D01*
X96629220Y-71774224D01*
X96672674Y-71705068D01*
X96690266Y-71683009D01*
X96748009Y-71625266D01*
X96770068Y-71607674D01*
X96839224Y-71564220D01*
X96864637Y-71551981D01*
X96941730Y-71525005D01*
X96969231Y-71518728D01*
X97006968Y-71514476D01*
X97024723Y-71512475D01*
X97040364Y-71512707D01*
X97040376Y-71511693D01*
X97049346Y-71511802D01*
X97058221Y-71513184D01*
X97089812Y-71509053D01*
X97106133Y-71507989D01*
X118817798Y-71505859D01*
X123525544Y-71505397D01*
X123544942Y-71506897D01*
G37*
%TD.AperFunction*%
%TD*%
M02*
